<?xml version="1.0" encoding="UTF-8" standalone="no"?>
<!DOCTYPE svg  PUBLIC '-//W3C//DTD SVG 1.1//EN'  'http://www.w3.org/Graphics/SVG/1.1/DTD/svg11.dtd'>
<svg xmlns="http://www.w3.org/2000/svg">
<defs>
<font id="Ambivium-Regular" horiz-adv-x="604">
<font-face underline-position="-100" font-weight="500" descent="-200" panose-1="2 11 6 3 0 0 0 2 0 4" units-per-em="1000" unicode-range="U+0020-FB04" bbox="-107 -275 1006 1008" x-height="550" underline-thickness="50" font-family="Ambivium" ascent="800" cap-height="770"/>
<missing-glyph horiz-adv-x="260"/>
<glyph glyph-name="ff" horiz-adv-x="652" unicode="ff" d="M181 646v-96h188v96q0 34 6 64q-7 6 -22 14t-47 20t-53 11q-24 1 -39 -7t-22 -26t-9 -32q-2 -16 -2 -44zM452 646v-96h162v-70h-162v-480h-83v480h-188v-480h-83v480h-71v70h71v96q0 179 155 179q64 0 151 -50q40 50 120 50q34 0 78 -16t70 -32l26 -16l-51 -51 q-71 45 -123 45q-24 1 -39 -7t-22 -26t-9 -32q-2 -16 -2 -44z"/>
<glyph glyph-name="fi" horiz-adv-x="580" unicode="fi" d="M186 646v-96h310v-550h-83v480h-227v-480h-83v480h-71v70h71v96q0 82 40 130t122 49q46 -1 101 -23t86 -44l32 -22l-51 -51q-11 7 -30 19t-63 32t-74 19q-46 0 -62 -28t-18 -81z"/>
<glyph glyph-name="fl" horiz-adv-x="617" unicode="fl" d="M423 820h83v-674q0 -53 13 -66q21 -21 64 -21l-3 -71q-88 0 -122 34q-35 35 -35 124v674zM186 646v-96h162v-70h-162v-480h-83v480h-71v70h71v96q0 179 155 179q53 0 123 -35v-80q-71 45 -123 45q-24 1 -39 -7t-22 -26t-9 -32q-2 -16 -2 -44z"/>
<glyph glyph-name="f_f_i" horiz-adv-x="851" unicode="ffi" d="M186 646v-96h188v96q0 36 7 64q-71 45 -123 45q-24 1 -39 -7t-22 -26t-9 -32q-2 -16 -2 -44zM457 646v-96h310v-550h-83v480h-227v-480h-83v480h-188v-480h-83v480h-71v70h71v96q0 179 155 179q66 0 154 -52q42 52 124 52q46 -1 101 -23t87 -44l31 -22l-51 -51 q-11 7 -30 19q-20 12 -64 32t-73 19q-47 0 -63 -28t-17 -81z"/>
<glyph glyph-name="f_f_l" horiz-adv-x="888" unicode="ffl" d="M694 820h83v-674q0 -53 13 -66q21 -21 64 -21l-3 -71q-88 0 -122 34q-35 35 -35 124v674zM186 646v-96h188v96q0 34 6 64q-7 6 -22 14q-14 8 -46 20t-54 11q-24 1 -39 -7t-22 -26t-9 -32q-2 -16 -2 -44zM457 646v-96h162v-70h-162v-480h-83v480h-188v-480h-83v480h-71v70 h71v96q0 179 155 179q64 0 151 -50q40 50 120 50q53 0 123 -35v-80q-71 45 -123 45q-24 1 -39 -7t-22 -26t-9 -32q-2 -16 -2 -44z"/>
<glyph glyph-name="fj" horiz-adv-x="580" unicode="fj" d="M186 646v-96h310v-593q0 -87 -42 -151t-95 -81l-25 79q30 4 54 50t25 103v523h-227v-480h-83v480h-71v70h71v96q0 82 40 130t122 49q46 -1 101 -23t86 -44l32 -22l-51 -51q-11 7 -30 19t-63 32t-74 19q-46 0 -62 -28t-18 -81z"/>
<glyph glyph-name=".notdef" horiz-adv-x="260"/>
<glyph glyph-name=".null" horiz-adv-x="0"/>
<glyph glyph-name="nonmarkingreturn" horiz-adv-x="333"/>
<glyph glyph-name="space" horiz-adv-x="260" unicode=" "/>
<glyph glyph-name="exclam" horiz-adv-x="292" unicode="!" d="M84 56q0 26 18 44t45 17q25 1 43 -17t18 -44q0 -27 -18 -45t-43 -18q-27 0 -45 18t-18 45zM182 184h-73l-13 636h99z"/>
<glyph glyph-name="quotedbl" horiz-adv-x="376" unicode='&quot;' d="M44 714q0 24 16 40t40 15q31 -1 46 -23t15 -59q0 -85 -69 -170l-46 25q49 61 58 116q-28 0 -44 16t-16 40zM215 714q0 24 16 40t40 15q31 -1 46 -23t15 -59q0 -85 -69 -170l-46 25q49 61 58 116q-27 0 -43 16t-17 40z"/>
<glyph glyph-name="numbersign" horiz-adv-x="823" unicode="#" d="M338 488l-43 -177h176l43 177h-176zM94 488l17 72h171l52 210h74l-52 -210h176l52 210h74l-52 -210h178l-17 -72h-179l-43 -177h184l-17 -72h-185l-58 -239h-74l58 239h-176l-58 -239h-74l58 239h-164l17 72h165l43 177h-170z"/>
<glyph glyph-name="dollar" horiz-adv-x="618" unicode="$" d="M169 573q-1 -43 29 -69t84 -46v246q-45 -6 -79 -36t-34 -95zM483 205q-1 54 -35 85t-98 54v-280q59 7 96 43t37 98zM282 -67v53q-75 8 -130 44t-98 104l62 55q66 -106 166 -123v299q-46 15 -77 30t-61 39t-46 58q-15 35 -15 81q-1 47 13 85t34 59t50 37q28 16 52 22t50 9 v57h68v-59q102 -13 170 -93l-60 -51q-51 53 -110 63v-266q48 -16 82 -32t68 -44q34 -26 52 -65t17 -90q0 -99 -62 -156t-157 -65v-51h-68z"/>
<glyph glyph-name="percent" horiz-adv-x="1001" unicode="%" d="M752 338q-48 0 -76 -30t-28 -113q0 -144 105 -144q47 0 75 30t29 112q-1 85 -29 115t-76 30zM563 195q0 59 17 101q18 42 46 64t60 34q32 10 66 10q36 0 68 -10t60 -33q30 -23 46 -66t16 -102t-17 -101t-45 -64t-60 -33q-32 -10 -67 -10q-35 1 -67 11t-60 32 q-29 22 -46 66q-17 43 -17 101zM248 713q-48 -1 -76 -31t-28 -112q0 -144 105 -144q47 0 75 30t29 112q-1 84 -29 114t-76 31zM740 814h96l-580 -861h-96zM59 570q0 58 17 100q18 42 46 66q28 22 60 32t66 11q36 0 68 -10t60 -33q30 -23 46 -66t16 -102q0 -58 -17 -100 t-45 -66q-28 -22 -60 -32t-67 -10t-67 10t-60 34q-29 22 -46 65t-17 101z"/>
<glyph glyph-name="ampersand" horiz-adv-x="884" unicode="&amp;" d="M469 606q0 54 -36 78t-88 24q-53 0 -91 -24t-37 -78q0 -44 95 -144q48 25 78 43q30 17 54 45t25 56zM283 373q-66 -36 -103 -77t-37 -96q-1 -42 33 -72t70 -42t64 -12q107 0 184 77zM59 200q1 73 47 124t130 98q-51 56 -77 99t-26 85q1 45 19 78t50 51q32 19 68 27t75 8 q87 0 147 -39t61 -125q0 -58 -50 -102t-144 -92l184 -197q39 61 86 166l65 -32q-59 -125 -98 -189q36 -34 52 -49t34 -27t31 -11q31 0 57 58l60 -35q-46 -103 -110 -103q-35 -1 -72 23t-98 80q-90 -103 -240 -103q-41 -1 -83 11q-43 12 -81 36t-62 64q-24 42 -25 96z"/>
<glyph glyph-name="quotesingle" horiz-adv-x="205" unicode="&apos;" d="M44 715q0 23 16 39t40 16q31 0 46 -22t15 -60q0 -85 -69 -170l-46 25q49 61 58 116q-28 0 -44 16t-16 40z"/>
<glyph glyph-name="parenleft" horiz-adv-x="336" unicode="(" d="M301 770l6 -70q-47 -16 -81 -70t-52 -125q-16 -71 -24 -133t-7 -118q-1 -54 7 -116t24 -134q16 -71 52 -125q34 -54 81 -70l-6 -70q-55 6 -99 48t-70 100t-42 129q-18 71 -24 130t-7 108q1 48 7 108t24 131q18 73 43 131q26 58 70 100t98 46z"/>
<glyph glyph-name="parenright" horiz-adv-x="336" unicode=")" d="M29 700l6 70q54 -4 98 -46t70 -100q25 -58 43 -131q18 -71 24 -131t7 -108q-1 -49 -7 -108t-24 -130t-42 -129q-26 -58 -70 -100t-99 -48l-6 70q47 16 81 70t52 125q16 72 24 134t7 116q1 56 -7 118t-24 133t-52 125q-34 54 -81 70z"/>
<glyph glyph-name="asterisk" horiz-adv-x="616" unicode="*" d="M48 567l25 65l202 -81l-2 219h70l-2 -219l202 81l25 -65l-207 -81l144 -160l-58 -49l-139 172l-138 -172l-60 49l144 160z"/>
<glyph glyph-name="plus" horiz-adv-x="648" unicode="+" d="M352 0h-67v242h-236v67h236v241h67v-241h247v-67h-247v-242z"/>
<glyph glyph-name="comma" horiz-adv-x="200" unicode="," d="M39 49q0 23 16 39t40 16q31 0 46 -22t15 -60q0 -85 -69 -170l-46 25q49 61 58 116q-27 0 -43 16t-17 40z"/>
<glyph glyph-name="hyphen" horiz-adv-x="344" unicode="-" d="M290 310v-70h-236v70h236z"/>
<glyph glyph-name="period" horiz-adv-x="205" unicode="." d="M44 53q0 25 17 41t43 16q25 0 41 -16t16 -41q0 -26 -16 -43t-41 -17q-26 0 -43 17t-17 43z"/>
<glyph glyph-name="slash" horiz-adv-x="352" unicode="/" d="M250 770h83l-231 -770h-83z"/>
<glyph glyph-name="zero" horiz-adv-x="610" unicode="0" d="M467 279q0 116 -47 168t-115 52t-115 -52t-47 -168t47 -168t115 -52t115 52t47 168zM59 279q-1 81 21 141t58 91q36 32 78 47t89 15t89 -15t78 -47q36 -31 58 -91t21 -141q1 -81 -21 -141t-58 -91q-36 -32 -78 -47t-89 -15t-89 15t-78 47q-36 31 -58 91t-21 141z"/>
<glyph glyph-name="one" horiz-adv-x="363" unicode="1" d="M281 0h-89v470l-89 -75l-54 62l143 108h89v-565z"/>
<glyph glyph-name="two" horiz-adv-x="536" unicode="2" d="M112 401q-54 54 -54 55q72 120 200 121q88 0 139 -47t51 -134q0 -42 -30 -93t-74 -95t-85 -78t-75 -54h298v-76h-433v64q1 0 33 24t78 62t93 81q46 43 78 89t32 76q1 52 -29 78t-77 26q-27 0 -52 -10t-41 -25t-28 -29t-18 -25z"/>
<glyph glyph-name="three" horiz-adv-x="543" unicode="3" d="M102 428l-47 46q3 4 7 11t20 25t34 30q18 14 49 25t65 11q68 0 118 -44t50 -113q0 -73 -88 -143q72 -10 124 -62t51 -126q1 -72 -27 -130t-72 -92t-92 -52t-95 -18q-41 0 -83 15t-62 31l-20 15l53 50q38 -31 112 -31q33 0 67 13t66 37t51 68q20 42 20 94q-1 47 -37 84 t-84 37q-32 -1 -67 -7t-55 -12l-19 -6v68q175 66 175 167q0 35 -25 57t-60 21q-41 1 -73 -17t-44 -35z"/>
<glyph glyph-name="four" horiz-adv-x="621" unicode="4" d="M163 76h235v336l-240 -325l-14 -14v-1zM592 76v-76h-105v-204h-89v204h-364v47l392 519h61v-490h105z"/>
<glyph glyph-name="five" horiz-adv-x="596" unicode="5" d="M178 490v-200q58 26 111 26q116 0 180 -62t64 -163q0 -151 -69 -223t-186 -72q-37 0 -72 9q-34 9 -58 21t-42 26q-18 12 -28 21l-9 9l48 59q9 -8 23 -20q14 -11 56 -31t82 -20q78 0 126 54t48 165q0 59 -43 107t-120 47q-80 0 -133 -36h-66v358h386v-75h-298z"/>
<glyph glyph-name="six" horiz-adv-x="608" unicode="6" d="M316 58q40 0 71 18t47 48q16 28 24 57t8 56q0 79 -35 115t-91 35q-111 0 -187 -162q16 -79 58 -123t105 -44zM340 461q93 1 151 -53t58 -171q0 -30 -7 -62q-6 -33 -24 -67t-44 -61t-66 -45q-41 -18 -92 -17q-121 -1 -187 93t-66 266q0 112 36 208q35 96 101 155 q66 58 146 58q91 0 172 -65l-53 -55q-48 41 -115 41q-54 0 -96 -36t-65 -92t-35 -114t-12 -113q84 130 198 130z"/>
<glyph glyph-name="seven" horiz-adv-x="506" unicode="7" d="M45 483v83h432v-59q-92 -193 -227 -433t-189 -264l-57 53q42 26 164 235t207 385h-330z"/>
<glyph glyph-name="eight" horiz-adv-x="582" unicode="8" d="M287 431q19 9 37 23t40 36t37 50q14 30 14 61q0 53 -36 76t-89 23q-52 0 -88 -23t-37 -76q-1 -43 31 -83t91 -87zM435 164q-1 41 -43 85t-120 101q-48 -30 -88 -82t-39 -104q-1 -60 43 -84t102 -25q58 1 102 25t43 84zM499 601q1 -68 -47 -123t-106 -90q80 -58 126 -110 t46 -114q0 -93 -64 -136t-164 -43t-163 43t-63 136q0 70 46 129t107 96q-134 107 -134 212q0 85 61 125t146 39q38 -1 74 -9t67 -26t49 -52t19 -77z"/>
<glyph glyph-name="nine" horiz-adv-x="608" unicode="9" d="M292 492q-40 0 -71 -18t-47 -48q-16 -28 -24 -57t-8 -56q0 -79 35 -115t91 -35q111 0 187 162q-16 79 -58 123t-105 44zM268 89q-93 -1 -151 53t-58 171q0 30 7 62q6 33 24 67t44 61t66 45q41 18 92 17q121 1 187 -93t66 -266q0 -112 -36 -208q-35 -96 -101 -155 q-66 -58 -146 -58q-83 0 -172 65l53 55q48 -41 115 -41q54 0 96 36t65 92t35 114t12 113q-84 -130 -198 -130z"/>
<glyph glyph-name="colon" horiz-adv-x="255" unicode=":" d="M69 413q0 25 17 41t43 16q25 0 41 -16t16 -41q0 -26 -16 -43t-41 -17q-26 0 -43 17t-17 43zM69 53q0 25 17 41t43 16q25 0 41 -16t16 -41q0 -26 -16 -43t-41 -17q-26 0 -43 17t-17 43z"/>
<glyph glyph-name="semicolon" horiz-adv-x="260" unicode=";" d="M69 413q0 25 17 41t43 16q25 0 41 -16t16 -41q0 -26 -16 -43t-41 -17q-26 0 -43 17t-17 43zM74 49q0 23 16 39t40 16q31 0 46 -22t15 -60q0 -85 -69 -170l-46 25q49 61 58 116q-28 0 -44 16t-16 40z"/>
<glyph glyph-name="less" horiz-adv-x="698" unicode="&lt;" d="M74 244v72l555 251v-72l-476 -215l476 -215v-72z"/>
<glyph glyph-name="equal" horiz-adv-x="659" unicode="=" d="M605 235v-67h-551v67h551zM605 395v-67h-551v67h551z"/>
<glyph glyph-name="greater" horiz-adv-x="698" unicode="&gt;" d="M624 316v-72l-555 -251v72l475 215l-475 215v72z"/>
<glyph glyph-name="question" horiz-adv-x="502" unicode="?" d="M194 49q0 23 16 39t40 16t40 -16t15 -39q1 -24 -15 -40t-40 -16t-40 16t-16 40zM383 640q0 110 -124 110q-29 0 -57 -12t-46 -30q-19 -18 -34 -36t-22 -30l-7 -12l-53 50q4 6 10 16t27 33q21 25 45 43t60 33q38 15 77 15q51 0 90 -12t61 -32q22 -18 36 -44t17 -48 q4 -22 4 -44q0 -38 -12 -72t-40 -68q-27 -34 -45 -51t-56 -52q-80 -73 -80 -104q0 -22 12 -38t41 -42l-58 -48q-27 23 -39 37t-22 39q-10 24 -11 53q-1 44 25 80t79 83q38 35 59 57t42 58t21 68z"/>
<glyph glyph-name="at" horiz-adv-x="1060" unicode="@" d="M365 206q0 -121 56 -121q38 -1 78 19q39 20 71 49t50 49t29 37l37 168q-26 67 -56 87t-69 20q-66 0 -131 -90t-65 -218zM420 19q-135 0 -135 187q-1 78 27 150t70 120t89 75q48 28 90 28q93 0 145 -80l14 59l78 -18l-102 -458q10 0 32 4t58 22q36 17 66 44q30 26 52 78 t22 118q0 62 -25 122t-71 110t-118 80t-159 30q-107 0 -205 -61t-156 -161t-58 -207q0 -161 124 -269t295 -109q89 -1 157 23t167 106l50 -62q-113 -93 -191 -120t-183 -27q-132 1 -246 59q-113 58 -183 164t-70 235q0 130 69 248q69 117 185 189t245 72q105 0 193 -37 t144 -97t86 -136q30 -74 30 -152q0 -77 -26 -138q-26 -62 -66 -96q-38 -34 -85 -57t-83 -31t-63 -7q-65 0 -65 59q0 14 3 30q-101 -89 -201 -89z"/>
<glyph glyph-name="A" horiz-adv-x="708" unicode="A" d="M354 672q-1 -28 -7 -48l-106 -286h225l-106 286q-6 23 -6 48zM308 770h92l284 -770h-93l-97 262h-281l-96 -262h-93z"/>
<glyph glyph-name="B" horiz-adv-x="635" unicode="B" d="M457 560q-1 84 -41 112t-119 28q-51 0 -125 -10v-263h75q37 1 65 3t57 10t47 22t30 38t11 60zM172 351v-275h140q42 0 74 7t50 21t30 26q12 14 17 34t6 32t1 31q0 11 -3 25t-13 32t-27 33q-17 14 -49 24t-73 10h-153zM298 775q244 0 244 -217q0 -108 -78 -158 q62 -26 87 -76t25 -97v-32t-6 -39q-4 -26 -14 -44t-30 -41t-46 -37t-70 -24t-98 -10h-228v757q113 18 214 18z"/>
<glyph glyph-name="C" horiz-adv-x="642" unicode="C" d="M593 680l-58 -56q-2 3 -6 8.5t-18.5 18.5t-32 23t-46.5 18.5t-62 8.5q-90 0 -155.5 -89t-65.5 -249q0 -125 65 -212t156 -87q130 0 197 89l55 -55q-88 -113 -257 -113q-132 0 -219 108t-87 270q0 198 92 310t220 112q45 0 84.5 -11t64 -26.5t42 -30.5t24.5 -26z"/>
<glyph glyph-name="D" horiz-adv-x="712" unicode="D" d="M565 380q0 75 -13 130.5t-42.5 99.5t-84 67t-132.5 23q-66 0 -121 -11v-613h167q99 0 162.5 82t63.5 222zM84 0v757q134 18 207 18q61 0 109.5 -8.5t97.5 -34t81.5 -67.5t53 -114.5t20.5 -170.5q0 -178 -86.5 -279t-227.5 -101h-255z"/>
<glyph glyph-name="E" horiz-adv-x="560" unicode="E" d="M521 0h-437v770h318l105 5v-80h-335v-258h285v-76h-285v-285h244l105 5v-81z"/>
<glyph glyph-name="F" horiz-adv-x="538" unicode="F" d="M172 0h-88v770h318l105 5v-79h-335v-259h285v-76h-285v-361z"/>
<glyph glyph-name="G" horiz-adv-x="748" unicode="G" d="M663 378v-231q0 -66 -75 -114t-166 -48q-85 0 -151 25t-105 63.5t-64 91.5t-34 102t-9 101q0 90 23 163t59.5 119t84.5 77.5t95.5 44.5t95.5 13q44 0 84.5 -12t67.5 -29.5t48 -35t31 -29.5l9 -12l-59 -58q-3 4 -8 11t-22 24t-36 30t-49 24t-62 11q-34 0 -70 -11.5 t-72 -38t-64.5 -64.5t-46.5 -97t-18 -130q0 -40 6.5 -78.5t25 -80.5t47 -73t77.5 -51t112 -20q48 0 104.5 29t56.5 62v144h-90q-63 0 -91 13v75q25 -10 94 -10h171z"/>
<glyph glyph-name="H" horiz-adv-x="740" unicode="H" d="M172 0h-88v770h88v-334h396v334h88v-770h-88v360h-396v-360z"/>
<glyph glyph-name="I" horiz-adv-x="256" unicode="I" d="M172 0h-88v770h88v-770z"/>
<glyph glyph-name="J" horiz-adv-x="284" unicode="J" d="M113 770h88v-787q0 -46 -12.5 -84.5t-31 -64t-44 -45.5t-47 -30t-45.5 -18l-32 79q53 15 88.5 55t35.5 108v787z"/>
<glyph glyph-name="K" horiz-adv-x="612" unicode="K" d="M84 770h88v-341l266 341h109l-282 -360q21 -2 50 -18t50 -38q21 -23 112 -171t121 -183h-1h-103q-19 20 -96 149t-90 145q-39 48 -98 48q-21 0 -38 -4v-338h-88v770z"/>
<glyph glyph-name="L" horiz-adv-x="555" unicode="L" d="M84 0v770h88v-694h244l105 5v-81h-437z"/>
<glyph glyph-name="M" horiz-adv-x="849" unicode="M" d="M172 0h-88v770h88l251 -660l1 -7l1 7l252 660h88v-770h-88v540l1 17l-4 -17l-207 -540h-85l-207 540l-4 16l1 -16v-540z"/>
<glyph glyph-name="N" horiz-adv-x="722" unicode="N" d="M172 0h-88v770h88v-1l372 -605l7 -14l-1 14v606h88v-770h-88v1l-372 607l-7 14l1 -14v-608z"/>
<glyph glyph-name="O" horiz-adv-x="755" unicode="O" d="M380 710q-42 0 -81 -17t-74 -52.5t-56.5 -101t-21.5 -153.5q0 -89 21 -155t56.5 -101.5t73.5 -52t79 -16.5q44 0 83 16.5t73 51.5t54.5 100.5t20.5 154.5q0 87 -20 153t-54 102t-72.5 53.5t-81.5 17.5zM380 785q47 0 89.5 -11.5t84.5 -40.5t73 -73t50 -114.5t19 -159.5 q0 -113 -27 -194.5t-74 -125t-100.5 -62.5t-117.5 -19q-47 0 -90 11t-85.5 39.5t-73.5 72t-50 114.5t-19 162q0 90 19 161.5t50.5 115.5t74 72.5t86 40t91.5 11.5z"/>
<glyph glyph-name="P" horiz-adv-x="617" unicode="P" d="M483 532q1 80 -47 128t-129 48q-66 0 -135 -51v-272q73 -65 161 -65q69 0 109 54t41 158zM172 0h-88v770h88v-30q77 45 164 45q104 -1 168 -71t64 -182q0 -142 -62 -217t-177 -75q-81 0 -157 52v-292z"/>
<glyph glyph-name="Q" horiz-adv-x="755" unicode="Q" d="M380 710q-42 0 -81 -17t-74 -53t-57 -100q-22 -66 -21 -154q0 -89 21 -155q20 -65 56 -101t74 -52t79 -17q44 1 83 17t73 51q35 35 55 101t20 154q0 87 -20 153t-54 102q-34 35 -72 53t-82 18zM380 785q48 1 90 -11t84 -41t73 -73t50 -114t19 -160q0 -102 -22 -178 t-61 -122q-39 -44 -85 -68t-102 -30q42 -49 108 -49q46 0 94 16l22 -72q-38 -17 -116 -17q-86 0 -138 40t-70 83q-42 6 -79 21t-72 46t-61 74t-40 108q-15 65 -15 146q0 90 19 162q18 72 50 115q32 45 74 73t86 40t92 11z"/>
<glyph glyph-name="R" horiz-adv-x="653" unicode="R" d="M320 397q60 1 103.5 38.5t44.5 129.5q0 64 -38 102.5t-103 38.5q-82 0 -155 -49v-260h148zM172 0h-88v770h88v-31q71 44 169 46q96 0 154.5 -59.5t58.5 -160.5q0 -108 -49.5 -164t-124.5 -72q36 -29 82 -95.5t93.5 -133.5t87.5 -98v-2h-107q-28 22 -66 74.5t-69 101 t-71.5 92t-76.5 54.5h-81v-322z"/>
<glyph glyph-name="S" horiz-adv-x="618" unicode="S" d="M54 136l62 55q40 -64 89.5 -95t117.5 -31q69 0 114.5 37t45.5 106q0 27 -10.5 49t-24 36t-40.5 27t-46.5 19.5t-54.5 17.5q-53 16 -86 30t-68.5 38.5t-52.5 60.5t-17 86q0 52 16.5 92t40.5 62t56.5 36t58 18.5t50.5 4.5q134 0 215 -96l-60 -51q-32 34 -67.5 50.5 t-87.5 16.5q-21 0 -41 -5t-43 -18t-37.5 -41.5t-14.5 -68.5q0 -51 41.5 -79t120.5 -52q42 -13 70.5 -24t63 -30.5t55 -42t35 -58t14.5 -78.5q0 -107 -72 -165t-176 -58q-90 0 -154.5 37t-112.5 114z"/>
<glyph glyph-name="T" horiz-adv-x="556" unicode="T" d="M7 694v76h542v-76h-229v-694h-88v694h-225z"/>
<glyph glyph-name="U" horiz-adv-x="683" unicode="U" d="M599 239q0 -64 -19.5 -112t-46.5 -74t-65 -41.5t-66.5 -19.5t-59.5 -4t-60 4.5t-66.5 20t-65 41.5t-47 73.5t-19.5 111.5v531h88v-529q0 -44 12.5 -77.5t30.5 -51.5t43 -29.5t44.5 -14.5t39.5 -3t39.5 3.5t43.5 15t42.5 29.5t31 51t12.5 75v531h88v-531z"/>
<glyph glyph-name="V" horiz-adv-x="684" unicode="V" d="M388 0h-92l-274 770h93l224 -633l3 -13l3 13l224 633h93z"/>
<glyph glyph-name="W" horiz-adv-x="976" unicode="W" d="M316 0h-73l-218 770h90l162 -610l2 -12l2 12l160 610h93l160 -612l2 -12l2 12l162 612h91l-218 -770h-73l-170 594l-3 18l-3 -18z"/>
<glyph glyph-name="X" horiz-adv-x="655" unicode="X" d="M519 770h107l-245 -386l245 -384h-107l-192 299l-190 -299h-108l244 384l-244 386h105l193 -301z"/>
<glyph glyph-name="Y" horiz-adv-x="615" unicode="Y" d="M507 770h99l-254 -401v-369h-87v369l-256 401h103l197 -309z"/>
<glyph glyph-name="Z" horiz-adv-x="611" unicode="Z" d="M562 98v-83q-12 -7 -41.5 -10.5t-52.5 -4.5h-24h-395v82l385 606h-375v82h482v-80l-385 -608h290q72 0 116 16z"/>
<glyph glyph-name="bracketleft" horiz-adv-x="357" unicode="[" d="M288 770v-60h-120v-910h120v-60h-204v1030h204z"/>
<glyph glyph-name="backslash" horiz-adv-x="362" unicode="\" d="M24 770h83l231 -770h-83z"/>
<glyph glyph-name="bracketright" horiz-adv-x="357" unicode="]" d="M69 -260v60h120v910h-120v60h204v-1030h-204z"/>
<glyph glyph-name="asciicircum" horiz-adv-x="652" unicode="^" d="M290 550h72l251 -550h-72l-215 471l-215 -471h-72z"/>
<glyph glyph-name="underscore" horiz-adv-x="659" unicode="_" d="M605 0v-64h-551v64h551z"/>
<glyph glyph-name="grave" horiz-adv-x="343" unicode="`" d="M54 756h104l131 -146h-69z"/>
<glyph glyph-name="a" horiz-adv-x="562" unicode="a" d="M209 58q47 0 96.5 24.5t85.5 68.5v118q-43 -9 -130 -21q-73 -11 -99 -39.5t-26 -70.5q0 -31 15.5 -50.5t30 -24.5t27.5 -5zM110 407l-33 68q149 87 264 87q40 0 68.5 -16.5t41.5 -43.5t18 -50.5t5 -47.5v-296q0 -46 54 -70l-54 -50q-61 24 -77 86q-81 -86 -188 -86 q-10 0 -24.5 2t-39 11t-43.5 24t-33.5 44.5t-14.5 68.5q0 66 42 114.5t156 65.5q104 14 139 23v63q0 16 -3 31t-18 32t-41 17q-38 0 -92.5 -19t-90.5 -39z"/>
<glyph glyph-name="b" horiz-adv-x="624" unicode="b" d="M353 480q-119 0 -186 -104v-230q36 -36 84 -58t88 -21q67 0 107 58t40 159q0 80 -35 138t-98 58zM353 562q105 0 161 -80t56 -198q0 -140 -62 -218t-169 -78q-90 0 -172 66v-54h-83v820h83v-341q76 83 186 83z"/>
<glyph glyph-name="c" horiz-adv-x="508" unicode="c" d="M290 562q32 0 61 -9t47.5 -22t33 -26t20.5 -22l7 -9l-53 -50q-1 3 -4 7t-13.5 15t-23 19t-33 15t-44.5 7q-58 0 -104 -58.5t-46 -163.5q0 -85 40.5 -144t104.5 -59q34 0 63.5 12t70.5 51l52 -50q-53 -55 -95.5 -71t-90.5 -16q-102 0 -165.5 79t-63.5 198q0 74 21.5 133 t56.5 93.5t75.5 52.5t82.5 18z"/>
<glyph glyph-name="d" horiz-adv-x="639" unicode="d" d="M254 73q121 0 204 133v183q-93 91 -171 91q-67 0 -107 -57t-40 -157q0 -79 32 -136t82 -57zM254 -8q-88 0 -144 80t-56 194q0 140 62 218t171 78q83 0 171 -76v334h84v-688v-8q0 -4 4 -18q2 -14 8 -26t18 -23q12 -12 28 -17l-53 -54q-74 27 -84 107q-89 -101 -209 -101z "/>
<glyph glyph-name="e" horiz-adv-x="577" unicode="e" d="M290 490q-53 0 -88.5 -37.5t-53.5 -99.5h279q-9 54 -41.5 95.5t-95.5 41.5zM54 269q0 123 65.5 208t170.5 85q58 0 101.5 -22t65.5 -52t35.5 -68t16.5 -61t3 -41v-39h-375v-16q0 -93 41 -148t116 -55q49 0 89.5 21.5t80.5 75.5l51 -49q-57 -68 -105.5 -94t-115.5 -26 q-115 0 -177.5 80.5t-62.5 200.5z"/>
<glyph glyph-name="f" horiz-adv-x="393" unicode="f" d="M186 646v-96h162v-70h-162v-480h-83v480h-71v70h71v96q0 179 155 179q34 0 78 -16t70 -32l26 -16l-51 -51q-71 45 -123 45q-24 1 -39 -7t-22 -26t-9 -32q-2 -16 -2 -44z"/>
<glyph glyph-name="g" horiz-adv-x="613" unicode="g" d="M299 -202q96 0 147 43.5t51 108.5q0 26 -17.5 44t-50.5 27t-62.5 13t-71.5 6q-9 0 -33.5 0.5t-38.5 0.5q-43 -26 -62.5 -53.5t-19.5 -85.5q0 -42 49.5 -73t108.5 -31zM92 122q0 47 71 104q-85 48 -85 162q0 44 22 79.5t56 55.5t70 30.5t69 10.5q31 0 67 -9q65 59 151 59 q27 0 60 -10l-14 -70q-18 6 -46 6q-43 0 -81 -16q79 -50 79 -136q0 -56 -21.5 -96t-56.5 -59.5t-69 -27.5t-69 -8q-34 0 -60 5q-59 -42 -59 -80q3 -3 25.5 -4.5t58.5 -2.5l36 -1q58 -3 101 -10.5t88.5 -24t70 -49.5t24.5 -80q0 -97 -71.5 -161t-209.5 -64q-95 0 -167.5 53 t-72.5 124q0 42 12 72t27.5 46t44.5 37q-51 22 -51 65zM161 388q0 -127 134 -127q30 0 57.5 9t51.5 39t24 79q0 55 -43 83.5t-90 28.5t-90.5 -28.5t-43.5 -83.5z"/>
<glyph glyph-name="h" d="M168 0h-84v820h84v-376q122 118 240 118q127 0 127 -171v-391h-84v391q0 87 -43 87q-114 0 -240 -131v-347z" unicode="h"/>
<glyph glyph-name="i" horiz-adv-x="271" unicode="i" d="M84 719q0 22 15 36.5t37 14.5t36.5 -14.5t14.5 -36.5t-14.5 -37t-36.5 -15t-37 14.5t-15 37.5zM94 550h83v-550h-83v550z"/>
<glyph glyph-name="j" horiz-adv-x="220" unicode="j" d="M33 719q0 22 15 36.5t37 14.5t36.5 -14.5t14.5 -36.5t-14.5 -37t-36.5 -15t-37 14.5t-15 37.5zM43 550h83v-593q0 -87 -42.5 -150.5t-94.5 -81.5l-25 79q30 4 54.5 49.5t24.5 103.5v593z"/>
<glyph glyph-name="k" horiz-adv-x="553" unicode="k" d="M569 0h-113q-12 4 -48 43t-97 109q-60 70 -71 81q-34 37 -54 37q-12 0 -18 -2v-268h-84v820h84v-464q187 131 219 194h85q-17 -65 -228 -224q32 -13 56 -39q72 -85 165 -186t104 -101z"/>
<glyph glyph-name="l" horiz-adv-x="278" unicode="l" d="M84 820h83v-674q0 -53 13 -66q21 -21 64 -21l-3 -71q-88 0 -122 34q-35 35 -35 124v674z"/>
<glyph glyph-name="m" horiz-adv-x="907" unicode="m" d="M168 0h-84v550h84v-99q101 111 208 111q56 0 86 -28t38 -86q102 114 211 114q127 0 127 -171v-391h-84v391q0 87 -43 87q-46 0 -91 -25q-44 -25 -66 -47t-51 -57v-349h-84v391q0 87 -43 87q-100 0 -208 -129v-349z"/>
<glyph glyph-name="n" d="M168 0h-84v550h84v-106q122 118 240 118q127 0 127 -171v-391h-84v391q0 87 -43 87q-111 0 -240 -131v-347z" unicode="n"/>
<glyph glyph-name="o" horiz-adv-x="586" unicode="o" d="M448 275q0 108 -45.5 163t-109.5 55t-109.5 -53.5t-45.5 -164.5q0 -110 45.5 -164.5t109.5 -54.5q65 0 110 53.5t45 165.5zM54 275q0 76 20 133t54.5 89.5t76 48.5t88.5 16t88.5 -16t76 -48.5t54.5 -90t20 -132.5q0 -76 -20 -133.5t-55 -90t-76 -48t-88 -15.5 q-48 0 -88.5 15t-75.5 46.5t-55 89.5t-20 136z"/>
<glyph glyph-name="p" horiz-adv-x="622" unicode="p" d="M370 480q-121 0 -204 -130v-194q37 -38 85 -62t86 -24q67 0 107 57t40 157q0 80 -32 138t-82 58zM166 -260h-82v810h82v-92q81 104 204 104q88 0 143 -82t55 -196q0 -140 -62 -218t-169 -78q-76 0 -171 76v-324z"/>
<glyph glyph-name="q" horiz-adv-x="624" unicode="q" d="M252 67q114 0 204 143v184q-40 38 -87 64t-84 26q-67 0 -107 -58t-40 -160q0 -80 32 -140t82 -59zM252 -12q-88 0 -143 82t-55 196q0 140 62 218t169 78q89 0 171 -66v54h84v-810h-84v365q-94 -117 -204 -117z"/>
<glyph glyph-name="r" horiz-adv-x="436" unicode="r" d="M84 550h84v-75q51 87 139 87q38 0 71.5 -14t47.5 -28l14 -13l-58 -56q-24 31 -71 31q-77 0 -143 -138v-344h-84v550z"/>
<glyph glyph-name="s" horiz-adv-x="502" unicode="s" d="M156 405q0 -17 8.5 -30t27.5 -22.5t35 -15.5t43 -14q35 -10 54 -16.5t48 -21t43.5 -30.5t26 -43t11.5 -61q0 -78 -57.5 -120.5t-136.5 -42.5q-64 0 -122.5 29t-92.5 83l58 47q22 -40 66 -64t93 -25q45 0 77 24t32 69q0 27 -21 47t-42.5 28.5t-60.5 20.5q-40 12 -64 21.5 t-52.5 27.5t-42.5 45t-14 64q0 47 19 80.5t49.5 49t56.5 21.5t50 6q109 0 173 -64l-54 -52q-43 46 -119 46q-19 0 -37.5 -5.5t-36.5 -26.5t-18 -55z"/>
<glyph glyph-name="t" horiz-adv-x="398" unicode="t" d="M44 482v70h70v198h84v-198h132v-70h-132v-322q0 -20 1 -32t5 -30t16 -28q12 -9 30 -9q42 0 83 39l51 -49q-60 -63 -156 -63q-114 0 -114 172v322h-70z"/>
<glyph glyph-name="u" d="M196 69q112 0 240 133v348h84v-550h-84v97q-50 -48 -113.5 -78.5t-126.5 -30.5q-127 0 -127 171v391h84v-391q0 -90 43 -90z" unicode="u"/>
<glyph glyph-name="v" horiz-adv-x="522" unicode="v" d="M15 550h97l143 -425l3 -19l2 9q1 9 1 10q34 129 85 267t73 158h91q-35 -36 -88 -174t-88 -257l-36 -119h-73z"/>
<glyph glyph-name="w" horiz-adv-x="777" unicode="w" d="M263 0h-79l-159 550h91l109 -410l3 -21l3 21l117 410h72l117 -410l4 -21l3 21q106 399 126 410h82q-12 -12 -55.5 -149.5t-80.5 -268.5l-38 -132h-71l-123 424z"/>
<glyph glyph-name="x" horiz-adv-x="582" unicode="x" d="M54 550h106l136 -199q130 193 148 199h104q-24 -11 -205 -268l200 -282h-106l-142 212q-42 -63 -95 -136t-62 -76h-104q14 6 92 110t122 171z"/>
<glyph glyph-name="y" horiz-adv-x="513" unicode="y" d="M16 550h89l149 -386q150 368 172 386h95q-22 -21 -63.5 -113.5t-197.5 -475.5q-17 -41 -27 -64t-30.5 -55.5t-44.5 -55.5q-58 -56 -142 -61l-21 73q67 4 106 43q19 19 36 48t44 94l27 67z"/>
<glyph glyph-name="z" horiz-adv-x="516" unicode="z" d="M477 88v-71q-6 -7 -24 -11t-33 -5l-15 -1h-356v71l310 409h-310v70h411v-70l-310 -409h256q55 0 71 17z"/>
<glyph glyph-name="braceleft" horiz-adv-x="468" unicode="{" d="M283 830q29 0 58 -8t43 -16l15 -9l-28 -70q-28 19 -88 19q-24 0 -24 -68v-299q-1 -3 -1 -8t-4 -17t-10 -24t-19 -24q-13 -14 -30 -24q18 -10 31 -24t19 -24q5 -12 9 -24t4 -17t1 -8v-299q0 -68 24 -68q27 0 49 5t30 9l9 5l28 -70q-50 -33 -116 -33q-32 0 -55 16 q-24 16 -34 42t-14 48q-4 23 -5 46v298q-1 3 -1 8q0 6 -6 18t-14 22t-28 17q-20 8 -47 8v50q27 -1 47 7t28 19t14 21t6 18l1 8v298q1 23 5 46q4 22 14 48t34 42q23 16 55 16z"/>
<glyph glyph-name="bar" horiz-adv-x="244" unicode="|" d="M160 -260h-76v1090h76v-1090z"/>
<glyph glyph-name="braceright" horiz-adv-x="468" unicode="}" d="M185 746q-27 0 -49 -5t-30 -9l-9 -5l-28 70q50 33 116 33q32 0 55 -16q24 -16 34 -42t14 -48q4 -23 5 -46v-298q0 -3 1 -8q0 -6 6 -18t15 -22t29 -17q20 -8 45 -8v-50q-25 0 -45 -7q-20 -6 -29 -16t-15 -22t-6 -18q-1 -6 -1 -9v-299q-1 -23 -5 -46q-4 -22 -14 -48 t-34 -42q-23 -16 -55 -16q-29 0 -58 8t-43 16l-15 9l28 70q28 -19 88 -19q24 0 24 68v298q0 6 2 18q1 12 17 38t44 42q-28 16 -44 40t-17 37q-2 12 -2 20v299q0 68 -24 68z"/>
<glyph glyph-name="asciitilde" horiz-adv-x="650" unicode="~" d="M90 296l-36 53q16 17 64 35t94 18q37 0 111 -19q66 -17 113 -17q32 0 74 13t54 24l32 -56q-16 -13 -62 -31t-96 -18q-44 0 -124 19q-64 15 -97 15q-39 0 -77 -12t-50 -24z"/>
<glyph glyph-name="exclamdown" horiz-adv-x="292" unicode="¡" d="M208 502q0 -26 -18 -44t-45 -17q-25 -1 -43 17t-18 44q0 27 18 45t43 18q27 0 45 -18t18 -45zM110 374h73l13 -636h-99z"/>
<glyph glyph-name="cent" horiz-adv-x="508" unicode="¢" d="M138 265q0 -103 55 -163l101 385h-6q-58 -1 -104 -59t-46 -163zM338 655h58l-29 -108q27 -11 50 -29t33 -32l9 -12l-53 -50q-18 32 -58 50l-106 -405q18 -7 41 -7q33 0 63 12t71 51l52 -50q-53 -55 -95 -71t-91 -16q-30 0 -60 8l-22 -86h-58l28 109q-55 34 -86 99 t-31 147q0 74 22 133q22 60 56 94q36 34 76 52t82 18q9 0 23 -2z"/>
<glyph glyph-name="sterling" horiz-adv-x="589" unicode="£" d="M166 53q-20 1 -40 -15t-28 -32l-10 -15l-62 34q2 3 5 9t13 19q10 15 23 27t31 24t37 18l27 144h-72v70h86q53 273 76 362q12 47 44 78t58 40q27 9 50 9q30 0 56 -13t42 -28t49 -48l-54 -44q-21 24 -33 34t-28 20q-16 9 -32 9q-18 1 -40 -17t-32 -58q-22 -82 -72 -344h146 v-70h-160l-28 -146q32 -8 77 -29q62 -29 97 -29q20 0 45 15t41 30l15 15l50 -50q-9 -9 -24 -23q-15 -13 -55 -37t-72 -24q-51 0 -127 35q-66 30 -99 30z"/>
<glyph glyph-name="yen" horiz-adv-x="615" unicode="¥" d="M533 235v-67h-181v-168h-87v168h-183v67h183v93h-183v67h166l-239 375h103l197 -309l198 309h99l-238 -375h165v-67h-181v-93h181z"/>
<glyph glyph-name="dieresis" horiz-adv-x="432" unicode="¨" d="M265 662q0 22 15 36.5t37 14.5t36.5 -14.5t14.5 -36.5q0 -23 -14.5 -37.5t-36.5 -14.5t-37 15t-15 37zM64 662q0 22 15 36.5t37 14.5t36.5 -14.5t14.5 -36.5t-14.5 -37t-36.5 -15t-37 15t-15 37z"/>
<glyph glyph-name="copyright" horiz-adv-x="879" unicode="©" d="M112 385q0 -135 96 -231t232 -96q134 0 230 96t97 231q-1 135 -97 231t-230 96q-136 0 -232 -96t-96 -231zM443 596q23 0 45 -7t36 -17t25 -20t16 -18l5 -7l-45 -43q-3 5 -9 13t-28 21t-47 13q-37 -1 -69 -41t-32 -113q0 -57 28 -99t70 -41q48 0 97 47l42 -42 q-41 -44 -73 -56t-66 -12q-75 0 -122 58t-47 145q0 105 54 162t120 57zM54 385q0 160 113 273t273 113t272 -113t113 -273q-1 -161 -113 -273t-272 -112t-273 112t-113 273z"/>
<glyph glyph-name="registered" horiz-adv-x="879" unicode="®" d="M112 385q0 -135 96 -231t232 -96q134 0 230 96t97 231q-1 135 -97 231t-230 96q-136 0 -232 -96t-96 -231zM54 385q0 160 113 273t273 113t272 -113t113 -273q-1 -161 -113 -273t-272 -112t-273 112t-113 273zM435 395q31 1 55 19t24 65q0 67 -79 67q-43 0 -81 -23v-128 h81zM354 178h-62v416h62v-14q36 20 96 20q48 0 86 -30t39 -91q0 -102 -92 -128q32 -30 64 -75q46 -63 93 -98h-85q-26 19 -64 74q-56 76 -97 93h-40v-167z"/>
<glyph glyph-name="acute" horiz-adv-x="343" unicode="´" d="M185 756h104l-166 -146h-69z"/>
<glyph glyph-name="paragraph" horiz-adv-x="732" unicode="¶" d="M452 -250h-57v528q-8 -6 -22 -14t-52 -23q-38 -14 -71 -14q-84 0 -142 76t-59 195q0 114 76 193t195 79h333v-57h-75v-963h-57v963h-69v-963z"/>
<glyph glyph-name="periodcentered" horiz-adv-x="245" unicode="·" d="M64 275q0 25 17 41t43 16q25 0 41 -16t16 -41q0 -26 -16 -43t-41 -17q-26 0 -43 17t-17 43z"/>
<glyph glyph-name="cedilla" horiz-adv-x="325" unicode="¸" d="M197 -123q0 40 -62 42h-19l47 81h53l-25 -52q70 -10 70 -71q0 -34 -26.5 -57.5t-79.5 -23.5q-51 0 -91 40l28 36q30 -30 63 -30q21 0 31.5 10.5t10.5 24.5z"/>
<glyph glyph-name="questiondown" horiz-adv-x="502" unicode="¿" d="M310 504q0 -24 -16 -40t-40 -15q-24 -1 -40 15t-15 40q-1 24 15 40t40 16t40 -16t16 -40zM121 -87q0 -110 124 -110q29 1 57 13t46 30q19 18 34 34q15 18 22 30l7 13l53 -50q-4 -5 -10 -15t-27 -34t-45 -42t-60 -34q-38 -15 -77 -15q-51 1 -90 13t-61 31t-36 45t-17 46 q-4 22 -4 45q0 38 12 72t40 68q27 34 45 51t56 52q80 73 80 104q0 22 -12 38t-41 42l58 48q27 -24 39 -38t22 -38t11 -53q1 -44 -25 -80t-79 -83q-38 -34 -59 -56t-42 -58t-21 -69z"/>
<glyph glyph-name="Agrave" horiz-adv-x="708" unicode="À" d="M146 966h104l131 -146h-69zM354 672q-1 -28 -7 -48l-106 -286h225l-106 286q-6 23 -6 48zM308 770h92l284 -770h-93l-97 262h-281l-96 -262h-93z"/>
<glyph glyph-name="Aacute" horiz-adv-x="708" unicode="Á" d="M457 966h104l-166 -146h-69zM354 672q-1 -28 -7 -48l-106 -286h225l-106 286q-6 23 -6 48zM308 770h92l284 -770h-93l-97 262h-281l-96 -262h-93z"/>
<glyph glyph-name="Acircumflex" horiz-adv-x="708" unicode="Â" d="M321 966h66l156 -146h-91l-98 95l-98 -95h-91zM354 672q-1 -28 -7 -48l-106 -286h225l-106 286q-6 23 -6 48zM308 770h92l284 -770h-93l-97 262h-281l-96 -262h-93z"/>
<glyph glyph-name="Atilde" horiz-adv-x="708" unicode="Ã" d="M354 672q-1 -28 -7 -48l-106 -286h225l-106 286q-6 23 -6 48zM308 770h92l284 -770h-93l-97 262h-281l-96 -262h-93zM532 928l25 -50q-5 -6 -14 -15t-39 -23.5t-61 -14.5q-33 0 -96 24q-61 23 -86 23t-47 -9.5t-32 -18.5l-9 -10l-25 50q5 6 14 15t39 23.5t61 14.5 q37 0 96 -24q56 -23 86 -23q26 0 48 9.5t31 18.5z"/>
<glyph glyph-name="Adieresis" horiz-adv-x="708" unicode="Ä" d="M403 877q0 22 15 36.5t37 14.5t36.5 -14.5t14.5 -36.5q0 -23 -14.5 -37.5t-36.5 -14.5t-37 15t-15 37zM202 877q0 22 15 36.5t37 14.5t36.5 -14.5t14.5 -36.5t-14.5 -37t-36.5 -15t-37 15t-15 37zM354 672q-1 -28 -7 -48l-106 -286h225l-106 286q-6 23 -6 48zM308 770h92 l284 -770h-93l-97 262h-281l-96 -262h-93z"/>
<glyph glyph-name="Aring" horiz-adv-x="708" unicode="Å" d="M307 913q0 -19 14 -33.5t34 -14.5q17 0 31 14.5t14 33.5q0 17 -14 31t-31 14q-19 0 -33.5 -14t-14.5 -31zM355 817q-40 0 -68 28t-28 68q0 38 28 65t68 27q38 0 65 -27t27 -65q0 -40 -27 -68t-65 -28zM354 672q-1 -28 -7 -48l-106 -286h225l-106 286q-6 23 -6 48z M308 770h92l284 -770h-93l-97 262h-281l-96 -262h-93z"/>
<glyph glyph-name="AE" horiz-adv-x="978" unicode="Æ" d="M502 683l-193 -345h193v345zM939 0h-437v262h-235l-146 -262h-97l425 770h371l105 5v-80h-335v-258h285v-76h-285v-285h244l105 5v-81z"/>
<glyph glyph-name="Ccedilla" horiz-adv-x="642" unicode="Ç" d="M367 -123q0 40 -62 42h-19l47 81h53l-25 -52q70 -10 70 -71q0 -34 -26.5 -57.5t-79.5 -23.5q-51 0 -91 40l28 36q30 -30 63 -30q21 0 31.5 10.5t10.5 24.5zM593 680l-58 -56q-2 3 -6 8.5t-18.5 18.5t-32 23t-46.5 18.5t-62 8.5q-90 0 -155.5 -89t-65.5 -249 q0 -125 65 -212t156 -87q130 0 197 89l55 -55q-88 -113 -257 -113q-132 0 -219 108t-87 270q0 198 92 310t220 112q45 0 84.5 -11t64 -26.5t42 -30.5t24.5 -26z"/>
<glyph glyph-name="Egrave" horiz-adv-x="560" unicode="È" d="M85 966h104l131 -146h-69zM521 0h-437v770h318l105 5v-80h-335v-258h285v-76h-285v-285h244l105 5v-81z"/>
<glyph glyph-name="Eacute" horiz-adv-x="560" unicode="É" d="M382 966h104l-166 -146h-69zM521 0h-437v770h318l105 5v-80h-335v-258h285v-76h-285v-285h244l105 5v-81z"/>
<glyph glyph-name="Ecircumflex" horiz-adv-x="560" unicode="Ê" d="M246 966h66l156 -146h-91l-98 95l-98 -95h-91zM521 0h-437v770h318l105 5v-80h-335v-258h285v-76h-285v-285h244l105 5v-81z"/>
<glyph glyph-name="Edieresis" horiz-adv-x="560" unicode="Ë" d="M328 877q0 22 15 36.5t37 14.5t36.5 -14.5t14.5 -36.5q0 -23 -14.5 -37.5t-36.5 -14.5t-37 15t-15 37zM127 877q0 22 15 36.5t37 14.5t36.5 -14.5t14.5 -36.5t-14.5 -37t-36.5 -15t-37 15t-15 37zM521 0h-437v770h318l105 5v-80h-335v-258h285v-76h-285v-285h244l105 5 v-81z"/>
<glyph glyph-name="Igrave" horiz-adv-x="251" unicode="Ì" d="M-62 966h104l131 -146h-69zM169 0h-88v770h88v-770z"/>
<glyph glyph-name="Iacute" horiz-adv-x="251" unicode="Í" d="M209 966h104l-166 -146h-69zM169 0h-88v770h88v-770z"/>
<glyph glyph-name="Icircumflex" horiz-adv-x="288" unicode="Î" d="M111 966h66l156 -146h-91l-98 95l-98 -95h-91zM188 0h-88v770h88v-770z"/>
<glyph glyph-name="Idieresis" horiz-adv-x="250" unicode="Ï" d="M174 877q0 22 15 36.5t37 14.5t36.5 -14.5t14.5 -36.5q0 -23 -14.5 -37.5t-36.5 -14.5t-37 15t-15 37zM-27 877q0 22 15 36.5t37 14.5t36.5 -14.5t14.5 -36.5t-14.5 -37t-36.5 -15t-37 15t-15 37zM169 0h-88v770h88v-770z"/>
<glyph glyph-name="Eth" horiz-adv-x="775" unicode="Ð" d="M147 0v367h-78v70h78v320q134 18 207 18q62 -1 110 -9t97 -34t81 -67q32 -43 54 -115q20 -72 20 -170q0 -178 -86 -279t-228 -101h-255zM628 380q0 74 -13 130t-43 100t-84 67t-132 23q-66 0 -121 -11v-252h180v-70h-180v-291h167q98 0 162 82t64 222z"/>
<glyph glyph-name="Ntilde" horiz-adv-x="722" unicode="Ñ" d="M172 0h-88v770h88v-1l372 -605l7 -14l-1 14v606h88v-770h-88v1l-372 607l-7 14l1 -14v-608zM540 927l25 -50q-5 -6 -14 -15t-39 -23.5t-61 -14.5q-33 0 -96 24q-61 23 -86 23t-47 -9.5t-32 -18.5l-9 -10l-25 50q5 6 14 15t39 23.5t61 14.5q37 0 96 -24q56 -23 86 -23 q26 0 48 9.5t31 18.5z"/>
<glyph glyph-name="Ograve" horiz-adv-x="755" unicode="Ò" d="M182 966h104l131 -146h-69zM380 710q-42 0 -81 -17t-74 -52.5t-56.5 -101t-21.5 -153.5q0 -89 21 -155t56.5 -101.5t73.5 -52t79 -16.5q44 0 83 16.5t73 51.5t54.5 100.5t20.5 154.5q0 87 -20 153t-54 102t-72.5 53.5t-81.5 17.5zM380 785q47 0 89.5 -11.5t84.5 -40.5 t73 -73t50 -114.5t19 -159.5q0 -113 -27 -194.5t-74 -125t-100.5 -62.5t-117.5 -19q-47 0 -90 11t-85.5 39.5t-73.5 72t-50 114.5t-19 162q0 90 19 161.5t50.5 115.5t74 72.5t86 40t91.5 11.5z"/>
<glyph glyph-name="Oacute" horiz-adv-x="755" unicode="Ó" d="M473 966h104l-166 -146h-69zM380 710q-42 0 -81 -17t-74 -52.5t-56.5 -101t-21.5 -153.5q0 -89 21 -155t56.5 -101.5t73.5 -52t79 -16.5q44 0 83 16.5t73 51.5t54.5 100.5t20.5 154.5q0 87 -20 153t-54 102t-72.5 53.5t-81.5 17.5zM380 785q47 0 89.5 -11.5t84.5 -40.5 t73 -73t50 -114.5t19 -159.5q0 -113 -27 -194.5t-74 -125t-100.5 -62.5t-117.5 -19q-47 0 -90 11t-85.5 39.5t-73.5 72t-50 114.5t-19 162q0 90 19 161.5t50.5 115.5t74 72.5t86 40t91.5 11.5z"/>
<glyph glyph-name="Ocircumflex" horiz-adv-x="755" unicode="Ô" d="M346 966h66l156 -146h-91l-98 95l-98 -95h-91zM380 710q-42 0 -81 -17t-74 -52.5t-56.5 -101t-21.5 -153.5q0 -89 21 -155t56.5 -101.5t73.5 -52t79 -16.5q44 0 83 16.5t73 51.5t54.5 100.5t20.5 154.5q0 87 -20 153t-54 102t-72.5 53.5t-81.5 17.5zM380 785 q47 0 89.5 -11.5t84.5 -40.5t73 -73t50 -114.5t19 -159.5q0 -113 -27 -194.5t-74 -125t-100.5 -62.5t-117.5 -19q-47 0 -90 11t-85.5 39.5t-73.5 72t-50 114.5t-19 162q0 90 19 161.5t50.5 115.5t74 72.5t86 40t91.5 11.5z"/>
<glyph glyph-name="Otilde" horiz-adv-x="755" unicode="Õ" d="M380 710q-42 0 -81 -17t-74 -52.5t-56.5 -101t-21.5 -153.5q0 -89 21 -155t56.5 -101.5t73.5 -52t79 -16.5q44 0 83 16.5t73 51.5t54.5 100.5t20.5 154.5q0 87 -20 153t-54 102t-72.5 53.5t-81.5 17.5zM380 785q47 0 89.5 -11.5t84.5 -40.5t73 -73t50 -114.5t19 -159.5 q0 -113 -27 -194.5t-74 -125t-100.5 -62.5t-117.5 -19q-47 0 -90 11t-85.5 39.5t-73.5 72t-50 114.5t-19 162q0 90 19 161.5t50.5 115.5t74 72.5t86 40t91.5 11.5zM559 929l25 -50q-5 -6 -14 -15t-39 -23.5t-61 -14.5q-33 0 -96 24q-61 23 -86 23t-47 -9.5t-32 -18.5l-9 -10 l-25 50q5 6 14 15t39 23.5t61 14.5q37 0 96 -24q56 -23 86 -23q26 0 48 9.5t31 18.5z"/>
<glyph glyph-name="Odieresis" horiz-adv-x="755" unicode="Ö" d="M428 877q0 22 15 36.5t37 14.5t36.5 -14.5t14.5 -36.5q0 -23 -14.5 -37.5t-36.5 -14.5t-37 15t-15 37zM227 877q0 22 15 36.5t37 14.5t36.5 -14.5t14.5 -36.5t-14.5 -37t-36.5 -15t-37 15t-15 37zM380 710q-42 0 -81 -17t-74 -52.5t-56.5 -101t-21.5 -153.5 q0 -89 21 -155t56.5 -101.5t73.5 -52t79 -16.5q44 0 83 16.5t73 51.5t54.5 100.5t20.5 154.5q0 87 -20 153t-54 102t-72.5 53.5t-81.5 17.5zM380 785q47 0 89.5 -11.5t84.5 -40.5t73 -73t50 -114.5t19 -159.5q0 -113 -27 -194.5t-74 -125t-100.5 -62.5t-117.5 -19 q-47 0 -90 11t-85.5 39.5t-73.5 72t-50 114.5t-19 162q0 90 19 161.5t50.5 115.5t74 72.5t86 40t91.5 11.5z"/>
<glyph glyph-name="Oslash" horiz-adv-x="755" unicode="Ø" d="M380 710q-42 0 -81 -17t-74 -53t-57 -100q-22 -66 -21 -154q0 -157 66 -243l275 535q-49 32 -108 32zM608 384q0 159 -67 246l-275 -536q50 -33 111 -33q44 1 83 17t73 51q35 35 55 101t20 154zM380 785q80 0 145 -34l28 54h78l-49 -94q113 -102 114 -325 q0 -112 -27 -194t-74 -126t-101 -62q-54 -19 -117 -19q-82 0 -149 34l-28 -54h-78l48 94q-111 102 -111 325q0 90 19 162q18 72 50 115q32 45 74 73t86 40t92 11z"/>
<glyph glyph-name="Ugrave" horiz-adv-x="683" unicode="Ù" d="M146 966h104l131 -146h-69zM599 239q0 -64 -19.5 -112t-46.5 -74t-65 -41.5t-66.5 -19.5t-59.5 -4t-60 4.5t-66.5 20t-65 41.5t-47 73.5t-19.5 111.5v531h88v-529q0 -44 12.5 -77.5t30.5 -51.5t43 -29.5t44.5 -14.5t39.5 -3t39.5 3.5t43.5 15t42.5 29.5t31 51t12.5 75 v531h88v-531z"/>
<glyph glyph-name="Uacute" horiz-adv-x="683" unicode="Ú" d="M437 966h104l-166 -146h-69zM599 239q0 -64 -19.5 -112t-46.5 -74t-65 -41.5t-66.5 -19.5t-59.5 -4t-60 4.5t-66.5 20t-65 41.5t-47 73.5t-19.5 111.5v531h88v-529q0 -44 12.5 -77.5t30.5 -51.5t43 -29.5t44.5 -14.5t39.5 -3t39.5 3.5t43.5 15t42.5 29.5t31 51t12.5 75 v531h88v-531z"/>
<glyph glyph-name="Ucircumflex" horiz-adv-x="683" unicode="Û" d="M311 966h66l156 -146h-91l-98 95l-98 -95h-91zM599 239q0 -64 -19.5 -112t-46.5 -74t-65 -41.5t-66.5 -19.5t-59.5 -4t-60 4.5t-66.5 20t-65 41.5t-47 73.5t-19.5 111.5v531h88v-529q0 -44 12.5 -77.5t30.5 -51.5t43 -29.5t44.5 -14.5t39.5 -3t39.5 3.5t43.5 15 t42.5 29.5t31 51t12.5 75v531h88v-531z"/>
<glyph glyph-name="Udieresis" horiz-adv-x="683" unicode="Ü" d="M393 877q0 22 15 36.5t37 14.5t36.5 -14.5t14.5 -36.5q0 -23 -14.5 -37.5t-36.5 -14.5t-37 15t-15 37zM192 877q0 22 15 36.5t37 14.5t36.5 -14.5t14.5 -36.5t-14.5 -37t-36.5 -15t-37 15t-15 37zM599 239q0 -64 -19.5 -112t-46.5 -74t-65 -41.5t-66.5 -19.5t-59.5 -4 t-60 4.5t-66.5 20t-65 41.5t-47 73.5t-19.5 111.5v531h88v-529q0 -44 12.5 -77.5t30.5 -51.5t43 -29.5t44.5 -14.5t39.5 -3t39.5 3.5t43.5 15t42.5 29.5t31 51t12.5 75v531h88v-531z"/>
<glyph glyph-name="Yacute" horiz-adv-x="615" unicode="Ý" d="M370 976h104l-166 -146h-69zM507 770h99l-254 -401v-369h-87v369l-256 401h103l197 -309z"/>
<glyph glyph-name="Thorn" horiz-adv-x="627" unicode="Þ" d="M483 425q1 79 -47 127t-129 49q-66 0 -135 -51v-272q73 -65 161 -65q69 0 109 54t41 158zM172 0h-88v770h88v-137q77 45 164 45q104 0 168 -70t64 -183q0 -142 -62 -217t-177 -75q-81 0 -157 52v-185z"/>
<glyph glyph-name="germandbls" horiz-adv-x="650" unicode="ß" d="M256 396v72q32 0 60 8t58 24t50 51q18 34 18 82q0 60 -43 89t-86 29q-119 0 -127 -105v-646h-83v480h-71v70h71v96q0 91 58 136t152 45q34 0 68 -9q34 -10 68 -30q33 -20 55 -61t22 -96q0 -120 -81 -180q64 -19 105 -71t41 -134q0 -38 -5 -69t-22 -65t-45 -58t-77 -38 q-49 -16 -115 -16q-36 0 -69 12v78q29 -8 68 -8q102 0 142 44t39 120q-1 48 -23 80t-62 46t-79 19q-38 5 -87 5z"/>
<glyph glyph-name="agrave" horiz-adv-x="562" unicode="à" d="M96 756h104l131 -146h-69zM209 58q47 0 96.5 24.5t85.5 68.5v118q-43 -9 -130 -21q-73 -11 -99 -39.5t-26 -70.5q0 -31 15.5 -50.5t30 -24.5t27.5 -5zM110 407l-33 68q149 87 264 87q40 0 68.5 -16.5t41.5 -43.5t18 -50.5t5 -47.5v-296q0 -46 54 -70l-54 -50 q-61 24 -77 86q-81 -86 -188 -86q-10 0 -24.5 2t-39 11t-43.5 24t-33.5 44.5t-14.5 68.5q0 66 42 114.5t156 65.5q104 14 139 23v63q0 16 -3 31t-18 32t-41 17q-38 0 -92.5 -19t-90.5 -39z"/>
<glyph glyph-name="aacute" horiz-adv-x="562" unicode="á" d="M367 756h104l-166 -146h-69zM209 58q47 0 96.5 24.5t85.5 68.5v118q-43 -9 -130 -21q-73 -11 -99 -39.5t-26 -70.5q0 -31 15.5 -50.5t30 -24.5t27.5 -5zM110 407l-33 68q149 87 264 87q40 0 68.5 -16.5t41.5 -43.5t18 -50.5t5 -47.5v-296q0 -46 54 -70l-54 -50 q-61 24 -77 86q-81 -86 -188 -86q-10 0 -24.5 2t-39 11t-43.5 24t-33.5 44.5t-14.5 68.5q0 66 42 114.5t156 65.5q104 14 139 23v63q0 16 -3 31t-18 32t-41 17q-38 0 -92.5 -19t-90.5 -39z"/>
<glyph glyph-name="acircumflex" horiz-adv-x="562" unicode="â" d="M250 756h66l156 -146h-91l-98 95l-98 -95h-91zM209 58q47 0 96.5 24.5t85.5 68.5v118q-43 -9 -130 -21q-73 -11 -99 -39.5t-26 -70.5q0 -31 15.5 -50.5t30 -24.5t27.5 -5zM110 407l-33 68q149 87 264 87q40 0 68.5 -16.5t41.5 -43.5t18 -50.5t5 -47.5v-296q0 -46 54 -70 l-54 -50q-61 24 -77 86q-81 -86 -188 -86q-10 0 -24.5 2t-39 11t-43.5 24t-33.5 44.5t-14.5 68.5q0 66 42 114.5t156 65.5q104 14 139 23v63q0 16 -3 31t-18 32t-41 17q-38 0 -92.5 -19t-90.5 -39z"/>
<glyph glyph-name="atilde" horiz-adv-x="562" unicode="ã" d="M463 718l25 -50q-5 -6 -14 -15t-39 -23.5t-61 -14.5q-33 0 -96 24q-61 23 -86 23t-47 -9.5t-32 -18.5l-9 -10l-25 50q5 6 14 15t39 23.5t61 14.5q37 0 96 -24q56 -23 86 -23q26 0 48 9.5t31 18.5zM209 58q47 0 96.5 24.5t85.5 68.5v118q-43 -9 -130 -21 q-73 -11 -99 -39.5t-26 -70.5q0 -31 15.5 -50.5t30 -24.5t27.5 -5zM110 407l-33 68q149 87 264 87q40 0 68.5 -16.5t41.5 -43.5t18 -50.5t5 -47.5v-296q0 -46 54 -70l-54 -50q-61 24 -77 86q-81 -86 -188 -86q-10 0 -24.5 2t-39 11t-43.5 24t-33.5 44.5t-14.5 68.5 q0 66 42 114.5t156 65.5q104 14 139 23v63q0 16 -3 31t-18 32t-41 17q-38 0 -92.5 -19t-90.5 -39z"/>
<glyph glyph-name="adieresis" horiz-adv-x="562" unicode="ä" d="M332 662q0 22 15 36.5t37 14.5t36.5 -14.5t14.5 -36.5q0 -23 -14.5 -37.5t-36.5 -14.5t-37 15t-15 37zM131 662q0 22 15 36.5t37 14.5t36.5 -14.5t14.5 -36.5t-14.5 -37t-36.5 -15t-37 15t-15 37zM209 58q47 0 96.5 24.5t85.5 68.5v118q-43 -9 -130 -21 q-73 -11 -99 -39.5t-26 -70.5q0 -31 15.5 -50.5t30 -24.5t27.5 -5zM110 407l-33 68q149 87 264 87q40 0 68.5 -16.5t41.5 -43.5t18 -50.5t5 -47.5v-296q0 -46 54 -70l-54 -50q-61 24 -77 86q-81 -86 -188 -86q-10 0 -24.5 2t-39 11t-43.5 24t-33.5 44.5t-14.5 68.5 q0 66 42 114.5t156 65.5q104 14 139 23v63q0 16 -3 31t-18 32t-41 17q-38 0 -92.5 -19t-90.5 -39z"/>
<glyph glyph-name="aring" horiz-adv-x="562" unicode="å" d="M237 693q0 -19 14 -33.5t34 -14.5q17 0 31 14.5t14 33.5q0 17 -14 31t-31 14q-19 0 -33.5 -14t-14.5 -31zM285 597q-40 0 -68 28t-28 68q0 38 28 65t68 27q38 0 65 -27t27 -65q0 -40 -27 -68t-65 -28zM209 58q47 0 96.5 24.5t85.5 68.5v118q-43 -9 -130 -21 q-73 -11 -99 -39.5t-26 -70.5q0 -31 15.5 -50.5t30 -24.5t27.5 -5zM110 407l-33 68q149 87 264 87q40 0 68.5 -16.5t41.5 -43.5t18 -50.5t5 -47.5v-296q0 -46 54 -70l-54 -50q-61 24 -77 86q-81 -86 -188 -86q-10 0 -24.5 2t-39 11t-43.5 24t-33.5 44.5t-14.5 68.5 q0 66 42 114.5t156 65.5q104 14 139 23v63q0 16 -3 31t-18 32t-41 17q-38 0 -92.5 -19t-90.5 -39z"/>
<glyph glyph-name="ae" horiz-adv-x="896" unicode="æ" d="M610 490q-53 0 -88.5 -37.5t-53.5 -99.5h279q-9 54 -41.5 95.5t-95.5 41.5zM97 406l-33 68q149 87 264 87q86 0 118 -76q64 77 164 77q58 0 101.5 -22t65.5 -52t35.5 -68t16.5 -61t3 -41v-39h-375v-16q0 -93 41 -148t116 -55q49 0 89.5 21.5t80.5 75.5l51 -49 q-57 -68 -105.5 -94t-115.5 -26q-130 0 -195 106q-40 -46 -95.5 -76t-114.5 -30q-10 0 -24.5 2t-39 11t-43.5 24t-33.5 44.5t-14.5 68.5q0 66 42 114.5t156 65.5q84 12 126 22v63q0 16 -3 31t-18 32t-41 17q-38 0 -92.5 -19.5t-90.5 -38.5zM209 58q47 0 96.5 24.5t85.5 68.5 l-1 6q-13 44 -13 109q-31 -7 -116 -18q-73 -9 -99 -38.5t-26 -71.5q0 -31 15.5 -50.5t30 -24.5t27.5 -5z"/>
<glyph glyph-name="ccedilla" horiz-adv-x="508" unicode="ç" d="M288 -123q0 40 -62 42h-19l47 81h53l-25 -52q70 -10 70 -71q0 -34 -26.5 -57.5t-79.5 -23.5q-51 0 -91 40l28 36q30 -30 63 -30q21 0 31.5 10.5t10.5 24.5zM290 562q32 0 61 -9t47.5 -22t33 -26t20.5 -22l7 -9l-53 -50q-1 3 -4 7t-13.5 15t-23 19t-33 15t-44.5 7 q-58 0 -104 -58.5t-46 -163.5q0 -85 40.5 -144t104.5 -59q34 0 63.5 12t70.5 51l52 -50q-53 -55 -95.5 -71t-90.5 -16q-102 0 -165.5 79t-63.5 198q0 74 21.5 133t56.5 93.5t75.5 52.5t82.5 18z"/>
<glyph glyph-name="egrave" horiz-adv-x="577" unicode="è" d="M79 756h104l131 -146h-69zM290 490q-53 0 -88.5 -37.5t-53.5 -99.5h279q-9 54 -41.5 95.5t-95.5 41.5zM54 269q0 123 65.5 208t170.5 85q58 0 101.5 -22t65.5 -52t35.5 -68t16.5 -61t3 -41v-39h-375v-16q0 -93 41 -148t116 -55q49 0 89.5 21.5t80.5 75.5l51 -49 q-57 -68 -105.5 -94t-115.5 -26q-115 0 -177.5 80.5t-62.5 200.5z"/>
<glyph glyph-name="eacute" horiz-adv-x="577" unicode="é" d="M380 756h104l-166 -146h-69zM290 490q-53 0 -88.5 -37.5t-53.5 -99.5h279q-9 54 -41.5 95.5t-95.5 41.5zM54 269q0 123 65.5 208t170.5 85q58 0 101.5 -22t65.5 -52t35.5 -68t16.5 -61t3 -41v-39h-375v-16q0 -93 41 -148t116 -55q49 0 89.5 21.5t80.5 75.5l51 -49 q-57 -68 -105.5 -94t-115.5 -26q-115 0 -177.5 80.5t-62.5 200.5z"/>
<glyph glyph-name="ecircumflex" horiz-adv-x="577" unicode="ê" d="M249 756h66l156 -146h-91l-98 95l-98 -95h-91zM290 490q-53 0 -88.5 -37.5t-53.5 -99.5h279q-9 54 -41.5 95.5t-95.5 41.5zM54 269q0 123 65.5 208t170.5 85q58 0 101.5 -22t65.5 -52t35.5 -68t16.5 -61t3 -41v-39h-375v-16q0 -93 41 -148t116 -55q49 0 89.5 21.5 t80.5 75.5l51 -49q-57 -68 -105.5 -94t-115.5 -26q-115 0 -177.5 80.5t-62.5 200.5z"/>
<glyph glyph-name="edieresis" horiz-adv-x="577" unicode="ë" d="M331 662q0 22 15 36.5t37 14.5t36.5 -14.5t14.5 -36.5q0 -23 -14.5 -37.5t-36.5 -14.5t-37 15t-15 37zM130 662q0 22 15 36.5t37 14.5t36.5 -14.5t14.5 -36.5t-14.5 -37t-36.5 -15t-37 15t-15 37zM290 490q-53 0 -88.5 -37.5t-53.5 -99.5h279q-9 54 -41.5 95.5 t-95.5 41.5zM54 269q0 123 65.5 208t170.5 85q58 0 101.5 -22t65.5 -52t35.5 -68t16.5 -61t3 -41v-39h-375v-16q0 -93 41 -148t116 -55q49 0 89.5 21.5t80.5 75.5l51 -49q-57 -68 -105.5 -94t-115.5 -26q-115 0 -177.5 80.5t-62.5 200.5z"/>
<glyph glyph-name="igrave" horiz-adv-x="251" unicode="ì" d="M-62 756h104l131 -146h-69zM84 550h83v-550h-83v550z"/>
<glyph glyph-name="iacute" horiz-adv-x="251" unicode="í" d="M209 756h104l-166 -146h-69zM84 550h83v-550h-83v550z"/>
<glyph glyph-name="icircumflex" horiz-adv-x="288" unicode="î" d="M111 756h66l156 -146h-91l-98 95l-98 -95h-91zM102 550h83v-550h-83v550z"/>
<glyph glyph-name="idieresis" horiz-adv-x="250" unicode="ï" d="M174 662q0 22 15 36.5t37 14.5t36.5 -14.5t14.5 -36.5q0 -23 -14.5 -37.5t-36.5 -14.5t-37 15t-15 37zM-27 662q0 22 15 36.5t37 14.5t36.5 -14.5t14.5 -36.5t-14.5 -37t-36.5 -15t-37 15t-15 37zM83 550h83v-550h-83v550z"/>
<glyph glyph-name="eth" horiz-adv-x="609" unicode="ð" d="M291 66q81 0 127 72t49 203q-84 107 -186 107q-63 0 -103 -59t-40 -147q0 -38 13 -76t49 -68q36 -32 91 -32zM255 770q29 0 56 -6l33 51l52 -34l-26 -40q88 -47 134 -156t47 -224q0 -177 -68 -273t-192 -96q-65 0 -113 26t-74 64q-26 40 -38 80t-12 80q0 122 63 201 t164 79q97 0 179 -75q-12 79 -46 141t-86 90l-61 -94l-52 32l51 79q-4 1 -11 1q-58 0 -114 -36l-36 62q72 48 150 48z"/>
<glyph glyph-name="ntilde" d="M168 0h-84v550h84v-106q122 118 240 118q127 0 127 -171v-391h-84v391q0 87 -43 87q-111 0 -240 -131v-347zM490 718l25 -50q-5 -6 -14 -15t-39 -23.5t-61 -14.5q-33 0 -96 24q-61 23 -86 23t-47 -9.5t-32 -18.5l-9 -10l-25 50q5 6 14 15t39 23.5t61 14.5q37 0 96 -24 q56 -23 86 -23q26 0 48 9.5t31 18.5z" unicode="ñ"/>
<glyph glyph-name="ograve" horiz-adv-x="586" unicode="ò" d="M95 756h104l131 -146h-69zM448 275q0 108 -45.5 163t-109.5 55t-109.5 -53.5t-45.5 -164.5q0 -110 45.5 -164.5t109.5 -54.5q65 0 110 53.5t45 165.5zM54 275q0 76 20 133t54.5 89.5t76 48.5t88.5 16t88.5 -16t76 -48.5t54.5 -90t20 -132.5q0 -76 -20 -133.5t-55 -90 t-76 -48t-88 -15.5q-48 0 -88.5 15t-75.5 46.5t-55 89.5t-20 136z"/>
<glyph glyph-name="oacute" horiz-adv-x="586" unicode="ó" d="M386 756h104l-166 -146h-69zM448 275q0 108 -45.5 163t-109.5 55t-109.5 -53.5t-45.5 -164.5q0 -110 45.5 -164.5t109.5 -54.5q65 0 110 53.5t45 165.5zM54 275q0 76 20 133t54.5 89.5t76 48.5t88.5 16t88.5 -16t76 -48.5t54.5 -90t20 -132.5q0 -76 -20 -133.5t-55 -90 t-76 -48t-88 -15.5q-48 0 -88.5 15t-75.5 46.5t-55 89.5t-20 136z"/>
<glyph glyph-name="ocircumflex" horiz-adv-x="586" unicode="ô" d="M259 756h66l156 -146h-91l-98 95l-98 -95h-91zM448 275q0 108 -45.5 163t-109.5 55t-109.5 -53.5t-45.5 -164.5q0 -110 45.5 -164.5t109.5 -54.5q65 0 110 53.5t45 165.5zM54 275q0 76 20 133t54.5 89.5t76 48.5t88.5 16t88.5 -16t76 -48.5t54.5 -90t20 -132.5 q0 -76 -20 -133.5t-55 -90t-76 -48t-88 -15.5q-48 0 -88.5 15t-75.5 46.5t-55 89.5t-20 136z"/>
<glyph glyph-name="otilde" horiz-adv-x="586" unicode="õ" d="M448 275q0 108 -45.5 163t-109.5 55t-109.5 -53.5t-45.5 -164.5q0 -110 45.5 -164.5t109.5 -54.5q65 0 110 53.5t45 165.5zM54 275q0 76 20 133t54.5 89.5t76 48.5t88.5 16t88.5 -16t76 -48.5t54.5 -90t20 -132.5q0 -76 -20 -133.5t-55 -90t-76 -48t-88 -15.5 q-48 0 -88.5 15t-75.5 46.5t-55 89.5t-20 136zM472 718l25 -50q-5 -6 -14 -15t-39 -23.5t-61 -14.5q-33 0 -96 24q-61 23 -86 23t-47 -9.5t-32 -18.5l-9 -10l-25 50q5 6 14 15t39 23.5t61 14.5q37 0 96 -24q56 -23 86 -23q26 0 48 9.5t31 18.5z"/>
<glyph glyph-name="odieresis" horiz-adv-x="586" unicode="ö" d="M341 662q0 22 15 36.5t37 14.5t36.5 -14.5t14.5 -36.5q0 -23 -14.5 -37.5t-36.5 -14.5t-37 15t-15 37zM140 662q0 22 15 36.5t37 14.5t36.5 -14.5t14.5 -36.5t-14.5 -37t-36.5 -15t-37 15t-15 37zM448 275q0 108 -45.5 163t-109.5 55t-109.5 -53.5t-45.5 -164.5 q0 -110 45.5 -164.5t109.5 -54.5q65 0 110 53.5t45 165.5zM54 275q0 76 20 133t54.5 89.5t76 48.5t88.5 16t88.5 -16t76 -48.5t54.5 -90t20 -132.5q0 -76 -20 -133.5t-55 -90t-76 -48t-88 -15.5q-48 0 -88.5 15t-75.5 46.5t-55 89.5t-20 136z"/>
<glyph glyph-name="oslash" horiz-adv-x="586" unicode="ø" d="M138 275q0 -94 36 -151l182 353q-32 16 -63 16q-63 1 -109 -53t-46 -165zM448 275q0 94 -39 153l-183 -355q30 -17 67 -17q65 0 110 54t45 165zM54 275q0 76 20 133q20 58 54 90t76 48t89 16q52 0 97 -19l20 39h78l-40 -77q84 -76 84 -230q0 -75 -20 -133t-55 -90 t-76 -48t-88 -16q-54 0 -101 19l-20 -39h-78l39 77q-79 74 -79 230z"/>
<glyph glyph-name="ugrave" d="M97 756h104l131 -146h-69zM196 69q112 0 240 133v348h84v-550h-84v97q-50 -48 -113.5 -78.5t-126.5 -30.5q-127 0 -127 171v391h84v-391q0 -90 43 -90z" unicode="ù"/>
<glyph glyph-name="uacute" d="M388 756h104l-166 -146h-69zM196 69q112 0 240 133v348h84v-550h-84v97q-50 -48 -113.5 -78.5t-126.5 -30.5q-127 0 -127 171v391h84v-391q0 -90 43 -90z" unicode="ú"/>
<glyph glyph-name="ucircumflex" d="M261 756h66l156 -146h-91l-98 95l-98 -95h-91zM196 69q112 0 240 133v348h84v-550h-84v97q-50 -48 -113.5 -78.5t-126.5 -30.5q-127 0 -127 171v391h84v-391q0 -90 43 -90z" unicode="û"/>
<glyph glyph-name="udieresis" d="M343 662q0 22 15 36.5t37 14.5t36.5 -14.5t14.5 -36.5q0 -23 -14.5 -37.5t-36.5 -14.5t-37 15t-15 37zM142 662q0 22 15 36.5t37 14.5t36.5 -14.5t14.5 -36.5t-14.5 -37t-36.5 -15t-37 15t-15 37zM196 69q112 0 240 133v348h84v-550h-84v97q-50 -48 -113.5 -78.5 t-126.5 -30.5q-127 0 -127 171v391h84v-391q0 -90 43 -90z" unicode="ü"/>
<glyph glyph-name="yacute" horiz-adv-x="513" unicode="ý" d="M316 756h104l-166 -146h-69zM16 550h89l149 -386q150 368 172 386h95q-22 -21 -63.5 -113.5t-197.5 -475.5q-17 -41 -27 -64t-30.5 -55.5t-44.5 -55.5q-58 -56 -142 -61l-21 73q67 4 106 43q19 19 36 48t44 94l27 67z"/>
<glyph glyph-name="thorn" horiz-adv-x="622" unicode="þ" d="M370 480q-121 0 -204 -130v-194q37 -38 85 -62t86 -24q67 0 107 57t40 157q0 80 -32 138t-82 58zM166 -260h-82v1030h82v-312q81 104 204 104q88 0 143 -82t55 -196q0 -140 -62 -218t-169 -78q-76 0 -171 76v-324z"/>
<glyph glyph-name="ydieresis" horiz-adv-x="513" unicode="ÿ" d="M302 662q0 22 15 36.5t37 14.5t36.5 -14.5t14.5 -36.5q0 -23 -14.5 -37.5t-36.5 -14.5t-37 15t-15 37zM101 662q0 22 15 36.5t37 14.5t36.5 -14.5t14.5 -36.5t-14.5 -37t-36.5 -15t-37 15t-15 37zM16 550h89l149 -386q150 368 172 386h95q-22 -21 -63.5 -113.5 t-197.5 -475.5q-17 -41 -27 -64t-30.5 -55.5t-44.5 -55.5q-58 -56 -142 -61l-21 73q67 4 106 43q19 19 36 48t44 94l27 67z"/>
<glyph glyph-name="Abreve" horiz-adv-x="708" unicode="Ă" d="M196 967h61q4 -33 33.5 -59t66.5 -26t63.5 25.5t30.5 59.5h60q-8 -61 -50 -105t-104 -44t-107.5 44.5t-53.5 104.5zM354 672q-1 -28 -7 -48l-106 -286h225l-106 286q-6 23 -6 48zM308 770h92l284 -770h-93l-97 262h-281l-96 -262h-93z"/>
<glyph glyph-name="abreve" horiz-adv-x="562" unicode="ă" d="M123 750h61q4 -33 33.5 -59t66.5 -26t63.5 25.5t30.5 59.5h60q-8 -61 -50 -105t-104 -44t-107.5 44.5t-53.5 104.5zM209 58q47 0 96.5 24.5t85.5 68.5v118q-43 -9 -130 -21q-73 -11 -99 -39.5t-26 -70.5q0 -31 15.5 -50.5t30 -24.5t27.5 -5zM110 407l-33 68 q149 87 264 87q40 0 68.5 -16.5t41.5 -43.5t18 -50.5t5 -47.5v-296q0 -46 54 -70l-54 -50q-61 24 -77 86q-81 -86 -188 -86q-10 0 -24.5 2t-39 11t-43.5 24t-33.5 44.5t-14.5 68.5q0 66 42 114.5t156 65.5q104 14 139 23v63q0 16 -3 31t-18 32t-41 17q-38 0 -92.5 -19 t-90.5 -39z"/>
<glyph glyph-name="Aogonek" horiz-adv-x="708" unicode="Ą" d="M551 -69q0 27 20 57t40 46l20 17l32 -20q-7 -4 -16.5 -12.5t-26 -34t-16.5 -51.5q0 -17 13 -26t29 -9q33 0 55 27l40 -36q-40 -45 -95 -45q-36 0 -65.5 23t-29.5 64zM354 672q-1 -28 -7 -48l-106 -286h225l-106 286q-6 23 -6 48zM308 770h92l284 -770h-93l-97 262h-281 l-96 -262h-93z"/>
<glyph glyph-name="aogonek" horiz-adv-x="562" unicode="ą" d="M338 -69q0 27 20 57t40 46l20 17l32 -20q-7 -4 -16.5 -12.5t-26 -34t-16.5 -51.5q0 -17 13 -26t29 -9q33 0 55 27l40 -36q-40 -45 -95 -45q-36 0 -65.5 23t-29.5 64zM209 58q47 0 96.5 24.5t85.5 68.5v118q-43 -9 -130 -21q-73 -11 -99 -39.5t-26 -70.5q0 -31 15.5 -50.5 t30 -24.5t27.5 -5zM110 407l-33 68q149 87 264 87q40 0 68.5 -16.5t41.5 -43.5t18 -50.5t5 -47.5v-296q0 -46 54 -70l-54 -50q-61 24 -77 86q-81 -86 -188 -86q-10 0 -24.5 2t-39 11t-43.5 24t-33.5 44.5t-14.5 68.5q0 66 42 114.5t156 65.5q104 14 139 23v63q0 16 -3 31 t-18 32t-41 17q-38 0 -92.5 -19t-90.5 -39z"/>
<glyph glyph-name="Cacute" horiz-adv-x="642" unicode="Ć" d="M457 966h104l-166 -146h-69zM593 680l-58 -56q-2 3 -6 8.5t-18.5 18.5t-32 23t-46.5 18.5t-62 8.5q-90 0 -155.5 -89t-65.5 -249q0 -125 65 -212t156 -87q130 0 197 89l55 -55q-88 -113 -257 -113q-132 0 -219 108t-87 270q0 198 92 310t220 112q45 0 84.5 -11t64 -26.5 t42 -30.5t24.5 -26z"/>
<glyph glyph-name="cacute" horiz-adv-x="508" unicode="ć" d="M363 756h104l-166 -146h-69zM290 562q32 0 61 -9t47.5 -22t33 -26t20.5 -22l7 -9l-53 -50q-1 3 -4 7t-13.5 15t-23 19t-33 15t-44.5 7q-58 0 -104 -58.5t-46 -163.5q0 -85 40.5 -144t104.5 -59q34 0 63.5 12t70.5 51l52 -50q-53 -55 -95.5 -71t-90.5 -16 q-102 0 -165.5 79t-63.5 198q0 74 21.5 133t56.5 93.5t75.5 52.5t82.5 18z"/>
<glyph glyph-name="Ccircumflex" horiz-adv-x="642" unicode="Ĉ" d="M337 966h66l156 -146h-91l-98 95l-98 -95h-91zM593 680l-58 -56q-2 3 -6 8.5t-18.5 18.5t-32 23t-46.5 18.5t-62 8.5q-90 0 -155.5 -89t-65.5 -249q0 -125 65 -212t156 -87q130 0 197 89l55 -55q-88 -113 -257 -113q-132 0 -219 108t-87 270q0 198 92 310t220 112 q45 0 84.5 -11t64 -26.5t42 -30.5t24.5 -26z"/>
<glyph glyph-name="ccircumflex" horiz-adv-x="508" unicode="ĉ" d="M253 756h66l156 -146h-91l-98 95l-98 -95h-91zM290 562q32 0 61 -9t47.5 -22t33 -26t20.5 -22l7 -9l-53 -50q-1 3 -4 7t-13.5 15t-23 19t-33 15t-44.5 7q-58 0 -104 -58.5t-46 -163.5q0 -85 40.5 -144t104.5 -59q34 0 63.5 12t70.5 51l52 -50q-53 -55 -95.5 -71 t-90.5 -16q-102 0 -165.5 79t-63.5 198q0 74 21.5 133t56.5 93.5t75.5 52.5t82.5 18z"/>
<glyph glyph-name="Ccaron" horiz-adv-x="642" unicode="Č" d="M396 820h-66l-156 146h91l98 -95l98 95h91zM593 680l-58 -56q-2 3 -6 8.5t-18.5 18.5t-32 23t-46.5 18.5t-62 8.5q-90 0 -155.5 -89t-65.5 -249q0 -125 65 -212t156 -87q130 0 197 89l55 -55q-88 -113 -257 -113q-132 0 -219 108t-87 270q0 198 92 310t220 112 q45 0 84.5 -11t64 -26.5t42 -30.5t24.5 -26z"/>
<glyph glyph-name="ccaron" horiz-adv-x="508" unicode="č" d="M317 605h-66l-156 146h91l98 -95l98 95h91zM290 562q32 0 61 -9t47.5 -22t33 -26t20.5 -22l7 -9l-53 -50q-1 3 -4 7t-13.5 15t-23 19t-33 15t-44.5 7q-58 0 -104 -58.5t-46 -163.5q0 -85 40.5 -144t104.5 -59q34 0 63.5 12t70.5 51l52 -50q-53 -55 -95.5 -71t-90.5 -16 q-102 0 -165.5 79t-63.5 198q0 74 21.5 133t56.5 93.5t75.5 52.5t82.5 18z"/>
<glyph glyph-name="Dcaron" horiz-adv-x="712" unicode="Ď" d="M345 819h-66l-156 146h91l98 -95l98 95h91zM565 380q0 75 -13 130.5t-42.5 99.5t-84 67t-132.5 23q-66 0 -121 -11v-613h167q99 0 162.5 82t63.5 222zM84 0v757q134 18 207 18q61 0 109.5 -8.5t97.5 -34t81.5 -67.5t53 -114.5t20.5 -170.5q0 -178 -86.5 -279t-227.5 -101 h-255z"/>
<glyph glyph-name="Ebreve" horiz-adv-x="560" unicode="Ĕ" d="M138 967h61q4 -33 33.5 -59t66.5 -26t63.5 25.5t30.5 59.5h60q-8 -61 -50 -105t-104 -44t-107.5 44.5t-53.5 104.5zM521 0h-437v770h318l105 5v-80h-335v-258h285v-76h-285v-285h244l105 5v-81z"/>
<glyph glyph-name="ebreve" horiz-adv-x="577" unicode="ĕ" d="M131 750h61q4 -33 33.5 -59t66.5 -26t63.5 25.5t30.5 59.5h60q-8 -61 -50 -105t-104 -44t-107.5 44.5t-53.5 104.5zM290 490q-53 0 -88.5 -37.5t-53.5 -99.5h279q-9 54 -41.5 95.5t-95.5 41.5zM54 269q0 123 65.5 208t170.5 85q58 0 101.5 -22t65.5 -52t35.5 -68 t16.5 -61t3 -41v-39h-375v-16q0 -93 41 -148t116 -55q49 0 89.5 21.5t80.5 75.5l51 -49q-57 -68 -105.5 -94t-115.5 -26q-115 0 -177.5 80.5t-62.5 200.5z"/>
<glyph glyph-name="Eogonek" horiz-adv-x="560" unicode="Ę" d="M350 -69q0 27 20 57t40 46l20 17l32 -20q-7 -4 -16.5 -12.5t-26 -34t-16.5 -51.5q0 -17 13 -26t29 -9q33 0 55 27l40 -36q-40 -45 -95 -45q-36 0 -65.5 23t-29.5 64zM521 0h-437v770h318l105 5v-80h-335v-258h285v-76h-285v-285h244l105 5v-81z"/>
<glyph glyph-name="eogonek" horiz-adv-x="577" unicode="ę" d="M247 -69q0 27 20 57t40 46l20 17l32 -20q-7 -4 -16.5 -12.5t-26 -34t-16.5 -51.5q0 -17 13 -26t29 -9q33 0 55 27l40 -36q-40 -45 -95 -45q-36 0 -65.5 23t-29.5 64zM290 490q-53 0 -88.5 -37.5t-53.5 -99.5h279q-9 54 -41.5 95.5t-95.5 41.5zM54 269q0 123 65.5 208 t170.5 85q58 0 101.5 -22t65.5 -52t35.5 -68t16.5 -61t3 -41v-39h-375v-16q0 -93 41 -148t116 -55q49 0 89.5 21.5t80.5 75.5l51 -49q-57 -68 -105.5 -94t-115.5 -26q-115 0 -177.5 80.5t-62.5 200.5z"/>
<glyph glyph-name="Ecaron" horiz-adv-x="560" unicode="Ě" d="M338 819h-66l-156 146h91l98 -95l98 95h91zM521 0h-437v770h318l105 5v-80h-335v-258h285v-76h-285v-285h244l105 5v-81z"/>
<glyph glyph-name="ecaron" horiz-adv-x="577" unicode="ě" d="M321 605h-66l-156 146h91l98 -95l98 95h91zM290 490q-53 0 -88.5 -37.5t-53.5 -99.5h279q-9 54 -41.5 95.5t-95.5 41.5zM54 269q0 123 65.5 208t170.5 85q58 0 101.5 -22t65.5 -52t35.5 -68t16.5 -61t3 -41v-39h-375v-16q0 -93 41 -148t116 -55q49 0 89.5 21.5t80.5 75.5 l51 -49q-57 -68 -105.5 -94t-115.5 -26q-115 0 -177.5 80.5t-62.5 200.5z"/>
<glyph glyph-name="Gcircumflex" horiz-adv-x="748" unicode="Ĝ" d="M378 965h66l156 -146h-91l-98 95l-98 -95h-91zM663 378v-231q0 -66 -75 -114t-166 -48q-85 0 -151 25t-105 63.5t-64 91.5t-34 102t-9 101q0 90 23 163t59.5 119t84.5 77.5t95.5 44.5t95.5 13q44 0 84.5 -12t67.5 -29.5t48 -35t31 -29.5l9 -12l-59 -58q-3 4 -8 11t-22 24 t-36 30t-49 24t-62 11q-34 0 -70 -11.5t-72 -38t-64.5 -64.5t-46.5 -97t-18 -130q0 -40 6.5 -78.5t25 -80.5t47 -73t77.5 -51t112 -20q48 0 104.5 29t56.5 62v144h-90q-63 0 -91 13v75q25 -10 94 -10h171z"/>
<glyph glyph-name="gcircumflex" horiz-adv-x="613" unicode="ĝ" d="M250 796h66l156 -146h-91l-98 95l-98 -95h-91zM299 -202q96 0 147 43.5t51 108.5q0 26 -17.5 44t-50.5 27t-62.5 13t-71.5 6q-9 0 -33.5 0.5t-38.5 0.5q-43 -26 -62.5 -53.5t-19.5 -85.5q0 -42 49.5 -73t108.5 -31zM92 122q0 47 71 104q-85 48 -85 162q0 44 22 79.5 t56 55.5t70 30.5t69 10.5q31 0 67 -9q65 59 151 59q27 0 60 -10l-14 -70q-18 6 -46 6q-43 0 -81 -16q79 -50 79 -136q0 -56 -21.5 -96t-56.5 -59.5t-69 -27.5t-69 -8q-34 0 -60 5q-59 -42 -59 -80q3 -3 25.5 -4.5t58.5 -2.5l36 -1q58 -3 101 -10.5t88.5 -24t70 -49.5 t24.5 -80q0 -97 -71.5 -161t-209.5 -64q-95 0 -167.5 53t-72.5 124q0 42 12 72t27.5 46t44.5 37q-51 22 -51 65zM161 388q0 -127 134 -127q30 0 57.5 9t51.5 39t24 79q0 55 -43 83.5t-90 28.5t-90.5 -28.5t-43.5 -83.5z"/>
<glyph glyph-name="Gbreve" horiz-adv-x="748" unicode="Ğ" d="M246 969h61q4 -33 33.5 -59t66.5 -26t63.5 25.5t30.5 59.5h60q-8 -61 -50 -105t-104 -44t-107.5 44.5t-53.5 104.5zM663 378v-231q0 -66 -75 -114t-166 -48q-85 0 -151 25t-105 63.5t-64 91.5t-34 102t-9 101q0 90 23 163t59.5 119t84.5 77.5t95.5 44.5t95.5 13 q44 0 84.5 -12t67.5 -29.5t48 -35t31 -29.5l9 -12l-59 -58q-3 4 -8 11t-22 24t-36 30t-49 24t-62 11q-34 0 -70 -11.5t-72 -38t-64.5 -64.5t-46.5 -97t-18 -130q0 -40 6.5 -78.5t25 -80.5t47 -73t77.5 -51t112 -20q48 0 104.5 29t56.5 62v144h-90q-63 0 -91 13v75 q25 -10 94 -10h171z"/>
<glyph glyph-name="gbreve" horiz-adv-x="613" unicode="ğ" d="M128 750h61q4 -33 33.5 -59t66.5 -26t63.5 25.5t30.5 59.5h60q-8 -61 -50 -105t-104 -44t-107.5 44.5t-53.5 104.5zM299 -202q96 0 147 43.5t51 108.5q0 26 -17.5 44t-50.5 27t-62.5 13t-71.5 6q-9 0 -33.5 0.5t-38.5 0.5q-43 -26 -62.5 -53.5t-19.5 -85.5 q0 -42 49.5 -73t108.5 -31zM92 122q0 47 71 104q-85 48 -85 162q0 44 22 79.5t56 55.5t70 30.5t69 10.5q31 0 67 -9q65 59 151 59q27 0 60 -10l-14 -70q-18 6 -46 6q-43 0 -81 -16q79 -50 79 -136q0 -56 -21.5 -96t-56.5 -59.5t-69 -27.5t-69 -8q-34 0 -60 5 q-59 -42 -59 -80q3 -3 25.5 -4.5t58.5 -2.5l36 -1q58 -3 101 -10.5t88.5 -24t70 -49.5t24.5 -80q0 -97 -71.5 -161t-209.5 -64q-95 0 -167.5 53t-72.5 124q0 42 12 72t27.5 46t44.5 37q-51 22 -51 65zM161 388q0 -127 134 -127q30 0 57.5 9t51.5 39t24 79q0 55 -43 83.5 t-90 28.5t-90.5 -28.5t-43.5 -83.5z"/>
<glyph glyph-name="Hcircumflex" horiz-adv-x="740" unicode="Ĥ" d="M342 965h66l156 -146h-91l-98 95l-98 -95h-91zM172 0h-88v770h88v-334h396v334h88v-770h-88v360h-396v-360z"/>
<glyph glyph-name="hcircumflex" d="M343 756h66l156 -146h-91l-98 95l-98 -95h-91zM168 0h-84v820h84v-376q122 118 240 118q127 0 127 -171v-391h-84v391q0 87 -43 87q-114 0 -240 -131v-347z" unicode="ĥ"/>
<glyph glyph-name="Itilde" horiz-adv-x="256" unicode="Ĩ" d="M172 0h-88v770h88v-770zM308 918l25 -50q-5 -6 -14 -15t-39 -23.5t-61 -14.5q-33 0 -96 24q-61 23 -86 23t-47 -9.5t-32 -18.5l-9 -10l-25 50q5 6 14 15t39 23.5t61 14.5q37 0 96 -24q56 -23 86 -23q26 0 48 9.5t31 18.5z"/>
<glyph glyph-name="itilde" horiz-adv-x="251" unicode="ĩ" d="M84 550h83v-550h-83v550zM304 718l25 -50q-5 -6 -14 -15t-39 -23.5t-61 -14.5q-33 0 -96 24q-61 23 -86 23t-47 -9.5t-32 -18.5l-9 -10l-25 50q5 6 14 15t39 23.5t61 14.5q37 0 96 -24q56 -23 86 -23q26 0 48 9.5t31 18.5z"/>
<glyph glyph-name="Ibreve" horiz-adv-x="256" unicode="Ĭ" d="M-29 966h61q4 -33 33.5 -59t66.5 -26t63.5 25.5t30.5 59.5h60q-8 -61 -50 -105t-104 -44t-107.5 44.5t-53.5 104.5zM172 0h-88v770h88v-770z"/>
<glyph glyph-name="ibreve" horiz-adv-x="251" unicode="ĭ" d="M-32 750h61q4 -33 33.5 -59t66.5 -26t63.5 25.5t30.5 59.5h60q-8 -61 -50 -105t-104 -44t-107.5 44.5t-53.5 104.5zM84 550h83v-550h-83v550z"/>
<glyph glyph-name="Iogonek" horiz-adv-x="256" unicode="Į" d="M29 -69q0 27 20 57t40 46l20 17l32 -20q-7 -4 -16.5 -12.5t-26 -34t-16.5 -51.5q0 -17 13 -26t29 -9q33 0 55 27l40 -36q-40 -45 -95 -45q-36 0 -65.5 23t-29.5 64zM172 0h-88v770h88v-770z"/>
<glyph glyph-name="iogonek" horiz-adv-x="271" unicode="į" d="M41 -69q0 27 20 57t40 46l20 17l32 -20q-7 -4 -16.5 -12.5t-26 -34t-16.5 -51.5q0 -17 13 -26t29 -9q33 0 55 27l40 -36q-40 -45 -95 -45q-36 0 -65.5 23t-29.5 64zM84 719q0 22 15 36.5t37 14.5t36.5 -14.5t14.5 -36.5t-14.5 -37t-36.5 -15t-37 14.5t-15 37.5zM94 550 h83v-550h-83v550z"/>
<glyph glyph-name="dotlessi" horiz-adv-x="251" unicode="ı" d="M84 550h83v-550h-83v550z"/>
<glyph glyph-name="Jcircumflex" horiz-adv-x="284" unicode="Ĵ" d="M126 964h66l156 -146h-91l-98 95l-98 -95h-91zM113 770h88v-787q0 -46 -12.5 -84.5t-31 -64t-44 -45.5t-47 -30t-45.5 -18l-32 79q53 15 88.5 55t35.5 108v787z"/>
<glyph glyph-name="jcircumflex" horiz-adv-x="220" unicode="ĵ" d="M49 756h66l156 -146h-91l-98 95l-98 -95h-91zM43 550h83v-593q0 -87 -42.5 -150.5t-94.5 -81.5l-25 79q30 4 54.5 49.5t24.5 103.5v593z"/>
<glyph glyph-name="Nacute" horiz-adv-x="722" unicode="Ń" d="M447 966h104l-166 -146h-69zM172 0h-88v770h88v-1l372 -605l7 -14l-1 14v606h88v-770h-88v1l-372 607l-7 14l1 -14v-608z"/>
<glyph glyph-name="nacute" d="M385 756h104l-166 -146h-69zM168 0h-84v550h84v-106q122 118 240 118q127 0 127 -171v-391h-84v391q0 87 -43 87q-111 0 -240 -131v-347z" unicode="ń"/>
<glyph glyph-name="Ncaron" horiz-adv-x="722" unicode="Ň" d="M394 822h-66l-156 146h91l98 -95l98 95h91zM172 0h-88v770h88v-1l372 -605l7 -14l-1 14v606h88v-770h-88v1l-372 607l-7 14l1 -14v-608z"/>
<glyph glyph-name="ncaron" d="M348 605h-66l-156 146h91l98 -95l98 95h91zM168 0h-84v550h84v-106q122 118 240 118q127 0 127 -171v-391h-84v391q0 87 -43 87q-111 0 -240 -131v-347z" unicode="ň"/>
<glyph glyph-name="Obreve" horiz-adv-x="755" unicode="Ŏ" d="M220 969h61q4 -33 33.5 -59t66.5 -26t63.5 25.5t30.5 59.5h60q-8 -61 -50 -105t-104 -44t-107.5 44.5t-53.5 104.5zM380 710q-42 0 -81 -17t-74 -52.5t-56.5 -101t-21.5 -153.5q0 -89 21 -155t56.5 -101.5t73.5 -52t79 -16.5q44 0 83 16.5t73 51.5t54.5 100.5t20.5 154.5 q0 87 -20 153t-54 102t-72.5 53.5t-81.5 17.5zM380 785q47 0 89.5 -11.5t84.5 -40.5t73 -73t50 -114.5t19 -159.5q0 -113 -27 -194.5t-74 -125t-100.5 -62.5t-117.5 -19q-47 0 -90 11t-85.5 39.5t-73.5 72t-50 114.5t-19 162q0 90 19 161.5t50.5 115.5t74 72.5t86 40 t91.5 11.5z"/>
<glyph glyph-name="obreve" horiz-adv-x="586" unicode="ŏ" d="M135 750h61q4 -33 33.5 -59t66.5 -26t63.5 25.5t30.5 59.5h60q-8 -61 -50 -105t-104 -44t-107.5 44.5t-53.5 104.5zM448 275q0 108 -45.5 163t-109.5 55t-109.5 -53.5t-45.5 -164.5q0 -110 45.5 -164.5t109.5 -54.5q65 0 110 53.5t45 165.5zM54 275q0 76 20 133 t54.5 89.5t76 48.5t88.5 16t88.5 -16t76 -48.5t54.5 -90t20 -132.5q0 -76 -20 -133.5t-55 -90t-76 -48t-88 -15.5q-48 0 -88.5 15t-75.5 46.5t-55 89.5t-20 136z"/>
<glyph glyph-name="OE" horiz-adv-x="957" unicode="Œ" d="M481 87v596q-45 27 -101 27q-42 0 -81 -17t-74 -53t-57 -100q-22 -66 -21 -154q0 -89 21 -155q20 -65 56 -101t74 -52t79 -17q56 0 104 26zM918 0h-437q-68 -15 -104 -15q-47 0 -90 11q-43 12 -85 40t-74 72q-31 44 -50 114q-19 71 -19 162q0 90 19 162q18 72 50 115 q32 45 74 73t86 40t92 11q56 0 101 -15h318l105 5v-80h-335v-258h285v-76h-285v-285h244l105 5v-81z"/>
<glyph glyph-name="oe" horiz-adv-x="971" unicode="œ" d="M684 490q-52 0 -88 -38t-54 -99h279q-9 53 -41 95t-96 42zM54 275q0 76 20 133q20 58 54 90t76 48t89 16q62 0 115 -28t85 -87q31 53 81 84t110 31q58 0 102 -22t65 -52t35 -68t17 -61t3 -41v-39h-375q0 -111 42 -165t115 -54q46 0 85 20t85 77l51 -49q-57 -68 -107 -94 t-114 -26q-134 0 -198 109q-61 -109 -197 -109q-49 0 -89 15t-75 47t-55 89q-20 58 -20 136zM448 275q0 108 -46 163t-109 55q-63 1 -109 -53t-46 -165t46 -165t109 -54q65 0 110 54t45 165z"/>
<glyph glyph-name="Racute" horiz-adv-x="653" unicode="Ŕ" d="M430 967h104l-166 -146h-69zM320 397q60 1 103.5 38.5t44.5 129.5q0 64 -38 102.5t-103 38.5q-82 0 -155 -49v-260h148zM172 0h-88v770h88v-31q71 44 169 46q96 0 154.5 -59.5t58.5 -160.5q0 -108 -49.5 -164t-124.5 -72q36 -29 82 -95.5t93.5 -133.5t87.5 -98v-2h-107 q-28 22 -66 74.5t-69 101t-71.5 92t-76.5 54.5h-81v-322z"/>
<glyph glyph-name="racute" horiz-adv-x="436" unicode="ŕ" d="M316 756h104l-166 -146h-69zM84 550h84v-75q51 87 139 87q38 0 71.5 -14t47.5 -28l14 -13l-58 -56q-24 31 -71 31q-77 0 -143 -138v-344h-84v550z"/>
<glyph glyph-name="Rcaron" horiz-adv-x="653" unicode="Ř" d="M369 820h-66l-156 146h91l98 -95l98 95h91zM320 397q60 1 103.5 38.5t44.5 129.5q0 64 -38 102.5t-103 38.5q-82 0 -155 -49v-260h148zM172 0h-88v770h88v-31q71 44 169 46q96 0 154.5 -59.5t58.5 -160.5q0 -108 -49.5 -164t-124.5 -72q36 -29 82 -95.5t93.5 -133.5 t87.5 -98v-2h-107q-28 22 -66 74.5t-69 101t-71.5 92t-76.5 54.5h-81v-322z"/>
<glyph glyph-name="rcaron" horiz-adv-x="436" unicode="ř" d="M272 605h-66l-156 146h91l98 -95l98 95h91zM84 550h84v-75q51 87 139 87q38 0 71.5 -14t47.5 -28l14 -13l-58 -56q-24 31 -71 31q-77 0 -143 -138v-344h-84v550z"/>
<glyph glyph-name="Sacute" horiz-adv-x="618" unicode="Ś" d="M387 965h104l-166 -146h-69zM54 136l62 55q40 -64 89.5 -95t117.5 -31q69 0 114.5 37t45.5 106q0 27 -10.5 49t-24 36t-40.5 27t-46.5 19.5t-54.5 17.5q-53 16 -86 30t-68.5 38.5t-52.5 60.5t-17 86q0 52 16.5 92t40.5 62t56.5 36t58 18.5t50.5 4.5q134 0 215 -96 l-60 -51q-32 34 -67.5 50.5t-87.5 16.5q-21 0 -41 -5t-43 -18t-37.5 -41.5t-14.5 -68.5q0 -51 41.5 -79t120.5 -52q42 -13 70.5 -24t63 -30.5t55 -42t35 -58t14.5 -78.5q0 -107 -72 -165t-176 -58q-90 0 -154.5 37t-112.5 114z"/>
<glyph glyph-name="sacute" horiz-adv-x="502" unicode="ś" d="M314 756h104l-166 -146h-69zM156 405q0 -17 8.5 -30t27.5 -22.5t35 -15.5t43 -14q35 -10 54 -16.5t48 -21t43.5 -30.5t26 -43t11.5 -61q0 -78 -57.5 -120.5t-136.5 -42.5q-64 0 -122.5 29t-92.5 83l58 47q22 -40 66 -64t93 -25q45 0 77 24t32 69q0 27 -21 47t-42.5 28.5 t-60.5 20.5q-40 12 -64 21.5t-52.5 27.5t-42.5 45t-14 64q0 47 19 80.5t49.5 49t56.5 21.5t50 6q109 0 173 -64l-54 -52q-43 46 -119 46q-19 0 -37.5 -5.5t-36.5 -26.5t-18 -55z"/>
<glyph glyph-name="Scircumflex" horiz-adv-x="618" unicode="Ŝ" d="M276 966h66l156 -146h-91l-98 95l-98 -95h-91zM54 136l62 55q40 -64 89.5 -95t117.5 -31q69 0 114.5 37t45.5 106q0 27 -10.5 49t-24 36t-40.5 27t-46.5 19.5t-54.5 17.5q-53 16 -86 30t-68.5 38.5t-52.5 60.5t-17 86q0 52 16.5 92t40.5 62t56.5 36t58 18.5t50.5 4.5 q134 0 215 -96l-60 -51q-32 34 -67.5 50.5t-87.5 16.5q-21 0 -41 -5t-43 -18t-37.5 -41.5t-14.5 -68.5q0 -51 41.5 -79t120.5 -52q42 -13 70.5 -24t63 -30.5t55 -42t35 -58t14.5 -78.5q0 -107 -72 -165t-176 -58q-90 0 -154.5 37t-112.5 114z"/>
<glyph glyph-name="scircumflex" horiz-adv-x="502" unicode="ŝ" d="M218 756h66l156 -146h-91l-98 95l-98 -95h-91zM156 405q0 -17 8.5 -30t27.5 -22.5t35 -15.5t43 -14q35 -10 54 -16.5t48 -21t43.5 -30.5t26 -43t11.5 -61q0 -78 -57.5 -120.5t-136.5 -42.5q-64 0 -122.5 29t-92.5 83l58 47q22 -40 66 -64t93 -25q45 0 77 24t32 69 q0 27 -21 47t-42.5 28.5t-60.5 20.5q-40 12 -64 21.5t-52.5 27.5t-42.5 45t-14 64q0 47 19 80.5t49.5 49t56.5 21.5t50 6q109 0 173 -64l-54 -52q-43 46 -119 46q-19 0 -37.5 -5.5t-36.5 -26.5t-18 -55z"/>
<glyph glyph-name="Scaron" horiz-adv-x="618" unicode="Š" d="M342 820h-66l-156 146h91l98 -95l98 95h91zM54 136l62 55q40 -64 89.5 -95t117.5 -31q69 0 114.5 37t45.5 106q0 27 -10.5 49t-24 36t-40.5 27t-46.5 19.5t-54.5 17.5q-53 16 -86 30t-68.5 38.5t-52.5 60.5t-17 86q0 52 16.5 92t40.5 62t56.5 36t58 18.5t50.5 4.5 q134 0 215 -96l-60 -51q-32 34 -67.5 50.5t-87.5 16.5q-21 0 -41 -5t-43 -18t-37.5 -41.5t-14.5 -68.5q0 -51 41.5 -79t120.5 -52q42 -13 70.5 -24t63 -30.5t55 -42t35 -58t14.5 -78.5q0 -107 -72 -165t-176 -58q-90 0 -154.5 37t-112.5 114z"/>
<glyph glyph-name="scaron" horiz-adv-x="502" unicode="š" d="M284 605h-66l-156 146h91l98 -95l98 95h91zM156 405q0 -17 8.5 -30t27.5 -22.5t35 -15.5t43 -14q35 -10 54 -16.5t48 -21t43.5 -30.5t26 -43t11.5 -61q0 -78 -57.5 -120.5t-136.5 -42.5q-64 0 -122.5 29t-92.5 83l58 47q22 -40 66 -64t93 -25q45 0 77 24t32 69 q0 27 -21 47t-42.5 28.5t-60.5 20.5q-40 12 -64 21.5t-52.5 27.5t-42.5 45t-14 64q0 47 19 80.5t49.5 49t56.5 21.5t50 6q109 0 173 -64l-54 -52q-43 46 -119 46q-19 0 -37.5 -5.5t-36.5 -26.5t-18 -55z"/>
<glyph glyph-name="Tcaron" horiz-adv-x="556" unicode="Ť" d="M311 820h-66l-156 146h91l98 -95l98 95h91zM7 694v76h542v-76h-229v-694h-88v694h-225z"/>
<glyph glyph-name="Utilde" horiz-adv-x="683" unicode="Ũ" d="M599 239q0 -64 -19.5 -112t-46.5 -74t-65 -41.5t-66.5 -19.5t-59.5 -4t-60 4.5t-66.5 20t-65 41.5t-47 73.5t-19.5 111.5v531h88v-529q0 -44 12.5 -77.5t30.5 -51.5t43 -29.5t44.5 -14.5t39.5 -3t39.5 3.5t43.5 15t42.5 29.5t31 51t12.5 75v531h88v-531zM521 913l25 -50 q-5 -6 -14 -15t-39 -23.5t-61 -14.5q-33 0 -96 24q-61 23 -86 23t-47 -9.5t-32 -18.5l-9 -10l-25 50q5 6 14 15t39 23.5t61 14.5q37 0 96 -24q56 -23 86 -23q26 0 48 9.5t31 18.5z"/>
<glyph glyph-name="utilde" d="M196 69q112 0 240 133v348h84v-550h-84v97q-50 -48 -113.5 -78.5t-126.5 -30.5q-127 0 -127 171v391h84v-391q0 -90 43 -90zM481 717l25 -50q-5 -6 -14 -15t-39 -23.5t-61 -14.5q-33 0 -96 24q-61 23 -86 23t-47 -9.5t-32 -18.5l-9 -10l-25 50q5 6 14 15t39 23.5t61 14.5 q37 0 96 -24q56 -23 86 -23q26 0 48 9.5t31 18.5z" unicode="ũ"/>
<glyph glyph-name="Ubreve" horiz-adv-x="683" unicode="Ŭ" d="M187 969h61q4 -33 33.5 -59t66.5 -26t63.5 25.5t30.5 59.5h60q-8 -61 -50 -105t-104 -44t-107.5 44.5t-53.5 104.5zM599 239q0 -64 -19.5 -112t-46.5 -74t-65 -41.5t-66.5 -19.5t-59.5 -4t-60 4.5t-66.5 20t-65 41.5t-47 73.5t-19.5 111.5v531h88v-529q0 -44 12.5 -77.5 t30.5 -51.5t43 -29.5t44.5 -14.5t39.5 -3t39.5 3.5t43.5 15t42.5 29.5t31 51t12.5 75v531h88v-531z"/>
<glyph glyph-name="ubreve" d="M144 750h61q4 -33 33.5 -59t66.5 -26t63.5 25.5t30.5 59.5h60q-8 -61 -50 -105t-104 -44t-107.5 44.5t-53.5 104.5zM196 69q112 0 240 133v348h84v-550h-84v97q-50 -48 -113.5 -78.5t-126.5 -30.5q-127 0 -127 171v391h84v-391q0 -90 43 -90z" unicode="ŭ"/>
<glyph glyph-name="Uring" horiz-adv-x="683" unicode="Ů" d="M295 916q0 -19 14 -33.5t34 -14.5q17 0 31 14.5t14 33.5q0 17 -14 31t-31 14q-19 0 -33.5 -14t-14.5 -31zM343 820q-40 0 -68 28t-28 68q0 38 28 65t68 27q38 0 65 -27t27 -65q0 -40 -27 -68t-65 -28zM599 239q0 -64 -19.5 -112t-46.5 -74t-65 -41.5t-66.5 -19.5 t-59.5 -4t-60 4.5t-66.5 20t-65 41.5t-47 73.5t-19.5 111.5v531h88v-529q0 -44 12.5 -77.5t30.5 -51.5t43 -29.5t44.5 -14.5t39.5 -3t39.5 3.5t43.5 15t42.5 29.5t31 51t12.5 75v531h88v-531z"/>
<glyph glyph-name="uring" d="M256 693q0 -19 14 -33.5t34 -14.5q17 0 31 14.5t14 33.5q0 17 -14 31t-31 14q-19 0 -33.5 -14t-14.5 -31zM304 597q-40 0 -68 28t-28 68q0 38 28 65t68 27q38 0 65 -27t27 -65q0 -40 -27 -68t-65 -28zM196 69q112 0 240 133v348h84v-550h-84v97q-50 -48 -113.5 -78.5 t-126.5 -30.5q-127 0 -127 171v391h84v-391q0 -90 43 -90z" unicode="ů"/>
<glyph glyph-name="Uogonek" horiz-adv-x="683" unicode="Ų" d="M294 -69q0 27 20 57t40 46l20 17l32 -20q-7 -4 -16.5 -12.5t-26 -34t-16.5 -51.5q0 -17 13 -26t29 -9q33 0 55 27l40 -36q-40 -45 -95 -45q-36 0 -65.5 23t-29.5 64zM599 239q0 -64 -19.5 -112t-46.5 -74t-65 -41.5t-66.5 -19.5t-59.5 -4t-60 4.5t-66.5 20t-65 41.5 t-47 73.5t-19.5 111.5v531h88v-529q0 -44 12.5 -77.5t30.5 -51.5t43 -29.5t44.5 -14.5t39.5 -3t39.5 3.5t43.5 15t42.5 29.5t31 51t12.5 75v531h88v-531z"/>
<glyph glyph-name="uogonek" d="M384 -69q0 27 20 57t40 46l20 17l32 -20q-7 -4 -16.5 -12.5t-26 -34t-16.5 -51.5q0 -17 13 -26t29 -9q33 0 55 27l40 -36q-40 -45 -95 -45q-36 0 -65.5 23t-29.5 64zM196 69q112 0 240 133v348h84v-550h-84v97q-50 -48 -113.5 -78.5t-126.5 -30.5q-127 0 -127 171v391h84 v-391q0 -90 43 -90z" unicode="ų"/>
<glyph glyph-name="Wcircumflex" horiz-adv-x="976" unicode="Ŵ" d="M455 963h66l156 -146h-91l-98 95l-98 -95h-91zM316 0h-73l-218 770h90l162 -610l2 -12l2 12l160 610h93l160 -612l2 -12l2 12l162 612h91l-218 -770h-73l-170 594l-3 18l-3 -18z"/>
<glyph glyph-name="wcircumflex" horiz-adv-x="777" unicode="ŵ" d="M355 756h66l156 -146h-91l-98 95l-98 -95h-91zM263 0h-79l-159 550h91l109 -410l3 -21l3 21l117 410h72l117 -410l4 -21l3 21q106 399 126 410h82q-12 -12 -55.5 -149.5t-80.5 -268.5l-38 -132h-71l-123 424z"/>
<glyph glyph-name="Ycircumflex" horiz-adv-x="615" unicode="Ŷ" d="M275 967h66l156 -146h-91l-98 95l-98 -95h-91zM507 770h99l-254 -401v-369h-87v369l-256 401h103l197 -309z"/>
<glyph glyph-name="ycircumflex" horiz-adv-x="513" unicode="ŷ" d="M223 756h66l156 -146h-91l-98 95l-98 -95h-91zM16 550h89l149 -386q150 368 172 386h95q-22 -21 -63.5 -113.5t-197.5 -475.5q-17 -41 -27 -64t-30.5 -55.5t-44.5 -55.5q-58 -56 -142 -61l-21 73q67 4 106 43q19 19 36 48t44 94l27 67z"/>
<glyph glyph-name="Ydieresis" horiz-adv-x="615" unicode="Ÿ" d="M356 877q0 22 15 36.5t37 14.5t36.5 -14.5t14.5 -36.5q0 -23 -14.5 -37.5t-36.5 -14.5t-37 15t-15 37zM155 877q0 22 15 36.5t37 14.5t36.5 -14.5t14.5 -36.5t-14.5 -37t-36.5 -15t-37 15t-15 37zM507 770h99l-254 -401v-369h-87v369l-256 401h103l197 -309z"/>
<glyph glyph-name="Zacute" horiz-adv-x="611" unicode="Ź" d="M404 964h104l-166 -146h-69zM562 98v-83q-12 -7 -41.5 -10.5t-52.5 -4.5h-24h-395v82l385 606h-375v82h482v-80l-385 -608h290q72 0 116 16z"/>
<glyph glyph-name="zacute" horiz-adv-x="516" unicode="ź" d="M347 756h104l-166 -146h-69zM477 88v-71q-6 -7 -24 -11t-33 -5l-15 -1h-356v71l310 409h-310v70h411v-70l-310 -409h256q55 0 71 17z"/>
<glyph glyph-name="Zcaron" horiz-adv-x="611" unicode="Ž" d="M361 821h-66l-156 146h91l98 -95l98 95h91zM562 98v-83q-12 -7 -41.5 -10.5t-52.5 -4.5h-24h-395v82l385 606h-375v82h482v-80l-385 -608h290q72 0 116 16z"/>
<glyph glyph-name="zcaron" horiz-adv-x="516" unicode="ž" d="M291 605h-66l-156 146h91l98 -95l98 95h91zM477 88v-71q-6 -7 -24 -11t-33 -5l-15 -1h-356v71l310 409h-310v70h411v-70l-310 -409h256q55 0 71 17z"/>
<glyph glyph-name="AEacute" horiz-adv-x="978" unicode="Ǽ" d="M631 966h104l-166 -146h-69zM502 683l-193 -345h193v345zM939 0h-437v262h-235l-146 -262h-97l425 770h371l105 5v-80h-335v-258h285v-76h-285v-285h244l105 5v-81z"/>
<glyph glyph-name="aeacute" horiz-adv-x="896" unicode="ǽ" d="M537 756h104l-166 -146h-69zM610 490q-53 0 -88.5 -37.5t-53.5 -99.5h279q-9 54 -41.5 95.5t-95.5 41.5zM97 406l-33 68q149 87 264 87q86 0 118 -76q64 77 164 77q58 0 101.5 -22t65.5 -52t35.5 -68t16.5 -61t3 -41v-39h-375v-16q0 -93 41 -148t116 -55q49 0 89.5 21.5 t80.5 75.5l51 -49q-57 -68 -105.5 -94t-115.5 -26q-130 0 -195 106q-40 -46 -95.5 -76t-114.5 -30q-10 0 -24.5 2t-39 11t-43.5 24t-33.5 44.5t-14.5 68.5q0 66 42 114.5t156 65.5q84 12 126 22v63q0 16 -3 31t-18 32t-41 17q-38 0 -92.5 -19.5t-90.5 -38.5zM209 58 q47 0 96.5 24.5t85.5 68.5l-1 6q-13 44 -13 109q-31 -7 -116 -18q-73 -9 -99 -38.5t-26 -71.5q0 -31 15.5 -50.5t30 -24.5t27.5 -5z"/>
<glyph glyph-name="dotlessj" horiz-adv-x="220" unicode="ȷ" d="M43 550h83v-593q0 -87 -42.5 -150.5t-94.5 -81.5l-25 79q30 4 54.5 49.5t24.5 103.5v593z"/>
<glyph glyph-name="circumflex" horiz-adv-x="496" unicode="ˆ" d="M215 756h66l156 -146h-91l-98 95l-98 -95h-91z"/>
<glyph glyph-name="caron" horiz-adv-x="496" unicode="ˇ" d="M281 605h-66l-156 146h91l98 -95l98 95h91z"/>
<glyph glyph-name="uni02CA" horiz-adv-x="353" unicode="ˊ" d="M190 756h104l-166 -146h-69z"/>
<glyph glyph-name="uni02CB" horiz-adv-x="353" unicode="ˋ" d="M59 756h104l131 -146h-69z"/>
<glyph glyph-name="breve" horiz-adv-x="433" unicode="˘" d="M59 750h61q4 -33 33.5 -59t66.5 -26t63.5 25.5t30.5 59.5h60q-8 -61 -50 -105t-104 -44t-107.5 44.5t-53.5 104.5z"/>
<glyph glyph-name="dotaccent" horiz-adv-x="191" unicode="˙" d="M44 719q0 22 15 36.5t37 14.5t36.5 -14.5t14.5 -36.5t-14.5 -37t-36.5 -15t-37 14.5t-15 37.5z"/>
<glyph glyph-name="ring" horiz-adv-x="316" unicode="˚" d="M112 693q0 -19 14 -33.5t34 -14.5q17 0 31 14.5t14 33.5q0 17 -14 31t-31 14q-19 0 -33.5 -14t-14.5 -31zM160 597q-40 0 -68 28t-28 68q0 38 28 65t68 27q38 0 65 -27t27 -65q0 -40 -27 -68t-65 -28z"/>
<glyph glyph-name="ogonek" horiz-adv-x="318" unicode="˛" d="M64 -69q0 27 20 57t40 46l20 17l32 -20q-7 -4 -16.5 -12.5t-26 -34t-16.5 -51.5q0 -17 13 -26t29 -9q33 0 55 27l40 -36q-40 -45 -95 -45q-36 0 -65.5 23t-29.5 64z"/>
<glyph glyph-name="tilde" horiz-adv-x="537" unicode="˜" d="M448 718l25 -50q-5 -6 -14 -15t-39 -23.5t-61 -14.5q-33 0 -96 24q-61 23 -86 23t-47 -9.5t-32 -18.5l-9 -10l-25 50q5 6 14 15t39 23.5t61 14.5q37 0 96 -24q56 -23 86 -23q26 0 48 9.5t31 18.5z"/>
<glyph glyph-name="hungarumlaut" horiz-adv-x="491" unicode="˝" d="M328 756h104l-166 -146h-69zM190 756h104l-166 -146h-69z"/>
<glyph glyph-name="Wgrave" horiz-adv-x="976" unicode="Ẁ" d="M297 965h104l131 -146h-69zM316 0h-73l-218 770h90l162 -610l2 -12l2 12l160 610h93l160 -612l2 -12l2 12l162 612h91l-218 -770h-73l-170 594l-3 18l-3 -18z"/>
<glyph glyph-name="wgrave" horiz-adv-x="777" unicode="ẁ" d="M188 756h104l131 -146h-69zM263 0h-79l-159 550h91l109 -410l3 -21l3 21l117 410h72l117 -410l4 -21l3 21q106 399 126 410h82q-12 -12 -55.5 -149.5t-80.5 -268.5l-38 -132h-71l-123 424z"/>
<glyph glyph-name="Wacute" horiz-adv-x="976" unicode="Ẃ" d="M576 966h104l-166 -146h-69zM316 0h-73l-218 770h90l162 -610l2 -12l2 12l160 610h93l160 -612l2 -12l2 12l162 612h91l-218 -770h-73l-170 594l-3 18l-3 -18z"/>
<glyph glyph-name="wacute" horiz-adv-x="777" unicode="ẃ" d="M474 756h104l-166 -146h-69zM263 0h-79l-159 550h91l109 -410l3 -21l3 21l117 410h72l117 -410l4 -21l3 21q106 399 126 410h82q-12 -12 -55.5 -149.5t-80.5 -268.5l-38 -132h-71l-123 424z"/>
<glyph glyph-name="Wdieresis" horiz-adv-x="976" unicode="Ẅ" d="M537 872q0 22 15 36.5t37 14.5t36.5 -14.5t14.5 -36.5q0 -23 -14.5 -37.5t-36.5 -14.5t-37 15t-15 37zM336 872q0 22 15 36.5t37 14.5t36.5 -14.5t14.5 -36.5t-14.5 -37t-36.5 -15t-37 15t-15 37zM316 0h-73l-218 770h90l162 -610l2 -12l2 12l160 610h93l160 -612l2 -12 l2 12l162 612h91l-218 -770h-73l-170 594l-3 18l-3 -18z"/>
<glyph glyph-name="wdieresis" horiz-adv-x="777" unicode="ẅ" d="M437 662q0 22 15 36.5t37 14.5t36.5 -14.5t14.5 -36.5q0 -23 -14.5 -37.5t-36.5 -14.5t-37 15t-15 37zM236 662q0 22 15 36.5t37 14.5t36.5 -14.5t14.5 -36.5t-14.5 -37t-36.5 -15t-37 15t-15 37zM263 0h-79l-159 550h91l109 -410l3 -21l3 21l117 410h72l117 -410l4 -21 l3 21q106 399 126 410h82q-12 -12 -55.5 -149.5t-80.5 -268.5l-38 -132h-71l-123 424z"/>
<glyph glyph-name="Ygrave" horiz-adv-x="615" unicode="Ỳ" d="M126 965h104l131 -146h-69zM507 770h99l-254 -401v-369h-87v369l-256 401h103l197 -309z"/>
<glyph glyph-name="ygrave" horiz-adv-x="513" unicode="ỳ" d="M79 756h104l131 -146h-69zM16 550h89l149 -386q150 368 172 386h95q-22 -21 -63.5 -113.5t-197.5 -475.5q-17 -41 -27 -64t-30.5 -55.5t-44.5 -55.5q-58 -56 -142 -61l-21 73q67 4 106 43q19 19 36 48t44 94l27 67z"/>
<glyph glyph-name="endash" horiz-adv-x="659" unicode="–" d="M605 308v-65h-551v65h551z"/>
<glyph glyph-name="emdash" horiz-adv-x="789" unicode="—" d="M735 308v-65h-681v65h681z"/>
<glyph glyph-name="quoteleft" horiz-adv-x="205" unicode="‘" d="M161 592q0 -24 -16 -40t-40 -15q-31 1 -46 23t-15 59q0 85 69 170l46 -25q-49 -61 -58 -116q27 0 43 -16t17 -40z"/>
<glyph glyph-name="quoteright" horiz-adv-x="205" unicode="’" d="M44 714q0 24 16 40t40 15q31 -1 46 -23t15 -59q0 -85 -69 -170l-46 25q49 61 58 116q-28 0 -44 16t-16 40z"/>
<glyph glyph-name="quotedblleft" horiz-adv-x="376" unicode="“" d="M332 592q0 -24 -16 -40t-40 -15q-31 1 -46 23t-15 59q0 85 69 170l46 -25q-49 -61 -58 -116q28 0 44 -16t16 -40zM161 592q0 -24 -16 -40t-40 -15q-31 1 -46 23t-15 59q0 85 69 170l46 -25q-49 -61 -58 -116q27 0 43 -16t17 -40z"/>
<glyph glyph-name="quotedblright" horiz-adv-x="376" unicode="”" d="M44 714q0 24 16 40t40 15q31 -1 46 -23t15 -59q0 -85 -69 -170l-46 25q49 61 58 116q-28 0 -44 16t-16 40zM215 714q0 24 16 40t40 15q31 -1 46 -23t15 -59q0 -85 -69 -170l-46 25q49 61 58 116q-27 0 -43 16t-17 40z"/>
<glyph glyph-name="bullet" horiz-adv-x="338" unicode="•" d="M54 238q0 49 34 81t83 32t81 -32t32 -81q0 -50 -32 -84t-81 -33q-49 -1 -83 33t-34 84z"/>
<glyph glyph-name="ellipsis" horiz-adv-x="614" unicode="…" d="M446 56q0 26 18 44t45 17q25 1 43 -17t18 -44q0 -27 -18 -45t-43 -18q-27 0 -45 18t-18 45zM245 56q0 26 18 44t45 17q26 1 44 -17t17 -44q1 -27 -17 -45t-44 -18q-27 0 -45 18t-18 45zM44 56q0 26 18 44t45 17q25 1 43 -17t18 -44q0 -27 -18 -45t-43 -18q-27 0 -45 18 t-18 45z"/>
<glyph glyph-name="trademark" horiz-adv-x="850" unicode="™" d="M54 693v57h317v-57h-123v-302h-71v302h-123zM471 391h-70v359h68l123 -268l8 -30l8 30l120 268h68v-359h-71v244l-8 -32l-85 -212h-66l-87 212l-8 32v-244z"/>
<glyph glyph-name="minus" horiz-adv-x="658" unicode="−" d="M604 309v-67h-550v67h550z"/>
<glyph glyph-name="zero.lnum" d="M530 375q0 161 -52 237t-138 76t-140 -77t-53 -236q0 -157 55 -233t138 -76q82 0 136 76t54 233zM59 375q0 107 23 185q24 78 64 122q40 43 88 63t106 20q57 0 105 -20t88 -63q41 -44 63 -122t22 -185t-22 -185t-63 -122q-40 -43 -88 -63t-105 -20q-58 0 -106 20t-88 63 q-40 44 -64 122q-23 78 -23 185z" horiz-adv-x="677"/>
<glyph glyph-name="one.lnum" d="M281 0h-89v655l-89 -75l-54 62l143 108h89v-750z" horiz-adv-x="363"/>
<glyph glyph-name="two.lnum" d="M114 589q-54 54 -54 55q72 120 200 121q89 0 146 -50t57 -136q0 -128 -298 -503h317v-76h-433v64q13 15 35 41t80 98q56 72 100 134q44 61 80 131t36 109q0 51 -36 81t-85 30q-27 0 -52 -10t-41 -25t-28 -29t-18 -25z" horiz-adv-x="536"/>
<glyph glyph-name="three.lnum" d="M102 617l-47 46q3 4 7 11q4 6 20 24t34 32t49 24q31 11 65 11q68 -1 118 -45t50 -112q0 -73 -88 -143q72 -9 124 -61t51 -127q1 -72 -27 -130t-72 -92t-92 -52t-95 -18q-41 0 -83 15t-62 30l-20 16l53 50q38 -31 112 -31q33 0 67 13q34 14 66 38t51 66q20 42 20 95 q-1 47 -37 84t-84 37q-32 0 -67 -6t-55 -12l-19 -7v68q175 66 175 167q0 34 -25 56t-60 22q-27 0 -49 -7t-36 -17t-24 -20t-16 -18z" horiz-adv-x="543"/>
<glyph glyph-name="four.lnum" d="M163 260h235v336l-240 -325l-14 -14v-1zM592 260v-76h-105v-184h-89v184h-364v47l392 519h61v-490h105z" horiz-adv-x="621"/>
<glyph glyph-name="five.lnum" d="M178 675v-196q58 26 111 26q116 -1 180 -63t64 -162q0 -150 -69 -222t-186 -73q-37 0 -72 9q-34 10 -58 22t-42 24t-28 22l-9 9l48 59q9 -8 23 -20t56 -32t82 -19q78 1 126 55t48 164q0 58 -43 106t-120 48q-80 0 -133 -36h-66v354h386v-75h-298z" horiz-adv-x="596"/>
<glyph glyph-name="six.lnum" d="M316 58q40 0 71 18t47 48q16 28 24 57t8 56q0 79 -35 115t-91 35q-111 0 -187 -162q16 -79 58 -123t105 -44zM340 461q93 1 151 -53t58 -171q0 -30 -7 -62q-6 -33 -24 -67t-44 -61t-66 -45q-41 -18 -92 -17q-121 -1 -187 93t-66 266q0 112 36 208q35 96 101 155 q66 58 146 58q91 0 172 -65l-53 -55q-48 41 -115 41q-54 0 -96 -36t-65 -92t-35 -114t-12 -113q84 130 198 130z" horiz-adv-x="608"/>
<glyph glyph-name="seven.lnum" d="M45 667v83h432v-59q-92 -193 -227 -433t-189 -264l-57 53q42 26 164 235t207 385h-330z" horiz-adv-x="506"/>
<glyph glyph-name="eight.lnum" d="M287 431q19 9 37 23t40 36t37 50q14 30 14 61q0 53 -36 76t-89 23q-52 0 -88 -23t-37 -76q-1 -43 31 -83t91 -87zM435 164q-1 41 -43 85t-120 101q-127 -81 -127 -186q-1 -60 43 -84t102 -25q58 1 102 25t43 84zM499 601q1 -68 -47 -123t-106 -90q80 -58 126 -110 t46 -114q0 -93 -64 -136t-164 -43t-163 43t-63 136q0 70 46 129t107 96q-134 107 -134 212q0 85 61 125t146 39q38 -1 74 -9t67 -26t49 -52t19 -77z" horiz-adv-x="582"/>
<glyph glyph-name="nine.lnum" d="M292 692q-40 0 -71 -18t-47 -48q-16 -28 -24 -57t-8 -56q0 -79 35 -115t91 -35q111 0 187 162q-16 79 -58 123t-105 44zM268 289q-93 -1 -151 53t-58 171q0 30 7 62q6 33 24 67t44 61t66 45q41 18 92 17q121 1 187 -93t66 -266q0 -112 -36 -208q-35 -96 -101 -155 q-66 -58 -146 -58q-91 0 -172 65l53 55q48 -41 115 -41q54 0 96 36t65 92t35 114t12 113q-84 -130 -198 -130z" horiz-adv-x="608"/>
</font>
</defs>
</svg>
