<?xml version="1.0" encoding="UTF-8" standalone="no"?>
<!DOCTYPE svg  PUBLIC '-//W3C//DTD SVG 1.1//EN'  'http://www.w3.org/Graphics/SVG/1.1/DTD/svg11.dtd'>
<svg xmlns="http://www.w3.org/2000/svg">
<defs>
<font id="Ambivium-Bold" horiz-adv-x="609">
<font-face underline-position="-100" font-weight="700" descent="-200" panose-1="2 11 8 3 0 0 0 2 0 4" units-per-em="1000" unicode-range="U+0020-FB04" bbox="-117 -267 1003 1012" x-height="550" underline-thickness="50" font-family="Ambivium" ascent="800" cap-height="770"/>
<missing-glyph horiz-adv-x="260"/>
<glyph glyph-name="ff" horiz-adv-x="657" unicode="ff" d="M212 622v-72h120v72q0 30 5 53q-54 31 -86 31q-17 0 -26 -12t-11 -28q-2 -15 -2 -44zM466 622v-72h151v-101h-151v-449h-134v449h-120v-449h-134v449h-66v101h66v72q0 185 173 185q62 0 134 -38q47 38 120 38q37 -1 87 -19t80 -37l30 -19l-77 -77q-82 51 -120 51 q-13 0 -21 -6t-12 -19q-4 -14 -5 -25t-1 -34z"/>
<glyph glyph-name="fi" horiz-adv-x="585" unicode="fi" d="M214 622v-72h290v-550h-134v449h-156v-449h-134v449h-67v101h67v72q0 85 44 135t135 50q47 0 107 -25t96 -50l35 -25l-77 -77q-109 76 -160 76q-27 0 -36 -22t-10 -62z"/>
<glyph glyph-name="fl" horiz-adv-x="622" unicode="fl" d="M215 622v-72h152v-101h-152v-449h-134v449h-66v101h66v72q0 185 173 185q49 0 127 -35v31h133v-649q0 -45 4 -49q13 -14 69 -14l-4 -102q-124 0 -161 37q-41 41 -41 128v496q-96 56 -127 56q-17 0 -26 -12q-8 -12 -10 -28q-2 -15 -3 -44z"/>
<glyph glyph-name="f_f_i" horiz-adv-x="856" unicode="ffi" d="M218 622v-72h120v72q0 31 4 54q-55 30 -85 30q-17 0 -26 -12t-11 -28q-2 -15 -2 -44zM471 622v-72h290v-550h-133v449h-157v-449h-133v449h-120v-449h-134v449h-66v101h66v72q0 185 173 185q58 0 138 -39q44 39 122 39q47 0 107 -25t96 -50l35 -25l-77 -77 q-109 76 -160 76q-26 0 -36 -22t-11 -62z"/>
<glyph glyph-name="f_f_l" horiz-adv-x="893" unicode="ffl" d="M473 622v-72h151v-101h-151v-449h-134v449h-120v-449h-133v449h-67v101h67v72q0 185 173 185q61 0 133 -38q48 38 120 38q50 0 126 -35v31h134v-649q0 -45 4 -49q13 -14 69 -14l-5 -102q-123 0 -160 37q-42 41 -42 128v496q-91 56 -126 56q-17 0 -26 -12q-8 -12 -10 -28 q-2 -15 -3 -44zM219 622v-72h120v72q0 30 5 53q-54 31 -85 31q-17 0 -27 -12t-10 -28q-2 -15 -3 -44z"/>
<glyph glyph-name="fj" horiz-adv-x="585" unicode="fj" d="M214 622v-72h290v-572q0 -87 -55 -154t-122 -91l-36 115q31 4 55 43t24 87v471h-156v-449h-134v449h-67v101h67v72q0 85 44 135t135 50q47 0 107 -25t96 -50l35 -25l-77 -77q-109 76 -160 76q-27 0 -36 -22t-10 -62z"/>
<glyph glyph-name=".notdef" horiz-adv-x="260"/>
<glyph glyph-name=".null" horiz-adv-x="0"/>
<glyph glyph-name="nonmarkingreturn" horiz-adv-x="333"/>
<glyph glyph-name="space" horiz-adv-x="260" unicode=" "/>
<glyph glyph-name="exclam" horiz-adv-x="297" unicode="!" d="M58 71q0 33 26 55t63 22t61 -22t25 -55q-1 -33 -25 -55t-61 -23q-37 1 -63 23t-26 55zM208 195h-126l-13 623h152z"/>
<glyph glyph-name="quotedbl" horiz-adv-x="381" unicode='&quot;' d="M1 699q-1 31 23 51t59 19q44 -1 65 -27t21 -69q0 -74 -85 -180l-78 47q36 43 49 92q-54 14 -54 67zM204 699q0 31 24 51t58 19q44 -1 65 -27t21 -69q0 -74 -85 -180l-78 47q36 43 49 92q-54 14 -54 67z"/>
<glyph glyph-name="numbersign" horiz-adv-x="828" unicode="#" d="M360 465l-34 -132h111l33 132h-110zM70 465l24 105h163l50 200h127l-50 -200h111l50 200h127l-49 -200h169l-24 -105h-170l-34 -132h176l-24 -105h-176l-57 -228h-126l55 228h-111l-56 -228h-127l56 228h-157l24 105h157l34 132h-162z"/>
<glyph glyph-name="dollar" horiz-adv-x="623" unicode="$" d="M200 563q0 -47 50 -75v172q-50 -27 -50 -97zM442 213q0 66 -70 101v-209q70 29 70 108zM250 -64v54q-139 29 -220 158l98 87q61 -100 122 -127v247q-92 33 -140 79t-49 130q-1 54 17 96t48 66t60 37t64 18v58h122v-60q95 -19 166 -104l-92 -79q-49 50 -74 63v-215 q46 -16 80 -34t64 -44q32 -28 48 -66t17 -87q0 -95 -58 -153t-151 -72v-52h-122z"/>
<glyph glyph-name="percent" horiz-adv-x="1006" unicode="%" d="M761 322q-70 0 -70 -118q0 -119 71 -119q32 0 51 25t20 92q1 68 -19 94t-53 26zM553 204q1 60 19 104t50 68t66 34q34 11 73 11q40 -1 75 -11q34 -10 66 -34t50 -68t19 -106q-1 -60 -19 -104t-50 -68t-66 -34q-35 -10 -74 -10q-40 0 -74 10t-66 34t-50 68t-19 106z M221 679q-70 0 -70 -118q0 -119 71 -119q70 0 71 117q1 69 -19 95t-53 25zM701 812h153l-576 -857h-154zM12 561q0 61 18 105t51 68t67 34q34 11 73 11q40 -1 75 -11q34 -10 66 -34t50 -68t19 -107q-1 -60 -19 -104q-18 -43 -50 -67t-66 -34t-74 -11q-39 0 -74 11 q-34 10 -66 34t-51 68t-19 105z"/>
<glyph glyph-name="ampersand" horiz-adv-x="889" unicode="&amp;" d="M432 596q0 42 -26 60t-64 19q-39 -1 -66 -19t-27 -60q0 -34 69 -111q54 28 84 54t30 57zM292 330l-15 15q-99 -58 -99 -136q0 -48 46 -75t85 -27q81 0 143 55q-83 83 -160 168zM41 209q0 69 43 120t118 95q-90 104 -90 172q0 46 20 82t55 55q34 19 73 28t82 9q44 0 82 -9 t72 -28t54 -55t19 -82q-1 -57 -47 -101t-130 -89q60 -67 133 -143q29 53 73 148l109 -54q-52 -116 -94 -185q59 -65 72 -65q11 0 21 15t26 52l104 -59q-53 -122 -134 -122q-64 0 -162 84q-91 -84 -231 -84q-45 0 -89 12t-86 36t-67 68q-26 44 -26 100z"/>
<glyph glyph-name="quotesingle" horiz-adv-x="210" unicode="&apos;" d="M19 699q-1 31 23 51t59 20q44 0 65 -26t21 -70q0 -74 -85 -180l-78 47q36 43 49 92q-54 14 -54 66z"/>
<glyph glyph-name="parenleft" horiz-adv-x="341" unicode="(" d="M321 773l8 -98q-45 -17 -78 -67t-49 -116t-23 -124t-7 -108t7 -108t23 -124t49 -116t78 -65l-8 -99q-65 7 -117 49t-82 100q-32 59 -52 129t-28 128t-7 106q-1 48 7 106t29 130t51 130t83 100q52 42 116 47z"/>
<glyph glyph-name="parenright" horiz-adv-x="341" unicode=")" d="M5 675l8 98q64 -5 116 -47q53 -42 83 -100t51 -130t29 -130t7 -106q1 -48 -7 -106t-28 -128t-52 -129q-30 -58 -82 -100t-117 -49l-8 99q45 15 78 65t49 116t23 124t7 108t-7 108t-23 124t-49 116t-78 67z"/>
<glyph glyph-name="asterisk" horiz-adv-x="621" unicode="*" d="M24 550l38 99l182 -73l-2 194h124l-2 -193l182 72l38 -99l-192 -75l133 -147l-94 -79l-127 158l-127 -157l-96 77l133 149z"/>
<glyph glyph-name="plus" horiz-adv-x="653" unicode="+" d="M375 0h-121v231h-225v100h225v229h121v-229h235v-100h-235v-231z"/>
<glyph glyph-name="comma" horiz-adv-x="205" unicode="," d="M14 65q0 31 24 51t58 19q44 -1 65 -27t21 -69q0 -74 -85 -180l-78 47q37 45 49 92q-54 15 -54 67z"/>
<glyph glyph-name="hyphen" horiz-adv-x="349" unicode="-" d="M312 332v-103h-282v103h282z"/>
<glyph glyph-name="period" horiz-adv-x="210" unicode="." d="M24 69q0 32 22 52t59 20q35 0 56 -20t21 -52q0 -33 -21 -55t-56 -21q-37 0 -59 21t-22 55z"/>
<glyph glyph-name="slash" horiz-adv-x="357" unicode="/" d="M222 770h137l-231 -770h-137z"/>
<glyph glyph-name="zero" horiz-adv-x="615" unicode="0" d="M427 284q-1 100 -37 146t-89 46t-89 -46t-37 -146q1 -100 37 -146t89 -46t89 46t37 146zM38 284q0 82 23 142t62 94q39 32 83 47t95 15t95 -15t83 -47t62 -94q23 -60 23 -142t-23 -142t-62 -94q-39 -32 -83 -47t-95 -15t-95 15t-83 47t-62 94q-23 60 -23 142z"/>
<glyph glyph-name="one" horiz-adv-x="368" unicode="1" d="M303 0h-142v412l-59 -50l-82 94l157 119h126v-575z"/>
<glyph glyph-name="two" horiz-adv-x="541" unicode="2" d="M142 393l-17 -34q-89 89 -89 97q77 129 219 130q97 0 153 -50t57 -141q-1 -69 -67 -147t-150 -139h249v-109h-470v97q301 213 301 309q0 34 -22 52t-52 18q-32 0 -60 -21t-40 -41z"/>
<glyph glyph-name="three" horiz-adv-x="548" unicode="3" d="M114 386l-83 82q2 5 7 13t23 28q18 19 39 35q22 16 56 28t72 13q78 1 134 -47t55 -121q0 -66 -67 -127q64 -21 107 -72t43 -116q0 -59 -20 -109q-20 -49 -50 -83q-32 -34 -72 -58t-80 -35q-41 -11 -79 -11q-46 0 -94 19t-73 38l-25 19l84 79q50 -43 107 -43q58 0 112 48 t54 136q0 38 -26 68t-60 29q-29 1 -60 -3q-30 -4 -50 -8t-36 -9l-17 -4v94q167 63 167 148q0 25 -16 41t-37 16q-30 0 -59 -22t-42 -44z"/>
<glyph glyph-name="four" horiz-adv-x="626" unicode="4" d="M361 331l-164 -222h164v222zM603 109v-109h-100v-194h-142v194h-347v66l385 510h104v-467h100z"/>
<glyph glyph-name="five" horiz-adv-x="601" unicode="5" d="M208 467v-140q33 10 77 10q125 -1 193 -65t69 -167q1 -153 -73 -226t-199 -73q-39 0 -77 10t-66 26q-26 14 -47 28t-31 26l-10 10l76 91q10 -10 26 -24q16 -13 57 -37t72 -24q61 0 99 48t38 143q0 49 -34 89t-93 40q-32 0 -66 -14t-48 -41h-104v398h425v-108h-284z"/>
<glyph glyph-name="six" horiz-adv-x="613" unicode="6" d="M311 91q59 0 87 50t28 103q0 66 -26 96t-66 29q-83 0 -149 -138q13 -68 46 -104t80 -36zM334 476q100 0 164 -56t64 -176q0 -32 -8 -64t-26 -68t-46 -62q-28 -28 -72 -46t-99 -18q-129 0 -199 94t-70 266q0 112 38 208t107 154t153 57q98 0 198 -78l-82 -86 q-61 53 -112 53q-46 0 -82 -38t-54 -88t-27 -113q68 61 153 61z"/>
<glyph glyph-name="seven" horiz-adv-x="511" unicode="7" d="M23 460v116h469v-77q-50 -103 -124 -241t-168 -282q-94 -142 -140 -163l-84 76q44 27 154 213t198 358h-305z"/>
<glyph glyph-name="eight" horiz-adv-x="587" unicode="8" d="M196 591q0 -35 24 -67t66 -69q91 58 91 136q0 76 -91 76q-90 0 -90 -76zM396 174q0 34 -33 70t-95 82q-36 -28 -64 -71t-27 -82q-1 -41 33 -63t76 -21q44 0 77 20t33 65zM514 591q0 -110 -136 -204q72 -53 113 -103t41 -110q0 -96 -68 -142t-178 -46q-108 0 -176 46 t-68 142q0 117 138 216q-120 104 -120 201q0 47 20 82t54 55t71 28q38 9 81 9q44 0 82 -9q38 -8 72 -28t54 -55t20 -82z"/>
<glyph glyph-name="nine" horiz-adv-x="613" unicode="9" d="M288 469q-40 1 -67 -27t-37 -61t-10 -65q0 -66 26 -95t65 -29q84 0 150 138q-13 67 -47 103t-80 36zM265 85q-99 -1 -163 55t-64 176q0 40 13 82t40 83t79 67t118 27q130 0 200 -94t70 -267q0 -111 -38 -207t-107 -154t-153 -58q-98 0 -198 78l82 86q61 -52 112 -52 q46 -1 82 37t54 89t27 113q-67 -61 -154 -61z"/>
<glyph glyph-name="colon" horiz-adv-x="260" unicode=":" d="M43 412q0 32 24 52t62 20q35 0 59 -20t24 -52t-24 -54t-59 -22q-38 0 -62 22t-24 54zM43 69q0 32 24 52t62 20q35 -1 59 -21t24 -51q0 -33 -24 -55t-59 -21q-38 -1 -62 21t-24 55z"/>
<glyph glyph-name="semicolon" horiz-adv-x="265" unicode=";" d="M43 412q0 32 24 52t62 20q35 0 59 -20t24 -52t-24 -54t-59 -22q-38 0 -62 22t-24 54zM48 65q0 31 24 51t58 19q44 -1 66 -27t21 -69q0 -73 -86 -180l-78 47q37 45 49 92q-54 15 -54 67z"/>
<glyph glyph-name="less" horiz-adv-x="703" unicode="&lt;" d="M53 242v86l586 265v-112l-434 -196l434 -196v-112z"/>
<glyph glyph-name="equal" horiz-adv-x="664" unicode="=" d="M616 260v-100h-582v100h582zM616 413v-100h-582v100h582z"/>
<glyph glyph-name="greater" horiz-adv-x="703" unicode="&gt;" d="M634 242l-586 -265v112l434 196l-434 196v112l586 -265v-86z"/>
<glyph glyph-name="question" horiz-adv-x="507" unicode="?" d="M165 65q-1 31 23 51t59 19q35 1 58 -19t23 -51t-23 -51t-58 -21q-35 1 -59 21t-23 51zM299 237l-92 -74q-39 36 -58 66t-19 69q0 45 28 83t81 86q33 29 51 49t36 52t19 61q0 86 -89 86q-34 -1 -72 -35t-58 -68l-20 -35l-90 86q4 7 10 17t30 37q23 27 49 47t67 37t84 17 q56 0 98 -14t66 -32q24 -20 39 -47t19 -50t5 -47q-1 -32 -11 -62t-22 -52t-38 -49q-26 -28 -40 -41t-45 -41q-66 -61 -66 -86q0 -24 38 -60z"/>
<glyph glyph-name="at" horiz-adv-x="1065" unicode="@" d="M392 214q0 -97 26 -97q52 0 104 45t84 89l35 153q-22 54 -43 70t-48 16q-54 0 -106 -80t-52 -196zM416 18q-82 0 -120 52t-38 144q0 79 29 151q29 71 73 119t95 76t95 28q46 0 78 -18t39 -43l9 34l114 -36q-80 -411 -80 -415q14 3 30 10q16 8 41 26t43 43t32 67t13 93 q1 119 -89 214t-238 95q-146 0 -258 -120t-112 -271q0 -146 110 -244t260 -98q55 1 88 5q32 4 84 30t109 75l75 -94q-54 -45 -98 -73t-92 -40q-46 -12 -76 -14t-90 -2q-132 0 -248 58t-186 164q-70 105 -70 233q0 129 70 245t186 187q117 71 248 71q106 0 196 -37t146 -97 t88 -134q31 -74 31 -152t-28 -140t-68 -96q-40 -35 -89 -58q-48 -22 -86 -30t-66 -8q-77 0 -88 53q-79 -53 -162 -53z"/>
<glyph glyph-name="A" horiz-adv-x="713" unicode="A" d="M420 358l-72 192l-72 -192h144zM282 770h133l284 -770h-147l-93 250h-223l-90 -250h-148z"/>
<glyph glyph-name="B" horiz-adv-x="640" unicode="B" d="M418 553q0 64 -29 89t-95 25q-46 0 -91 -6v-218h41q90 -1 132 23t42 87zM203 334v-225h105q83 1 112 33t29 92q-1 14 -5 28t-16 32t-40 28q-28 12 -68 12h-117zM296 775q128 1 194 -57t66 -168q0 -91 -65 -149q53 -31 75 -79t22 -88q0 -54 -12 -94t-42 -72 q-30 -34 -87 -51t-139 -17h-246v756q152 19 234 19z"/>
<glyph glyph-name="C" horiz-adv-x="647" unicode="C" d="M608 663l-93 -88q-2 4 -6.5 10t-19.5 22t-31.5 28.5t-42 22.5t-51.5 10q-74 0 -128 -80t-54 -224q0 -112 54 -189.5t129 -77.5q43 0 87.5 24.5t63 43t32.5 35.5l90 -90q-96 -124 -280 -124q-135 0 -227 108.5t-92 269.5q0 196 96 308t230 112q48 0 91 -12.5t69.5 -30 t46.5 -35.5t28 -30z"/>
<glyph glyph-name="D" horiz-adv-x="731" unicode="D" d="M535 380q0 139 -51 213t-179 74q-40 0 -87 -7v-551h131q81 0 133.5 73.5t52.5 197.5zM77 0v755q145 20 226 20q63 0 113 -8.5t100.5 -34t84.5 -67.5t55 -114.5t21 -170.5q0 -178 -90 -279t-238 -101h-272z"/>
<glyph glyph-name="E" horiz-adv-x="565" unicode="E" d="M535 0h-473v770h331q27 0 59 2t51 4l19 3v-117h-319v-209h271v-109h-271v-235h204q27 0 59 2t50 4l19 2v-117z"/>
<glyph glyph-name="F" horiz-adv-x="543" unicode="F" d="M202 0h-141v770h332q27 0 59 2t51 4l19 3v-116h-320v-210h272v-109h-272v-344z"/>
<glyph glyph-name="G" horiz-adv-x="753" unicode="G" d="M672 396v-238q0 -70 -80.5 -121t-177.5 -51q-87 0 -155 25t-108.5 63.5t-66.5 91t-35.5 102t-9.5 101.5q0 89 23.5 161.5t61.5 119t87.5 77.5t99 44t98.5 13q47 0 91 -13.5t73 -33t52 -38.5t33 -33l11 -13l-93 -93q-3 5 -8.5 12.5t-23 27.5t-35.5 35.5t-44.5 28 t-51.5 12.5q-37 0 -75 -17.5t-74 -52t-58.5 -96.5t-22.5 -141q0 -36 5.5 -70.5t21.5 -72t40 -65t65.5 -45.5t94.5 -18q37 0 81 22t44 47v119h-65q-66 0 -108 22v103q59 -15 112 -15h198z"/>
<glyph glyph-name="H" horiz-adv-x="745" unicode="H" d="M204 0h-141v770h141v-318h320v318h141v-770h-141v343h-320v-343z"/>
<glyph glyph-name="I" horiz-adv-x="261" unicode="I" d="M199 0h-142v770h142v-770z"/>
<glyph glyph-name="J" horiz-adv-x="327" unicode="J" d="M124 770h141v-768q0 -58 -21.5 -104.5t-58 -76t-69.5 -46.5t-70 -29l-45 111q52 15 87.5 50.5t35.5 94.5v768z"/>
<glyph glyph-name="K" horiz-adv-x="617" unicode="K" d="M63 770h141v-266l207 266h167l-275 -353q44 -15 77 -49q32 -36 105 -157q88 -147 142 -211h-160q-34 36 -113 170q-58 98 -71 117q-32 39 -72 39h-7v-326h-141v770z"/>
<glyph glyph-name="L" horiz-adv-x="560" unicode="L" d="M62 0v770h141v-661h204q27 0 59 2t50 4l19 2v-117h-473z"/>
<glyph glyph-name="M" horiz-adv-x="854" unicode="M" d="M205 0h-141v770h135l218 -573l219 573h135v-770h-141v389l-150 -389h-125l-150 389v-389z"/>
<glyph glyph-name="N" horiz-adv-x="727" unicode="N" d="M204 0h-141v770l131 -1l313 -508v509h141v-770l-131 1l-313 509v-510z"/>
<glyph glyph-name="O" horiz-adv-x="760" unicode="O" d="M374 677q-35 0 -67.5 -15t-61.5 -47t-46.5 -91t-17.5 -138q0 -152 57.5 -222t132.5 -70q80 0 135.5 68.5t56.5 221.5q0 151 -56 222t-133 71zM374 784q49 0 93.5 -11.5t88.5 -40t76 -72.5t52 -114.5t20 -159.5q0 -113 -28 -194.5t-77.5 -124.5t-105 -62t-122.5 -19 q-49 0 -93.5 11t-89 39.5t-76.5 72t-52 114.5t-20 161t20 161t52.5 115t77 73t89.5 40t95 11z"/>
<glyph glyph-name="P" horiz-adv-x="622" unicode="P" d="M442 525q0 67 -38 109t-101 41q-44 0 -100 -37v-248q58 -49 125 -49q54 0 84 47t30 137zM203 0h-141v770h141v-40q14 18 49 36t79 18q111 0 181 -72t69 -187q1 -144 -67 -220t-190 -76q-66 0 -121 25v-254z"/>
<glyph glyph-name="Q" horiz-adv-x="760" unicode="Q" d="M374 677q-36 0 -68 -15t-61 -47t-47 -91t-17 -138q-1 -152 57 -222t133 -70q79 0 135 68t57 222q0 151 -56 222t-133 71zM374 784q50 0 94 -12t88 -40t76 -72t52 -114t20 -160q0 -176 -66 -270t-175 -121q25 -17 58 -17q37 0 110 24l32 -103q-61 -27 -142 -27 q-90 0 -145 38t-77 83q-53 10 -97 36q-44 27 -82 71t-58 117q-22 73 -22 167q0 90 20 161t52 115t78 73q44 29 89 40t95 11z"/>
<glyph glyph-name="R" horiz-adv-x="658" unicode="R" d="M317 415q45 0 78 32t34 110q0 53 -28.5 84.5t-76.5 31.5q-61 0 -120 -35v-223h113zM204 0h-141v770h141v-40q16 19 50 36.5t83 17.5q104 0 167.5 -61t63.5 -166q0 -181 -151 -234q41 -42 99 -130q85 -127 167 -193h-173q-53 41 -116 139q-30 47 -50 75t-47.5 57t-48.5 36 h-44v-307z"/>
<glyph glyph-name="S" horiz-adv-x="623" unicode="S" d="M30 151l98 86q44 -71 89.5 -104.5t100.5 -34.5q53 0 88.5 30.5t35.5 87.5q0 28 -11 49t-35.5 35t-44.5 22t-57 19q-54 16 -89 30.5t-71.5 40t-54.5 63t-18 88.5q0 54 18 95.5t44 64.5t61 37.5t62.5 19t54.5 4.5q144 0 237 -110l-92 -79q-75 77 -145 77q-15 0 -30 -4 t-32.5 -15t-28 -34.5t-10.5 -56.5q0 -42 34.5 -65t99.5 -41q44 -14 73 -25t65 -31.5t57.5 -44t36.5 -59.5t15 -80q0 -110 -77 -170t-189 -60q-94 0 -162.5 40t-122.5 125z"/>
<glyph glyph-name="T" horiz-adv-x="561" unicode="T" d="M-12 661v109h573v-109h-218v-661h-141v661h-214z"/>
<glyph glyph-name="U" horiz-adv-x="688" unicode="U" d="M610 246q0 -66 -20.5 -115t-49.5 -75.5t-69 -42.5t-70.5 -20t-63.5 -4t-64 4.5t-71 20.5t-69.5 42.5t-50 75.5t-20.5 114v524h142v-522q0 -46 14 -78.5t36.5 -46.5t42 -19.5t40.5 -5.5q20 0 39.5 6t42 20t36.5 45.5t14 76.5v524h141v-524z"/>
<glyph glyph-name="V" horiz-adv-x="689" unicode="V" d="M403 0h-132l-274 770h146l194 -547l194 547h146z"/>
<glyph glyph-name="W" horiz-adv-x="981" unicode="W" d="M339 0h-117l-218 770h144l132 -497l131 497h136l131 -499l132 499h145l-218 -770h-117l-141 492z"/>
<glyph glyph-name="X" horiz-adv-x="660" unicode="X" d="M487 770h161l-245 -386l245 -384h-161l-165 256l-163 -256h-162l244 384l-244 386h159l166 -258z"/>
<glyph glyph-name="Y" horiz-adv-x="620" unicode="Y" d="M475 770h154l-255 -402v-368h-140v368l-257 402h158l170 -265z"/>
<glyph glyph-name="Z" horiz-adv-x="616" unicode="Z" d="M574 143v-118q-20 -11 -55.5 -17.5t-60.5 -7.5h-25h-405v98l355 558h-345v114h516v-96l-353 -560h234q60 0 139 29z"/>
<glyph glyph-name="bracketleft" horiz-adv-x="362" unicode="[" d="M310 770v-93h-114v-831h114v-94h-251v1018h251z"/>
<glyph glyph-name="backslash" horiz-adv-x="367" unicode="\" d="M-4 770h137l231 -770h-138z"/>
<glyph glyph-name="bracketright" horiz-adv-x="362" unicode="]" d="M44 -248v94h115v831h-115v93h252v-1018h-252z"/>
<glyph glyph-name="asciicircum" horiz-adv-x="657" unicode="^" d="M266 560h111l255 -560h-127l-184 402l-184 -402h-126z"/>
<glyph glyph-name="underscore" horiz-adv-x="664" unicode="_" d="M616 -1v-97h-582v97h582z"/>
<glyph glyph-name="grave" horiz-adv-x="348" unicode="`" d="M38 756h134l131 -146h-99z"/>
<glyph glyph-name="a" horiz-adv-x="567" unicode="a" d="M207 90q80 0 143 73v82q-4 -1 -57 -8l-32 -5q-93 -17 -93 -85q0 -23 8.5 -37t16.5 -17t14 -3zM107 372l-57 97q161 92 282 92q46 0 78.5 -17.5t47 -45.5t20.5 -52.5t6 -49.5v-277q0 -14 15 -32t45 -30l-82 -74q-67 26 -90 63q-74 -57 -164 -57q-12 0 -28 2t-43 11.5 t-48.5 25t-37.5 47t-16 72.5q0 68 44.5 118t165.5 68q90 12 105 16v47q0 57 -30 57q-60 0 -213 -81z"/>
<glyph glyph-name="b" horiz-adv-x="629" unicode="b" d="M344 449q-91 0 -146 -81v-210q63 -60 133 -60q49 0 79 50t30 135q0 69 -26 117t-70 49zM344 561q76 0 130 -40q54 -39 77 -101q24 -62 24 -137q0 -139 -65 -217t-179 -77q-44 1 -86 25t-47 39v-53h-134v820h134v-299q58 40 146 40z"/>
<glyph glyph-name="c" horiz-adv-x="513" unicode="c" d="M283 561q34 0 66.5 -10.5t53.5 -25.5t37.5 -30.5t23.5 -26.5l8 -10l-88 -83q-5 9 -13.5 22.5t-35.5 36t-54 22.5q-43 0 -77.5 -50t-34.5 -140q0 -72 29.5 -122t77.5 -50q25 0 52 13.5t74 58.5l81 -77q-43 -44 -83 -67.5t-65 -28t-59 -4.5q-108 0 -175 78.5t-67 198.5 q0 142 76.5 218.5t172.5 76.5z"/>
<glyph glyph-name="d" horiz-adv-x="644" unicode="d" d="M253 104q31 0 57 9t46 27t32 34q12 15 26 38v165q-79 72 -132 72q-50 -1 -80 -49t-29 -133q0 -67 23 -115t57 -48zM251 -7q-95 1 -155 81t-60 193q0 138 66 216t180 78q66 0 132 -41v300h135v-681q0 -22 16 -46t48 -31l-78 -81q-81 30 -103 76q-79 -64 -181 -64z"/>
<glyph glyph-name="e" horiz-adv-x="582" unicode="e" d="M283 458q-65 0 -98 -92h194q-24 92 -96 92zM35 269q0 123 68.5 207.5t179.5 84.5q61 0 107.5 -22.5t70 -52t38 -68t17.5 -62t3 -41.5v-54h-351q0 -77 31 -123t88 -46q34 0 68 20.5t88 86.5l83 -78q-62 -80 -119.5 -106t-119.5 -26q-120 0 -186 80.5t-66 199.5z"/>
<glyph glyph-name="f" horiz-adv-x="398" unicode="f" d="M213 639v-89h151v-101h-151v-449h-134v449h-67v101h67v89q0 185 173 185q38 0 88 -19t79 -37l30 -19l-77 -77q-82 51 -120 51q-14 1 -22 -5t-12 -20t-4 -25q-1 -11 -1 -34z"/>
<glyph glyph-name="g" horiz-adv-x="618" unicode="g" d="M293 -153q77 0 117 35.5t40 88.5q0 57 -163 66q-22 0 -36.5 0.5t-18.5 0.5q-30 -19 -44.5 -42t-14.5 -70q0 -32 37.5 -55.5t82.5 -23.5zM71 132q0 42 58 95q-71 56 -71 154q0 46 23.5 82.5t60 57.5t74.5 31.5t73 10.5q25 0 53 -6q65 53 151 53q30 0 86 -17l-19 -103 q-45 15 -67 15q-10 0 -32 -4q58 -53 58 -120q0 -58 -23 -99.5t-60.5 -61t-73 -28t-73.5 -8.5q-32 0 -47 2q-35 -29 -36 -49q8 6 54 6q5 0 16 -0.5t15 -0.5q51 0 98 -8t93.5 -25.5t74 -53t27.5 -84.5q0 -99 -74 -163.5t-217 -64.5q-100 0 -176.5 54.5t-76.5 128.5 q0 57 15.5 86t53.5 57q-38 24 -38 63zM192 381q0 -101 97 -101q37 0 67 22.5t30 78.5q0 43 -31.5 65t-65.5 22t-65.5 -22t-31.5 -65z"/>
<glyph glyph-name="h" d="M198 0h-135v820h135v-333q99 74 197 74q146 0 146 -177v-384h-134v384q0 62 -41 62q-36 0 -88 -38t-80 -69v-339z" unicode="h"/>
<glyph glyph-name="i" horiz-adv-x="276" unicode="i" d="M68 550h133v-550h-133v550zM57 704q0 29 22 48t56 19q33 0 55 -19t22 -48t-22 -48t-55 -19q-34 0 -56 19t-22 48z"/>
<glyph glyph-name="j" horiz-adv-x="225" unicode="j" d="M6 703q0 29 22 48t56 19q33 0 55 -19t22 -48t-22 -48t-55 -19q-34 0 -56 19t-22 48zM17 550h133v-572q0 -87 -54.5 -154t-121.5 -91l-36 115q29 4 54 43t25 87v572z"/>
<glyph glyph-name="k" horiz-adv-x="571" unicode="k" d="M584 0h-150q-31 9 -159 157v-1q-73 82 -77 86v-242h-134v820h134v-423q122 87 156 153h134q-21 -82 -207 -224q20 -13 33 -29q210 -247 257 -287q8 -7 13 -10z"/>
<glyph glyph-name="l" horiz-adv-x="283" unicode="l" d="M59 820h134v-654q0 -46 12 -60t61 -15l-5 -102q-123 0 -161 37q-41 41 -41 128v666z"/>
<glyph glyph-name="m" horiz-adv-x="912" unicode="m" d="M203 0h-135v550h135v-71q35 27 51 39t50 28t66 15q95 0 132 -95q34 30 54 46t56 32q36 17 71 17q147 0 147 -177v-384h-135v384q0 61 -37 61q-32 0 -78 -38t-64 -66v-341h-134v384q0 61 -36 61q-30 1 -76 -37t-67 -67v-341z"/>
<glyph glyph-name="n" d="M198 0h-135v550h135v-70q109 81 197 81q146 0 146 -177v-384h-134v384q0 63 -40 63q-53 0 -169 -108v-339z" unicode="n"/>
<glyph glyph-name="o" horiz-adv-x="591" unicode="o" d="M403 275q0 92 -34 139t-82 47q-49 0 -83 -45.5t-34 -140.5q0 -94 34 -140.5t83 -46.5q48 0 82 45.5t34 141.5zM35 275q0 146 72.5 216t179.5 70q49 0 92.5 -16t80 -48.5t57.5 -89.5t21 -132q0 -147 -72.5 -216.5t-178.5 -69.5q-50 0 -93 15t-80 46.5t-58 89t-21 135.5z "/>
<glyph glyph-name="p" horiz-adv-x="627" unicode="p" d="M360 449q-91 0 -163 -106v-176q71 -66 132 -66q49 1 79 49t30 133q0 67 -22 117t-56 49zM197 -243h-133v793h133v-72q19 31 64 57t99 26q95 -1 154 -83t59 -195q0 -139 -65 -217t-179 -77q-71 0 -132 63v-295z"/>
<glyph glyph-name="q" horiz-adv-x="629" unicode="q" d="M248 98q87 0 163 118v166q-78 71 -132 71q-49 0 -79 -50t-30 -136q0 -69 22 -119t56 -50zM248 -11q-95 1 -154 83t-59 195q0 139 65 217t179 77q68 0 132 -54v43h135v-793h-135v316q-27 -35 -71 -59t-92 -25z"/>
<glyph glyph-name="r" horiz-adv-x="441" unicode="r" d="M62 550h128v-54q10 20 42 42.5t67 22.5q43 0 82 -17.5t57 -35.5l17 -17l-90 -87q-36 47 -63 47q-52 0 -105 -112v-339h-135v550z"/>
<glyph glyph-name="s" horiz-adv-x="507" unicode="s" d="M185 397q0 -12 6.5 -21t22.5 -16.5t25 -11t33 -11.5q37 -11 56 -18t49.5 -22t46 -31.5t27.5 -44t12 -62.5q0 -82 -62 -126t-148 -44q-67 0 -130 32.5t-102 93.5l95 76q25 -46 63 -73t76 -28q31 0 52.5 18t21.5 51q0 28 -25 43.5t-71 29.5q-39 11 -65.5 22.5t-56 30.5 t-45 47t-15.5 65q0 49 21 84t54 51t61.5 22.5t55.5 6.5q115 0 195 -78l-85 -81q-52 58 -110 58q-21 0 -39.5 -13.5t-18.5 -49.5z"/>
<glyph glyph-name="t" horiz-adv-x="403" unicode="t" d="M23 451v101h66v198h134v-198h124v-101h-124v-284q0 -71 28 -71q23 0 70 47l81 -77q-73 -77 -179 -77q-134 0 -134 178v284h-66z"/>
<glyph glyph-name="u" d="M184 166q0 -35 7.5 -50t29.5 -15q34 0 86.5 38t84.5 72v339h135v-550h-135v79q-15 -27 -73 -58.5t-123 -31.5q-147 0 -147 177v384h135v-384z" unicode="u"/>
<glyph glyph-name="v" horiz-adv-x="559" unicode="v" d="M10 550h149l112 -334q35 116 77 216t63 118h146q-41 -44 -97 -182t-91 -253l-35 -115h-113z"/>
<glyph glyph-name="w" horiz-adv-x="782" unicode="w" d="M285 0h-120l-159 550h142l82 -309l88 309h114l88 -311q78 292 113 311h136q-21 -21 -68.5 -158.5t-84.5 -264.5l-36 -127h-113l-91 315z"/>
<glyph glyph-name="x" horiz-adv-x="613" unicode="x" d="M40 550h161l108 -159q106 149 133 159h163q-37 -26 -103 -110t-118 -158l200 -282h-161l-114 171q-117 -164 -142 -171h-165q70 47 233 281z"/>
<glyph glyph-name="y" horiz-adv-x="518" unicode="y" d="M-9 550h140l119 -306q114 277 147 306h154q-36 -36 -83.5 -136t-186.5 -439q-47 -119 -102 -170q-58 -57 -175 -64l-30 104q82 4 112 36q27 24 69 127q10 28 22 57z"/>
<glyph glyph-name="z" horiz-adv-x="521" unicode="z" d="M486 131v-104q-11 -12 -35 -18.5t-43 -7.5l-18 -1h-361v87l275 362h-275v101h441v-86l-275 -362h196q58 0 95 29z"/>
<glyph glyph-name="braceleft" horiz-adv-x="473" unicode="{" d="M278 827q34 0 70 -11t54 -22l18 -11l-43 -108q-38 35 -65 35q-28 0 -28 -46v-297q0 -5 -4 -21t-22 -39t-45 -31q71 -20 71 -94v-285q0 -45 28 -45q12 0 28 9t26 17l11 9l43 -109q-66 -43 -142 -43q-39 0 -67 17q-28 16 -41 44t-18 52t-5 49v284q-1 1 -1 5t-5 13t-13 16 t-28 13q-19 6 -45 5v84q27 -1 45 5t27 12t14 16q5 8 5 12t1 6v296q0 26 5 50t18 52t41 44q28 17 67 17z"/>
<glyph glyph-name="bar" horiz-adv-x="249" unicode="|" d="M187 -248h-130v1075h130v-1075z"/>
<glyph glyph-name="braceright" horiz-adv-x="473" unicode="}" d="M195 827q39 0 67 -17q28 -16 41 -44t18 -52t5 -50v-296v-6t6 -12q5 -8 14 -16q10 -6 28 -12t44 -5v-84q-26 1 -45 -5t-27 -14l-14 -14q-5 -8 -6 -14v-5v-284q0 -25 -5 -49t-18 -52t-41 -44q-28 -17 -67 -17q-33 1 -69 11t-54 21l-19 11l43 109q38 -35 65 -35q28 0 28 45 v285q0 74 71 94q-27 8 -45 31t-22 39t-4 21v297q0 46 -28 46q-12 0 -28 -8t-27 -18l-10 -9l-43 108q66 44 142 44z"/>
<glyph glyph-name="asciitilde" horiz-adv-x="655" unicode="~" d="M91 262l-61 90q2 4 8 8t25 16t39 20q20 9 50 16t61 7q41 0 111 -18q59 -15 110 -15q20 0 51 13t52 26l21 13l41 -92q-9 -8 -25 -18t-56 -27t-67 -17q-75 0 -148 19q-54 13 -85 13q-30 0 -62 -14t-48 -26z"/>
<glyph glyph-name="exclamdown" horiz-adv-x="297" unicode="¡" d="M58 700q0 34 26 56t63 22t61 -22t25 -56q-1 -33 -25 -55t-61 -22t-63 22t-26 55zM82 576h126l13 -623h-152z"/>
<glyph glyph-name="cent" horiz-adv-x="513" unicode="¢" d="M169 271q0 -45 13 -86l72 272q-36 -15 -60 -63t-25 -123zM307 660h113l-31 -113q25 -13 47 -33t32 -34l10 -13l-85 -56q-13 14 -33 19l-89 -335h8q25 1 53 15t75 60l83 -79q-44 -45 -85 -69t-66 -28t-60 -5q-23 0 -34 1l-20 -76h-113l31 116q-53 38 -82 102t-29 139 t23 135t61 94q38 36 80 54q43 18 88 18z"/>
<glyph glyph-name="sterling" horiz-adv-x="594" unicode="£" d="M168 51q-10 0 -26 -18t-25 -36l-10 -18l-91 59q3 10 10 25t32 45t54 37l21 108h-66v103h86q46 235 69 332q12 50 48 82t67 42t58 10q35 0 67 -15t50 -33q20 -18 57 -55l-89 -72q-67 72 -85 72q-7 0 -13 -4t-14 -18t-14 -36q-14 -55 -59 -280l-5 -25h135v-103h-156 l-21 -110q38 -14 55 -22q56 -26 81 -26q12 1 36 19t41 36l18 18l81 -81q-10 -11 -28 -27t-64 -44q-46 -27 -84 -27q-58 0 -133 35q-60 27 -83 27z"/>
<glyph glyph-name="yen" horiz-adv-x="620" unicode="¥" d="M547 260v-100h-173v-160h-140v160h-174v100h174v53h-174v100h146l-228 357h157l170 -265l170 265h154l-227 -357h145v-100h-173v-53h173z"/>
<glyph glyph-name="dieresis" horiz-adv-x="437" unicode="¨" d="M242 685q0 29 18 48t50 19q33 0 50 -18.5t17 -48.5q0 -31 -17 -49.5t-50 -18.5q-32 0 -50 19t-18 49zM50 685q0 30 18 48.5t51 18.5q31 0 49 -19t18 -48q0 -30 -18 -49t-49 -19q-33 0 -51 19t-18 49z"/>
<glyph glyph-name="copyright" horiz-adv-x="884" unicode="©" d="M149 385q-1 -121 83 -207t201 -87q115 1 199 87t84 207t-84 207t-199 87q-118 0 -201 -86t-83 -208zM435 604q28 0 54 -9q25 -9 43 -21t31 -26q13 -12 19 -21l6 -9l-82 -77q-4 7 -11 18t-26 29t-35 18q-26 0 -47 -34t-21 -95q0 -47 18 -81t47 -34q31 0 92 59l73 -72 q-52 -51 -88 -67t-77 -16q-84 0 -137 60t-53 151q1 109 61 168t133 59zM36 385q0 160 116 273t281 113q163 -1 279 -113t116 -273t-116 -273t-279 -112q-165 0 -281 112t-116 273z"/>
<glyph glyph-name="registered" horiz-adv-x="884" unicode="®" d="M379 508v-95h48q47 0 48 62q0 45 -46 45q-23 0 -50 -12zM36 385q0 160 116 273t281 113q163 -1 279 -113t116 -273t-116 -273t-279 -112q-165 0 -281 112t-116 273zM149 385q-1 -121 83 -207t201 -87q110 0 192 79h-94q-34 23 -74 78h1q-46 63 -79 81v-159h-116v432h113 q25 6 66 6q56 0 102 -33t46 -100q0 -92 -77 -128q28 -32 44 -55q44 -56 93 -95q66 82 66 188q0 121 -84 207t-199 87q-118 0 -201 -86t-83 -208z"/>
<glyph glyph-name="acute" horiz-adv-x="323" unicode="´" d="M188 756h134l-166 -146h-99z"/>
<glyph glyph-name="paragraph" horiz-adv-x="737" unicode="¶" d="M451 -238h-112v481q-60 -27 -110 -27q-91 0 -155 78t-65 199q1 117 81 197t206 80h416v-91h-71v-917h-112v917h-78v-917z"/>
<glyph glyph-name="periodcentered" horiz-adv-x="250" unicode="·" d="M38 280q0 32 24 52t62 21q36 -1 60 -21t23 -52q1 -33 -23 -54t-60 -21q-38 0 -62 21t-24 54z"/>
<glyph glyph-name="cedilla" horiz-adv-x="330" unicode="¸" d="M113 -57h-29l65 93h107l-37 -66q27 -8 43.5 -30t16.5 -51q0 -38 -23.5 -60.5t-89.5 -22.5q-83 0 -136 37l40 64q22 -15 68 -15q34 0 34 19q0 32 -59 32z"/>
<glyph glyph-name="questiondown" horiz-adv-x="507" unicode="¿" d="M328 706q0 -30 -24 -50t-58 -20q-35 0 -58 20t-23 50q0 32 23 52t58 20q34 0 58 -20t24 -52zM194 534l92 74q39 -36 58 -66t19 -69q1 -45 -27 -83t-82 -86q-32 -30 -50 -50t-38 -52q-18 -32 -18 -60q0 -86 89 -86q33 0 71 34t58 70l21 34l90 -86q-5 -6 -11 -16t-29 -38 q-23 -27 -49 -47t-67 -37t-84 -17q-57 -1 -99 13t-66 34t-38 46q-16 27 -20 50t-4 47q0 31 10 61t23 52q11 22 37 50t40 41t46 41q66 60 66 86q0 24 -38 60z"/>
<glyph glyph-name="Agrave" horiz-adv-x="713" unicode="À" d="M144 957h134l131 -146h-99zM420 358l-72 192l-72 -192h144zM282 770h133l284 -770h-147l-93 250h-223l-90 -250h-148z"/>
<glyph glyph-name="Aacute" horiz-adv-x="713" unicode="Á" d="M352 957h134l-166 -146h-99zM420 358l-72 192l-72 -192h144zM282 770h133l284 -770h-147l-93 250h-223l-90 -250h-148z"/>
<glyph glyph-name="Acircumflex" horiz-adv-x="713" unicode="Â" d="M398 949l157 -146h-125l-78 77l-78 -77h-125l157 146h92zM420 358l-72 192l-72 -192h144zM282 770h133l284 -770h-147l-93 250h-223l-90 -250h-148z"/>
<glyph glyph-name="Atilde" horiz-adv-x="713" unicode="Ã" d="M533 967l49 -97q-7 -8 -18.5 -19t-48.5 -30t-74 -19q-30 0 -85 22.5t-88 22.5q-17 0 -39.5 -16.5t-36.5 -32.5l-14 -16l-47 95q6 8 18 19t48.5 30t73.5 19q32 0 88.5 -22.5t84.5 -22.5q16 0 38.5 17t36.5 33zM420 358l-72 192l-72 -192h144zM282 770h133l284 -770h-147 l-93 250h-223l-90 -250h-148z"/>
<glyph glyph-name="Adieresis" horiz-adv-x="713" unicode="Ä" d="M385 875q0 29 18 48t50 19q33 0 50 -18.5t17 -48.5q0 -31 -17 -49.5t-50 -18.5q-32 0 -50 19t-18 49zM193 875q0 30 18 48.5t51 18.5q31 0 49 -19t18 -48q0 -30 -18 -49t-49 -19q-33 0 -51 19t-18 49zM420 358l-72 192l-72 -192h144zM282 770h133l284 -770h-147l-93 250 h-223l-90 -250h-148z"/>
<glyph glyph-name="Aring" horiz-adv-x="713" unicode="Å" d="M239 913q0 40 31.5 68.5t75.5 28.5t75.5 -28.5t31.5 -68.5t-31.5 -68.5t-75.5 -28.5t-75.5 28.5t-31.5 68.5zM331 913q0 -12 5 -20t12 -8q15 0 15 28q0 9 -4.5 16.5t-10.5 7.5q-7 0 -12 -7.5t-5 -16.5zM420 358l-72 192l-72 -192h144zM282 770h133l284 -770h-147l-93 250 h-223l-90 -250h-148z"/>
<glyph glyph-name="AE" horiz-adv-x="983" unicode="Æ" d="M464 564l-116 -206h116v206zM938 0h-474v250h-175l-140 -250h-151l425 770h373q27 0 59 2t51 4l18 3v-117h-319v-209h272v-109h-272v-235h204q27 0 59 2t51 4l19 2v-117z"/>
<glyph glyph-name="Ccedilla" horiz-adv-x="647" unicode="Ç" d="M273 -57h-29l65 93h107l-37 -66q27 -8 43.5 -30t16.5 -51q0 -38 -23.5 -60.5t-89.5 -22.5q-83 0 -136 37l40 64q22 -15 68 -15q34 0 34 19q0 32 -59 32zM608 663l-93 -88q-2 4 -6.5 10t-19.5 22t-31.5 28.5t-42 22.5t-51.5 10q-74 0 -128 -80t-54 -224q0 -112 54 -189.5 t129 -77.5q43 0 87.5 24.5t63 43t32.5 35.5l90 -90q-96 -124 -280 -124q-135 0 -227 108.5t-92 269.5q0 196 96 308t230 112q48 0 91 -12.5t69.5 -30t46.5 -35.5t28 -30z"/>
<glyph glyph-name="Egrave" horiz-adv-x="565" unicode="È" d="M87 956h134l131 -146h-99zM535 0h-473v770h331q27 0 59 2t51 4l19 3v-117h-319v-209h271v-109h-271v-235h204q27 0 59 2t50 4l19 2v-117z"/>
<glyph glyph-name="Eacute" horiz-adv-x="565" unicode="É" d="M309 957h134l-166 -146h-99zM535 0h-473v770h331q27 0 59 2t51 4l19 3v-117h-319v-209h271v-109h-271v-235h204q27 0 59 2t50 4l19 2v-117z"/>
<glyph glyph-name="Ecircumflex" horiz-adv-x="565" unicode="Ê" d="M328 959l157 -146h-125l-78 77l-78 -77h-125l157 146h92zM535 0h-473v770h331q27 0 59 2t51 4l19 3v-117h-319v-209h271v-109h-271v-235h204q27 0 59 2t50 4l19 2v-117z"/>
<glyph glyph-name="Edieresis" horiz-adv-x="565" unicode="Ë" d="M311 875q0 29 18 48t50 19q33 0 50 -18.5t17 -48.5q0 -31 -17 -49.5t-50 -18.5q-32 0 -50 19t-18 49zM119 875q0 30 18 48.5t51 18.5q31 0 49 -19t18 -48q0 -30 -18 -49t-49 -19q-33 0 -51 19t-18 49zM535 0h-473v770h331q27 0 59 2t51 4l19 3v-117h-319v-209h271v-109 h-271v-235h204q27 0 59 2t50 4l19 2v-117z"/>
<glyph glyph-name="Igrave" horiz-adv-x="261" unicode="Ì" d="M-77 962h134l131 -146h-99zM199 0h-142v770h142v-770z"/>
<glyph glyph-name="Iacute" horiz-adv-x="261" unicode="Í" d="M189 957h134l-166 -146h-99zM199 0h-142v770h142v-770z"/>
<glyph glyph-name="Icircumflex" horiz-adv-x="261" unicode="Î" d="M172 959l157 -146h-125l-78 77l-78 -77h-125l157 146h92zM199 0h-142v770h142v-770z"/>
<glyph glyph-name="Idieresis" horiz-adv-x="261" unicode="Ï" d="M159 878q0 29 18 48t50 19q33 0 50 -18.5t17 -48.5q0 -31 -17 -49.5t-50 -18.5q-32 0 -50 19t-18 49zM-33 878q0 30 18 48.5t51 18.5q31 0 49 -19t18 -48q0 -30 -18 -49t-49 -19q-33 0 -51 19t-18 49zM199 0h-142v770h142v-770z"/>
<glyph glyph-name="Eth" horiz-adv-x="731" unicode="Ð" d="M124 350h-75v103h75v302q145 20 226 20q63 -1 113 -9q51 -8 101 -34t84 -67q34 -43 55 -115t21 -170q0 -180 -90 -280t-238 -100h-272v350zM582 380q0 139 -51 213t-179 74q-40 0 -87 -7v-207h171v-103h-171v-241h131q82 -1 134 73t52 198z"/>
<glyph glyph-name="Ntilde" horiz-adv-x="727" unicode="Ñ" d="M524 979l49 -97q-7 -8 -18.5 -19t-48.5 -30t-74 -19q-30 0 -85 22.5t-88 22.5q-17 0 -39.5 -16.5t-36.5 -32.5l-14 -16l-47 95q6 8 18 19t48.5 30t73.5 19q32 0 88.5 -22.5t84.5 -22.5q16 0 38.5 17t36.5 33zM204 0h-141v770l131 -1l313 -508v509h141v-770l-131 1 l-313 509v-510z"/>
<glyph glyph-name="Ograve" horiz-adv-x="760" unicode="Ò" d="M165 963h134l131 -146h-99zM374 677q-35 0 -67.5 -15t-61.5 -47t-46.5 -91t-17.5 -138q0 -152 57.5 -222t132.5 -70q80 0 135.5 68.5t56.5 221.5q0 151 -56 222t-133 71zM374 784q49 0 93.5 -11.5t88.5 -40t76 -72.5t52 -114.5t20 -159.5q0 -113 -28 -194.5t-77.5 -124.5 t-105 -62t-122.5 -19q-49 0 -93.5 11t-89 39.5t-76.5 72t-52 114.5t-20 161t20 161t52.5 115t77 73t89.5 40t95 11z"/>
<glyph glyph-name="Oacute" horiz-adv-x="760" unicode="Ó" d="M434 957h134l-166 -146h-99zM374 677q-35 0 -67.5 -15t-61.5 -47t-46.5 -91t-17.5 -138q0 -152 57.5 -222t132.5 -70q80 0 135.5 68.5t56.5 221.5q0 151 -56 222t-133 71zM374 784q49 0 93.5 -11.5t88.5 -40t76 -72.5t52 -114.5t20 -159.5q0 -113 -28 -194.5 t-77.5 -124.5t-105 -62t-122.5 -19q-49 0 -93.5 11t-89 39.5t-76.5 72t-52 114.5t-20 161t20 161t52.5 115t77 73t89.5 40t95 11z"/>
<glyph glyph-name="Ocircumflex" horiz-adv-x="760" unicode="Ô" d="M413 959l157 -146h-125l-78 77l-78 -77h-125l157 146h92zM374 677q-35 0 -67.5 -15t-61.5 -47t-46.5 -91t-17.5 -138q0 -152 57.5 -222t132.5 -70q80 0 135.5 68.5t56.5 221.5q0 151 -56 222t-133 71zM374 784q49 0 93.5 -11.5t88.5 -40t76 -72.5t52 -114.5t20 -159.5 q0 -113 -28 -194.5t-77.5 -124.5t-105 -62t-122.5 -19q-49 0 -93.5 11t-89 39.5t-76.5 72t-52 114.5t-20 161t20 161t52.5 115t77 73t89.5 40t95 11z"/>
<glyph glyph-name="Otilde" horiz-adv-x="760" unicode="Õ" d="M557 979l49 -97q-7 -8 -18.5 -19t-48.5 -30t-74 -19q-30 0 -85 22.5t-88 22.5q-17 0 -39.5 -16.5t-36.5 -32.5l-14 -16l-47 95q6 8 18 19t48.5 30t73.5 19q32 0 88.5 -22.5t84.5 -22.5q16 0 38.5 17t36.5 33zM374 677q-35 0 -67.5 -15t-61.5 -47t-46.5 -91t-17.5 -138 q0 -152 57.5 -222t132.5 -70q80 0 135.5 68.5t56.5 221.5q0 151 -56 222t-133 71zM374 784q49 0 93.5 -11.5t88.5 -40t76 -72.5t52 -114.5t20 -159.5q0 -113 -28 -194.5t-77.5 -124.5t-105 -62t-122.5 -19q-49 0 -93.5 11t-89 39.5t-76.5 72t-52 114.5t-20 161t20 161 t52.5 115t77 73t89.5 40t95 11z"/>
<glyph glyph-name="Odieresis" horiz-adv-x="760" unicode="Ö" d="M397 875q0 29 18 48t50 19q33 0 50 -18.5t17 -48.5q0 -31 -17 -49.5t-50 -18.5q-32 0 -50 19t-18 49zM205 875q0 30 18 48.5t51 18.5q31 0 49 -19t18 -48q0 -30 -18 -49t-49 -19q-33 0 -51 19t-18 49zM374 677q-35 0 -67.5 -15t-61.5 -47t-46.5 -91t-17.5 -138 q0 -152 57.5 -222t132.5 -70q80 0 135.5 68.5t56.5 221.5q0 151 -56 222t-133 71zM374 784q49 0 93.5 -11.5t88.5 -40t76 -72.5t52 -114.5t20 -159.5q0 -113 -28 -194.5t-77.5 -124.5t-105 -62t-122.5 -19q-49 0 -93.5 11t-89 39.5t-76.5 72t-52 114.5t-20 161t20 161 t52.5 115t77 73t89.5 40t95 11z"/>
<glyph glyph-name="Oslash" horiz-adv-x="760" unicode="Ø" d="M297 113q37 -19 74 -19q79 0 135 68t57 222q0 108 -33 181zM518 803h135l-54 -105q105 -103 105 -312q0 -112 -28 -194t-78 -125t-104 -62q-56 -19 -123 -19q-70 0 -128 22l-21 -41h-134l55 106q-103 103 -103 311q0 90 20 161t52 115t78 73q44 29 89 40t95 11 q67 0 123 -21zM374 677q-36 0 -68 -15t-61 -47t-47 -91t-17 -138q0 -107 32 -177l232 451q-33 17 -71 17z"/>
<glyph glyph-name="Ugrave" horiz-adv-x="688" unicode="Ù" d="M123 958h134l131 -146h-99zM610 246q0 -66 -20.5 -115t-49.5 -75.5t-69 -42.5t-70.5 -20t-63.5 -4t-64 4.5t-71 20.5t-69.5 42.5t-50 75.5t-20.5 114v524h142v-522q0 -46 14 -78.5t36.5 -46.5t42 -19.5t40.5 -5.5q20 0 39.5 6t42 20t36.5 45.5t14 76.5v524h141v-524z"/>
<glyph glyph-name="Uacute" horiz-adv-x="688" unicode="Ú" d="M408 947h134l-166 -146h-99zM610 246q0 -66 -20.5 -115t-49.5 -75.5t-69 -42.5t-70.5 -20t-63.5 -4t-64 4.5t-71 20.5t-69.5 42.5t-50 75.5t-20.5 114v524h142v-522q0 -46 14 -78.5t36.5 -46.5t42 -19.5t40.5 -5.5q20 0 39.5 6t42 20t36.5 45.5t14 76.5v524h141v-524z "/>
<glyph glyph-name="Ucircumflex" horiz-adv-x="688" unicode="Û" d="M382 959l157 -146h-125l-78 77l-78 -77h-125l157 146h92zM610 246q0 -66 -20.5 -115t-49.5 -75.5t-69 -42.5t-70.5 -20t-63.5 -4t-64 4.5t-71 20.5t-69.5 42.5t-50 75.5t-20.5 114v524h142v-522q0 -46 14 -78.5t36.5 -46.5t42 -19.5t40.5 -5.5q20 0 39.5 6t42 20 t36.5 45.5t14 76.5v524h141v-524z"/>
<glyph glyph-name="Udieresis" horiz-adv-x="688" unicode="Ü" d="M367 875q0 29 18 48t50 19q33 0 50 -18.5t17 -48.5q0 -31 -17 -49.5t-50 -18.5q-32 0 -50 19t-18 49zM175 875q0 30 18 48.5t51 18.5q31 0 49 -19t18 -48q0 -30 -18 -49t-49 -19q-33 0 -51 19t-18 49zM610 246q0 -66 -20.5 -115t-49.5 -75.5t-69 -42.5t-70.5 -20 t-63.5 -4t-64 4.5t-71 20.5t-69.5 42.5t-50 75.5t-20.5 114v524h142v-522q0 -46 14 -78.5t36.5 -46.5t42 -19.5t40.5 -5.5q20 0 39.5 6t42 20t36.5 45.5t14 76.5v524h141v-524z"/>
<glyph glyph-name="Yacute" horiz-adv-x="620" unicode="Ý" d="M378 947h134l-166 -146h-99zM475 770h154l-255 -402v-368h-140v368l-257 402h158l170 -265z"/>
<glyph glyph-name="Thorn" horiz-adv-x="632" unicode="Þ" d="M442 423q0 67 -38 109t-101 41q-44 0 -100 -37v-248q58 -49 125 -49q54 0 84 47t30 137zM203 0h-141v770h141v-112q59 24 128 24q111 0 181 -72t69 -187q1 -144 -67 -220t-190 -76q-66 0 -121 25v-152z"/>
<glyph glyph-name="germandbls" horiz-adv-x="655" unicode="ß" d="M254 370v102q154 7 154 138q0 48 -35 70t-67 22q-42 0 -70 -20t-32 -61v-621h-133v449h-66v101h66v72q1 93 67 140t168 47q28 1 58 -5t62 -20t58 -36t42 -58t17 -82q0 -100 -63 -163q124 -56 124 -197q0 -40 -4 -70t-21 -65q-15 -35 -43 -59t-78 -38q-50 -16 -119 -16 q-45 0 -83 13v112q49 -13 82 -13q78 0 104 36t27 100q0 39 -18 65q-18 25 -52 37t-67 16t-78 4z"/>
<glyph glyph-name="agrave" horiz-adv-x="567" unicode="à" d="M151 756h134l131 -146h-99zM207 90q80 0 143 73v82q-4 -1 -57 -8l-32 -5q-93 -17 -93 -85q0 -23 8.5 -37t16.5 -17t14 -3zM107 372l-57 97q161 92 282 92q46 0 78.5 -17.5t47 -45.5t20.5 -52.5t6 -49.5v-277q0 -14 15 -32t45 -30l-82 -74q-67 26 -90 63q-74 -57 -164 -57 q-12 0 -28 2t-43 11.5t-48.5 25t-37.5 47t-16 72.5q0 68 44.5 118t165.5 68q90 12 105 16v47q0 57 -30 57q-60 0 -213 -81z"/>
<glyph glyph-name="aacute" horiz-adv-x="567" unicode="á" d="M302 756h134l-166 -146h-99zM207 90q80 0 143 73v82q-4 -1 -57 -8l-32 -5q-93 -17 -93 -85q0 -23 8.5 -37t16.5 -17t14 -3zM107 372l-57 97q161 92 282 92q46 0 78.5 -17.5t47 -45.5t20.5 -52.5t6 -49.5v-277q0 -14 15 -32t45 -30l-82 -74q-67 26 -90 63 q-74 -57 -164 -57q-12 0 -28 2t-43 11.5t-48.5 25t-37.5 47t-16 72.5q0 68 44.5 118t165.5 68q90 12 105 16v47q0 57 -30 57q-60 0 -213 -81z"/>
<glyph glyph-name="acircumflex" horiz-adv-x="567" unicode="â" d="M319 759l157 -146h-125l-78 77l-78 -77h-125l157 146h92zM207 90q80 0 143 73v82q-4 -1 -57 -8l-32 -5q-93 -17 -93 -85q0 -23 8.5 -37t16.5 -17t14 -3zM107 372l-57 97q161 92 282 92q46 0 78.5 -17.5t47 -45.5t20.5 -52.5t6 -49.5v-277q0 -14 15 -32t45 -30l-82 -74 q-67 26 -90 63q-74 -57 -164 -57q-12 0 -28 2t-43 11.5t-48.5 25t-37.5 47t-16 72.5q0 68 44.5 118t165.5 68q90 12 105 16v47q0 57 -30 57q-60 0 -213 -81z"/>
<glyph glyph-name="atilde" horiz-adv-x="567" unicode="ã" d="M460 751l49 -97q-7 -8 -18.5 -19t-48.5 -30t-74 -19q-30 0 -85 22.5t-88 22.5q-17 0 -39.5 -16.5t-36.5 -32.5l-14 -16l-47 95q6 8 18 19t48.5 30t73.5 19q32 0 88.5 -22.5t84.5 -22.5q16 0 38.5 17t36.5 33zM207 90q80 0 143 73v82q-4 -1 -57 -8l-32 -5q-93 -17 -93 -85 q0 -23 8.5 -37t16.5 -17t14 -3zM107 372l-57 97q161 92 282 92q46 0 78.5 -17.5t47 -45.5t20.5 -52.5t6 -49.5v-277q0 -14 15 -32t45 -30l-82 -74q-67 26 -90 63q-74 -57 -164 -57q-12 0 -28 2t-43 11.5t-48.5 25t-37.5 47t-16 72.5q0 68 44.5 118t165.5 68q90 12 105 16v47 q0 57 -30 57q-60 0 -213 -81z"/>
<glyph glyph-name="adieresis" horiz-adv-x="567" unicode="ä" d="M312 685q0 29 18 48t50 19q33 0 50 -18.5t17 -48.5q0 -31 -17 -49.5t-50 -18.5q-32 0 -50 19t-18 49zM120 685q0 30 18 48.5t51 18.5q31 0 49 -19t18 -48q0 -30 -18 -49t-49 -19q-33 0 -51 19t-18 49zM207 90q80 0 143 73v82q-4 -1 -57 -8l-32 -5q-93 -17 -93 -85 q0 -23 8.5 -37t16.5 -17t14 -3zM107 372l-57 97q161 92 282 92q46 0 78.5 -17.5t47 -45.5t20.5 -52.5t6 -49.5v-277q0 -14 15 -32t45 -30l-82 -74q-67 26 -90 63q-74 -57 -164 -57q-12 0 -28 2t-43 11.5t-48.5 25t-37.5 47t-16 72.5q0 68 44.5 118t165.5 68q90 12 105 16v47 q0 57 -30 57q-60 0 -213 -81z"/>
<glyph glyph-name="aring" horiz-adv-x="567" unicode="å" d="M177 692q0 40 31.5 68.5t75.5 28.5t75.5 -28.5t31.5 -68.5t-31.5 -68.5t-75.5 -28.5t-75.5 28.5t-31.5 68.5zM269 692q0 -12 5 -20t12 -8q15 0 15 28q0 9 -4.5 16.5t-10.5 7.5q-7 0 -12 -7.5t-5 -16.5zM207 90q80 0 143 73v82q-4 -1 -57 -8l-32 -5q-93 -17 -93 -85 q0 -23 8.5 -37t16.5 -17t14 -3zM107 372l-57 97q161 92 282 92q46 0 78.5 -17.5t47 -45.5t20.5 -52.5t6 -49.5v-277q0 -14 15 -32t45 -30l-82 -74q-67 26 -90 63q-74 -57 -164 -57q-12 0 -28 2t-43 11.5t-48.5 25t-37.5 47t-16 72.5q0 68 44.5 118t165.5 68q90 12 105 16v47 q0 57 -30 57q-60 0 -213 -81z"/>
<glyph glyph-name="ae" horiz-adv-x="901" unicode="æ" d="M587 456q-67 0 -98 -90h193q-23 90 -95 90zM212 90q32 0 61 12t44.5 25t36.5 35q-9 31 -11 81l-77 -11q-55 -9 -74 -31t-19 -54q0 -23 8.5 -37t16.5 -17t14 -3zM324 561q79 0 118 -50q62 50 145 50q61 0 107.5 -22.5t70 -52t38 -68t17.5 -62t3 -41.5v-54h-351 q0 -78 31 -124.5t88 -46.5q76 0 155 109l83 -78q-62 -78 -118.5 -105t-119.5 -27q-117 0 -187 78q-84 -78 -191 -78q-12 0 -28 2t-43 11.5t-48.5 25t-37.5 47t-16 72.5q0 68 44.5 118t164.5 68q81 11 94 14v49q0 60 -30 60q-87 0 -219 -87l-49 98q49 31 126.5 62.5 t152.5 31.5z"/>
<glyph glyph-name="ccedilla" horiz-adv-x="513" unicode="ç" d="M283 561q34 0 66.5 -10.5t53.5 -25.5t37.5 -30.5t23.5 -26.5l8 -10l-88 -83q-5 9 -13.5 22.5t-35.5 36t-54 22.5q-43 0 -77.5 -50t-34.5 -140q0 -72 29.5 -122t77.5 -50q25 0 52 13.5t74 58.5l81 -77q-43 -44 -83 -67.5t-65 -28t-59 -4.5q-108 0 -175 78.5t-67 198.5 q0 142 76.5 218.5t172.5 76.5zM194 -57h-29l65 93h107l-37 -66q27 -8 43.5 -30t16.5 -51q0 -38 -23.5 -60.5t-89.5 -22.5q-83 0 -136 37l40 64q22 -15 68 -15q34 0 34 19q0 32 -59 32z"/>
<glyph glyph-name="egrave" horiz-adv-x="582" unicode="è" d="M283 458q-65 0 -98 -92h194q-24 92 -96 92zM35 269q0 123 68.5 207.5t179.5 84.5q61 0 107.5 -22.5t70 -52t38 -68t17.5 -62t3 -41.5v-54h-351q0 -77 31 -123t88 -46q34 0 68 20.5t88 86.5l83 -78q-62 -80 -119.5 -106t-119.5 -26q-120 0 -186 80.5t-66 199.5zM78 756 h134l131 -146h-99z"/>
<glyph glyph-name="eacute" horiz-adv-x="582" unicode="é" d="M341 756h134l-166 -146h-99zM283 458q-65 0 -98 -92h194q-24 92 -96 92zM35 269q0 123 68.5 207.5t179.5 84.5q61 0 107.5 -22.5t70 -52t38 -68t17.5 -62t3 -41.5v-54h-351q0 -77 31 -123t88 -46q34 0 68 20.5t88 86.5l83 -78q-62 -80 -119.5 -106t-119.5 -26 q-120 0 -186 80.5t-66 199.5z"/>
<glyph glyph-name="ecircumflex" horiz-adv-x="582" unicode="ê" d="M335 759l157 -146h-125l-78 77l-78 -77h-125l157 146h92zM283 458q-65 0 -98 -92h194q-24 92 -96 92zM35 269q0 123 68.5 207.5t179.5 84.5q61 0 107.5 -22.5t70 -52t38 -68t17.5 -62t3 -41.5v-54h-351q0 -77 31 -123t88 -46q34 0 68 20.5t88 86.5l83 -78 q-62 -80 -119.5 -106t-119.5 -26q-120 0 -186 80.5t-66 199.5z"/>
<glyph glyph-name="edieresis" horiz-adv-x="582" unicode="ë" d="M310 685q0 29 18 48t50 19q33 0 50 -18.5t17 -48.5q0 -31 -17 -49.5t-50 -18.5q-32 0 -50 19t-18 49zM118 685q0 30 18 48.5t51 18.5q31 0 49 -19t18 -48q0 -30 -18 -49t-49 -19q-33 0 -51 19t-18 49zM283 458q-65 0 -98 -92h194q-24 92 -96 92zM35 269q0 123 68.5 207.5 t179.5 84.5q61 0 107.5 -22.5t70 -52t38 -68t17.5 -62t3 -41.5v-54h-351q0 -77 31 -123t88 -46q34 0 68 20.5t88 86.5l83 -78q-62 -80 -119.5 -106t-119.5 -26q-120 0 -186 80.5t-66 199.5z"/>
<glyph glyph-name="igrave" horiz-adv-x="256" unicode="ì" d="M-75 756h134l131 -146h-99zM58 550h133v-550h-133v550z"/>
<glyph glyph-name="iacute" horiz-adv-x="256" unicode="í" d="M192 756h134l-166 -146h-99zM58 550h133v-550h-133v550z"/>
<glyph glyph-name="icircumflex" horiz-adv-x="256" unicode="î" d="M174 759l157 -146h-125l-78 77l-78 -77h-125l157 146h92zM58 550h133v-550h-133v550z"/>
<glyph glyph-name="idieresis" horiz-adv-x="256" unicode="ï" d="M149 685q0 29 18 48t50 19q33 0 50 -18.5t17 -48.5q0 -31 -17 -49.5t-50 -18.5q-32 0 -50 19t-18 49zM-43 685q0 30 18 48.5t51 18.5q31 0 49 -19t18 -48q0 -30 -18 -49t-49 -19q-33 0 -51 19t-18 49zM58 550h133v-550h-133v550z"/>
<glyph glyph-name="eth" horiz-adv-x="614" unicode="ð" d="M285 97q61 0 97 62t40 173q-70 87 -146 87q-46 0 -76 -50t-30 -125q0 -53 28 -100t87 -47zM251 756q15 0 37 -2l37 57l90 -59l-23 -37q80 -54 122 -156t42 -204q0 -173 -70 -267t-201 -95q-67 -1 -119 25t-78 66q-27 40 -40 80t-13 80q0 122 67 201t174 79q68 0 126 -32 q-26 90 -73 128l-56 -85l-91 54l37 57q-32 -8 -86 -43l-55 94q87 59 173 59z"/>
<glyph glyph-name="ntilde" d="M481 751l49 -97q-7 -8 -18.5 -19t-48.5 -30t-74 -19q-30 0 -85 22.5t-88 22.5q-17 0 -39.5 -16.5t-36.5 -32.5l-14 -16l-47 95q6 8 18 19t48.5 30t73.5 19q32 0 88.5 -22.5t84.5 -22.5q16 0 38.5 17t36.5 33zM198 0h-135v550h135v-70q109 81 197 81q146 0 146 -177v-384 h-134v384q0 63 -40 63q-53 0 -169 -108v-339z" unicode="ñ"/>
<glyph glyph-name="ograve" horiz-adv-x="591" unicode="ò" d="M87 756h134l131 -146h-99zM403 275q0 92 -34 139t-82 47q-49 0 -83 -45.5t-34 -140.5q0 -94 34 -140.5t83 -46.5q48 0 82 45.5t34 141.5zM35 275q0 146 72.5 216t179.5 70q49 0 92.5 -16t80 -48.5t57.5 -89.5t21 -132q0 -147 -72.5 -216.5t-178.5 -69.5q-50 0 -93 15 t-80 46.5t-58 89t-21 135.5z"/>
<glyph glyph-name="oacute" horiz-adv-x="591" unicode="ó" d="M352 756h134l-166 -146h-99zM403 275q0 92 -34 139t-82 47q-49 0 -83 -45.5t-34 -140.5q0 -94 34 -140.5t83 -46.5q48 0 82 45.5t34 141.5zM35 275q0 146 72.5 216t179.5 70q49 0 92.5 -16t80 -48.5t57.5 -89.5t21 -132q0 -147 -72.5 -216.5t-178.5 -69.5q-50 0 -93 15 t-80 46.5t-58 89t-21 135.5z"/>
<glyph glyph-name="ocircumflex" horiz-adv-x="591" unicode="ô" d="M337 759l157 -146h-125l-78 77l-78 -77h-125l157 146h92zM403 275q0 92 -34 139t-82 47q-49 0 -83 -45.5t-34 -140.5q0 -94 34 -140.5t83 -46.5q48 0 82 45.5t34 141.5zM35 275q0 146 72.5 216t179.5 70q49 0 92.5 -16t80 -48.5t57.5 -89.5t21 -132q0 -147 -72.5 -216.5 t-178.5 -69.5q-50 0 -93 15t-80 46.5t-58 89t-21 135.5z"/>
<glyph glyph-name="otilde" horiz-adv-x="591" unicode="õ" d="M460 751l49 -97q-7 -8 -18.5 -19t-48.5 -30t-74 -19q-30 0 -85 22.5t-88 22.5q-17 0 -39.5 -16.5t-36.5 -32.5l-14 -16l-47 95q6 8 18 19t48.5 30t73.5 19q32 0 88.5 -22.5t84.5 -22.5q16 0 38.5 17t36.5 33zM403 275q0 92 -34 139t-82 47q-49 0 -83 -45.5t-34 -140.5 q0 -94 34 -140.5t83 -46.5q48 0 82 45.5t34 141.5zM35 275q0 146 72.5 216t179.5 70q49 0 92.5 -16t80 -48.5t57.5 -89.5t21 -132q0 -147 -72.5 -216.5t-178.5 -69.5q-50 0 -93 15t-80 46.5t-58 89t-21 135.5z"/>
<glyph glyph-name="odieresis" horiz-adv-x="591" unicode="ö" d="M314 685q0 29 18 48t50 19q33 0 50 -18.5t17 -48.5q0 -31 -17 -49.5t-50 -18.5q-32 0 -50 19t-18 49zM122 685q0 30 18 48.5t51 18.5q31 0 49 -19t18 -48q0 -30 -18 -49t-49 -19q-33 0 -51 19t-18 49zM403 275q0 92 -34 139t-82 47q-49 0 -83 -45.5t-34 -140.5 q0 -94 34 -140.5t83 -46.5q48 0 82 45.5t34 141.5zM35 275q0 146 72.5 216t179.5 70q49 0 92.5 -16t80 -48.5t57.5 -89.5t21 -132q0 -147 -72.5 -216.5t-178.5 -69.5q-50 0 -93 15t-80 46.5t-58 89t-21 135.5z"/>
<glyph glyph-name="oslash" horiz-adv-x="591" unicode="ø" d="M393 358l-136 -265q17 -5 30 -5q48 0 82 46t34 141q0 45 -10 83zM312 457q-16 4 -25 4q-49 1 -83 -45t-34 -141q0 -44 8 -79zM35 275q1 146 73 216t179 70q37 0 73 -9l15 28h132l-44 -86q75 -75 75 -219q0 -147 -72 -217t-179 -69q-42 0 -78 10l-15 -29h-132l45 87 q-72 75 -72 218z"/>
<glyph glyph-name="ugrave" d="M93 756h134l131 -146h-99zM184 166q0 -35 7.5 -50t29.5 -15q34 0 86.5 38t84.5 72v339h135v-550h-135v79q-15 -27 -73 -58.5t-123 -31.5q-147 0 -147 177v384h135v-384z" unicode="ù"/>
<glyph glyph-name="uacute" d="M363 756h134l-166 -146h-99zM184 166q0 -35 7.5 -50t29.5 -15q34 0 86.5 38t84.5 72v339h135v-550h-135v79q-15 -27 -73 -58.5t-123 -31.5q-147 0 -147 177v384h135v-384z" unicode="ú"/>
<glyph glyph-name="ucircumflex" d="M335 759l157 -146h-125l-78 77l-78 -77h-125l157 146h92zM184 166q0 -35 7.5 -50t29.5 -15q34 0 86.5 38t84.5 72v339h135v-550h-135v79q-15 -27 -73 -58.5t-123 -31.5q-147 0 -147 177v384h135v-384z" unicode="û"/>
<glyph glyph-name="udieresis" d="M313 685q0 29 18 48t50 19q33 0 50 -18.5t17 -48.5q0 -31 -17 -49.5t-50 -18.5q-32 0 -50 19t-18 49zM121 685q0 30 18 48.5t51 18.5q31 0 49 -19t18 -48q0 -30 -18 -49t-49 -19q-33 0 -51 19t-18 49zM184 166q0 -35 7.5 -50t29.5 -15q34 0 86.5 38t84.5 72v339h135v-550 h-135v79q-15 -27 -73 -58.5t-123 -31.5q-147 0 -147 177v384h135v-384z" unicode="ü"/>
<glyph glyph-name="yacute" horiz-adv-x="518" unicode="ý" d="M325 756h134l-166 -146h-99zM-9 550h140l119 -306q114 277 147 306h154q-36 -36 -83.5 -136t-186.5 -439q-47 -119 -102 -170q-58 -57 -175 -64l-30 104q82 4 112 36q27 24 69 127q10 28 22 57z"/>
<glyph glyph-name="thorn" horiz-adv-x="627" unicode="þ" d="M360 449q-91 0 -163 -106v-176q71 -66 132 -66q49 1 79 49t30 133q0 67 -22 117t-56 49zM197 -243h-133v999h133v-248q67 53 163 53q95 -1 154 -83t59 -195q0 -139 -65 -217t-179 -77q-59 0 -132 43v-275z"/>
<glyph glyph-name="ydieresis" horiz-adv-x="518" unicode="ÿ" d="M-9 550h140l119 -306q114 277 147 306h154q-36 -36 -83.5 -136t-186.5 -439q-47 -119 -102 -170q-58 -57 -175 -64l-30 104q82 4 112 36q27 24 69 127q10 28 22 57zM277 685q0 29 18 48t50 19q33 0 50 -18.5t17 -48.5q0 -31 -17 -49.5t-50 -18.5q-32 0 -50 19t-18 49z M85 685q0 30 18 48.5t51 18.5q31 0 49 -19t18 -48q0 -30 -18 -49t-49 -19q-33 0 -51 19t-18 49z"/>
<glyph glyph-name="Abreve" horiz-adv-x="713" unicode="Ă" d="M175 951h106q3 -31 22.5 -51t46.5 -20q23 0 41 20.5t22 50.5h105q-8 -69 -52 -108.5t-116 -39.5q-156 0 -175 148zM420 358l-72 192l-72 -192h144zM282 770h133l284 -770h-147l-93 250h-223l-90 -250h-148z"/>
<glyph glyph-name="abreve" horiz-adv-x="567" unicode="ă" d="M115 751h106q3 -31 22.5 -51t46.5 -20q23 0 41 20.5t22 50.5h105q-8 -69 -52 -108.5t-116 -39.5q-156 0 -175 148zM207 90q80 0 143 73v82q-4 -1 -57 -8l-32 -5q-93 -17 -93 -85q0 -23 8.5 -37t16.5 -17t14 -3zM107 372l-57 97q161 92 282 92q46 0 78.5 -17.5t47 -45.5 t20.5 -52.5t6 -49.5v-277q0 -14 15 -32t45 -30l-82 -74q-67 26 -90 63q-74 -57 -164 -57q-12 0 -28 2t-43 11.5t-48.5 25t-37.5 47t-16 72.5q0 68 44.5 118t165.5 68q90 12 105 16v47q0 57 -30 57q-60 0 -213 -81z"/>
<glyph glyph-name="Aogonek" horiz-adv-x="713" unicode="Ą" d="M508 -48q0 18 10.5 38.5t25.5 37.5t30.5 32t26.5 23l10 8l72 -43q-8 -5 -19 -14t-29.5 -33.5t-18.5 -46.5q0 -15 11 -15q15 0 49 42l74 -68q-55 -62 -123 -62q-44 0 -81.5 27t-37.5 74zM420 358l-72 192l-72 -192h144zM282 770h133l284 -770h-147l-93 250h-223l-90 -250 h-148z"/>
<glyph glyph-name="Cacute" horiz-adv-x="647" unicode="Ć" d="M422 967h134l-166 -146h-99zM608 663l-93 -88q-2 4 -6.5 10t-19.5 22t-31.5 28.5t-42 22.5t-51.5 10q-74 0 -128 -80t-54 -224q0 -112 54 -189.5t129 -77.5q43 0 87.5 24.5t63 43t32.5 35.5l90 -90q-96 -124 -280 -124q-135 0 -227 108.5t-92 269.5q0 196 96 308t230 112 q48 0 91 -12.5t69.5 -30t46.5 -35.5t28 -30z"/>
<glyph glyph-name="cacute" horiz-adv-x="513" unicode="ć" d="M338 756h134l-166 -146h-99zM283 561q34 0 66.5 -10.5t53.5 -25.5t37.5 -30.5t23.5 -26.5l8 -10l-88 -83q-5 9 -13.5 22.5t-35.5 36t-54 22.5q-43 0 -77.5 -50t-34.5 -140q0 -72 29.5 -122t77.5 -50q25 0 52 13.5t74 58.5l81 -77q-43 -44 -83 -67.5t-65 -28t-59 -4.5 q-108 0 -175 78.5t-67 198.5q0 142 76.5 218.5t172.5 76.5z"/>
<glyph glyph-name="Ccircumflex" horiz-adv-x="647" unicode="Ĉ" d="M409 961l157 -146h-125l-78 77l-78 -77h-125l157 146h92zM608 663l-93 -88q-2 4 -6.5 10t-19.5 22t-31.5 28.5t-42 22.5t-51.5 10q-74 0 -128 -80t-54 -224q0 -112 54 -189.5t129 -77.5q43 0 87.5 24.5t63 43t32.5 35.5l90 -90q-96 -124 -280 -124q-135 0 -227 108.5 t-92 269.5q0 196 96 308t230 112q48 0 91 -12.5t69.5 -30t46.5 -35.5t28 -30z"/>
<glyph glyph-name="ccircumflex" horiz-adv-x="513" unicode="ĉ" d="M323 759l157 -146h-125l-78 77l-78 -77h-125l157 146h92zM283 561q34 0 66.5 -10.5t53.5 -25.5t37.5 -30.5t23.5 -26.5l8 -10l-88 -83q-5 9 -13.5 22.5t-35.5 36t-54 22.5q-43 0 -77.5 -50t-34.5 -140q0 -72 29.5 -122t77.5 -50q25 0 52 13.5t74 58.5l81 -77 q-43 -44 -83 -67.5t-65 -28t-59 -4.5q-108 0 -175 78.5t-67 198.5q0 142 76.5 218.5t172.5 76.5z"/>
<glyph glyph-name="Ccaron" horiz-adv-x="647" unicode="Č" d="M409 815h-92l-157 146h125l78 -77l78 77h126zM608 663l-93 -88q-2 4 -6.5 10t-19.5 22t-31.5 28.5t-42 22.5t-51.5 10q-74 0 -128 -80t-54 -224q0 -112 54 -189.5t129 -77.5q43 0 87.5 24.5t63 43t32.5 35.5l90 -90q-96 -124 -280 -124q-135 0 -227 108.5t-92 269.5 q0 196 96 308t230 112q48 0 91 -12.5t69.5 -30t46.5 -35.5t28 -30z"/>
<glyph glyph-name="ccaron" horiz-adv-x="513" unicode="č" d="M320 605h-92l-157 146h125l78 -77l78 77h126zM283 561q34 0 66.5 -10.5t53.5 -25.5t37.5 -30.5t23.5 -26.5l8 -10l-88 -83q-5 9 -13.5 22.5t-35.5 36t-54 22.5q-43 0 -77.5 -50t-34.5 -140q0 -72 29.5 -122t77.5 -50q25 0 52 13.5t74 58.5l81 -77q-43 -44 -83 -67.5 t-65 -28t-59 -4.5q-108 0 -175 78.5t-67 198.5q0 142 76.5 218.5t172.5 76.5z"/>
<glyph glyph-name="Dcaron" horiz-adv-x="731" unicode="Ď" d="M384 815h-92l-157 146h125l78 -77l78 77h126zM535 380q0 139 -51 213t-179 74q-40 0 -87 -7v-551h131q81 0 133.5 73.5t52.5 197.5zM77 0v755q145 20 226 20q63 0 113 -8.5t100.5 -34t84.5 -67.5t55 -114.5t21 -170.5q0 -178 -90 -279t-238 -101h-272z"/>
<glyph glyph-name="Ebreve" horiz-adv-x="565" unicode="Ĕ" d="M111 951h106q3 -31 22.5 -51t46.5 -20q23 0 41 20.5t22 50.5h105q-8 -69 -52 -108.5t-116 -39.5q-156 0 -175 148zM535 0h-473v770h331q27 0 59 2t51 4l19 3v-117h-319v-209h271v-109h-271v-235h204q27 0 59 2t50 4l19 2v-117z"/>
<glyph glyph-name="ebreve" horiz-adv-x="582" unicode="ĕ" d="M106 751h106q3 -31 22.5 -51t46.5 -20q23 0 41 20.5t22 50.5h105q-8 -69 -52 -108.5t-116 -39.5q-156 0 -175 148zM283 458q-65 0 -98 -92h194q-24 92 -96 92zM35 269q0 123 68.5 207.5t179.5 84.5q61 0 107.5 -22.5t70 -52t38 -68t17.5 -62t3 -41.5v-54h-351 q0 -77 31 -123t88 -46q34 0 68 20.5t88 86.5l83 -78q-62 -80 -119.5 -106t-119.5 -26q-120 0 -186 80.5t-66 199.5z"/>
<glyph glyph-name="Eogonek" horiz-adv-x="565" unicode="Ę" d="M293 -48q0 18 10.5 38.5t25.5 37.5t30.5 32t26.5 23l10 8l72 -43q-8 -5 -19 -14t-29.5 -33.5t-18.5 -46.5q0 -15 11 -15q15 0 49 42l74 -68q-55 -62 -123 -62q-44 0 -81.5 27t-37.5 74zM535 0h-473v770h331q27 0 59 2t51 4l19 3v-117h-319v-209h271v-109h-271v-235h204 q27 0 59 2t50 4l19 2v-117z"/>
<glyph glyph-name="eogonek" horiz-adv-x="582" unicode="ę" d="M225 -48q0 18 10.5 38.5t25.5 37.5t30.5 32t26.5 23l10 8l72 -43q-8 -5 -19 -14t-29.5 -33.5t-18.5 -46.5q0 -15 11 -15q15 0 49 42l74 -68q-55 -62 -123 -62q-44 0 -81.5 27t-37.5 74zM283 458q-65 0 -98 -92h194q-24 92 -96 92zM35 269q0 123 68.5 207.5t179.5 84.5 q61 0 107.5 -22.5t70 -52t38 -68t17.5 -62t3 -41.5v-54h-351q0 -77 31 -123t88 -46q34 0 68 20.5t88 86.5l83 -78q-62 -80 -119.5 -106t-119.5 -26q-120 0 -186 80.5t-66 199.5z"/>
<glyph glyph-name="Ecaron" horiz-adv-x="565" unicode="Ě" d="M339 805h-92l-157 146h125l78 -77l78 77h126zM535 0h-473v770h331q27 0 59 2t51 4l19 3v-117h-319v-209h271v-109h-271v-235h204q27 0 59 2t50 4l19 2v-117z"/>
<glyph glyph-name="ecaron" horiz-adv-x="582" unicode="ě" d="M323 605h-92l-157 146h125l78 -77l78 77h126zM283 458q-65 0 -98 -92h194q-24 92 -96 92zM35 269q0 123 68.5 207.5t179.5 84.5q61 0 107.5 -22.5t70 -52t38 -68t17.5 -62t3 -41.5v-54h-351q0 -77 31 -123t88 -46q34 0 68 20.5t88 86.5l83 -78q-62 -80 -119.5 -106 t-119.5 -26q-120 0 -186 80.5t-66 199.5z"/>
<glyph glyph-name="Gcircumflex" horiz-adv-x="753" unicode="Ĝ" d="M442 959l157 -146h-125l-78 77l-78 -77h-125l157 146h92zM672 396v-238q0 -70 -80.5 -121t-177.5 -51q-87 0 -155 25t-108.5 63.5t-66.5 91t-35.5 102t-9.5 101.5q0 89 23.5 161.5t61.5 119t87.5 77.5t99 44t98.5 13q47 0 91 -13.5t73 -33t52 -38.5t33 -33l11 -13 l-93 -93q-3 5 -8.5 12.5t-23 27.5t-35.5 35.5t-44.5 28t-51.5 12.5q-37 0 -75 -17.5t-74 -52t-58.5 -96.5t-22.5 -141q0 -36 5.5 -70.5t21.5 -72t40 -65t65.5 -45.5t94.5 -18q37 0 81 22t44 47v119h-65q-66 0 -108 22v103q59 -15 112 -15h198z"/>
<glyph glyph-name="gcircumflex" horiz-adv-x="618" unicode="ĝ" d="M311 759l157 -146h-125l-78 77l-78 -77h-125l157 146h92zM293 -153q77 0 117 35.5t40 88.5q0 57 -163 66q-22 0 -36.5 0.5t-18.5 0.5q-30 -19 -44.5 -42t-14.5 -70q0 -32 37.5 -55.5t82.5 -23.5zM71 132q0 42 58 95q-71 56 -71 154q0 46 23.5 82.5t60 57.5t74.5 31.5 t73 10.5q25 0 53 -6q65 53 151 53q30 0 86 -17l-19 -103q-45 15 -67 15q-10 0 -32 -4q58 -53 58 -120q0 -58 -23 -99.5t-60.5 -61t-73 -28t-73.5 -8.5q-32 0 -47 2q-35 -29 -36 -49q8 6 54 6q5 0 16 -0.5t15 -0.5q51 0 98 -8t93.5 -25.5t74 -53t27.5 -84.5q0 -99 -74 -163.5 t-217 -64.5q-100 0 -176.5 54.5t-76.5 128.5q0 57 15.5 86t53.5 57q-38 24 -38 63zM192 381q0 -101 97 -101q37 0 67 22.5t30 78.5q0 43 -31.5 65t-65.5 22t-65.5 -22t-31.5 -65z"/>
<glyph glyph-name="Gbreve" horiz-adv-x="753" unicode="Ğ" d="M217 961h106q3 -31 22.5 -51t46.5 -20q23 0 41 20.5t22 50.5h105q-8 -69 -52 -108.5t-116 -39.5q-156 0 -175 148zM672 396v-238q0 -70 -80.5 -121t-177.5 -51q-87 0 -155 25t-108.5 63.5t-66.5 91t-35.5 102t-9.5 101.5q0 89 23.5 161.5t61.5 119t87.5 77.5t99 44 t98.5 13q47 0 91 -13.5t73 -33t52 -38.5t33 -33l11 -13l-93 -93q-3 5 -8.5 12.5t-23 27.5t-35.5 35.5t-44.5 28t-51.5 12.5q-37 0 -75 -17.5t-74 -52t-58.5 -96.5t-22.5 -141q0 -36 5.5 -70.5t21.5 -72t40 -65t65.5 -45.5t94.5 -18q37 0 81 22t44 47v119h-65q-66 0 -108 22 v103q59 -15 112 -15h198z"/>
<glyph glyph-name="gbreve" horiz-adv-x="618" unicode="ğ" d="M115 751h106q3 -31 22.5 -51t46.5 -20q23 0 41 20.5t22 50.5h105q-8 -69 -52 -108.5t-116 -39.5q-156 0 -175 148zM293 -153q77 0 117 35.5t40 88.5q0 57 -163 66q-22 0 -36.5 0.5t-18.5 0.5q-30 -19 -44.5 -42t-14.5 -70q0 -32 37.5 -55.5t82.5 -23.5zM71 132 q0 42 58 95q-71 56 -71 154q0 46 23.5 82.5t60 57.5t74.5 31.5t73 10.5q25 0 53 -6q65 53 151 53q30 0 86 -17l-19 -103q-45 15 -67 15q-10 0 -32 -4q58 -53 58 -120q0 -58 -23 -99.5t-60.5 -61t-73 -28t-73.5 -8.5q-32 0 -47 2q-35 -29 -36 -49q8 6 54 6q5 0 16 -0.5 t15 -0.5q51 0 98 -8t93.5 -25.5t74 -53t27.5 -84.5q0 -99 -74 -163.5t-217 -64.5q-100 0 -176.5 54.5t-76.5 128.5q0 57 15.5 86t53.5 57q-38 24 -38 63zM192 381q0 -101 97 -101q37 0 67 22.5t30 78.5q0 43 -31.5 65t-65.5 22t-65.5 -22t-31.5 -65z"/>
<glyph glyph-name="Hcircumflex" horiz-adv-x="745" unicode="Ĥ" d="M418 959l157 -146h-125l-78 77l-78 -77h-125l157 146h92zM204 0h-141v770h141v-318h320v318h141v-770h-141v343h-320v-343z"/>
<glyph glyph-name="Itilde" horiz-adv-x="261" unicode="Ĩ" d="M308 972l49 -97q-7 -8 -18.5 -19t-48.5 -30t-74 -19q-30 0 -85 22.5t-88 22.5q-17 0 -39.5 -16.5t-36.5 -32.5l-14 -16l-47 95q6 8 18 19t48.5 30t73.5 19q32 0 88.5 -22.5t84.5 -22.5q16 0 38.5 17t36.5 33zM199 0h-142v770h142v-770z"/>
<glyph glyph-name="itilde" horiz-adv-x="256" unicode="ĩ" d="M305 751l49 -97q-7 -8 -18.5 -19t-48.5 -30t-74 -19q-30 0 -85 22.5t-88 22.5q-17 0 -39.5 -16.5t-36.5 -32.5l-14 -16l-47 95q6 8 18 19t48.5 30t73.5 19q32 0 88.5 -22.5t84.5 -22.5q16 0 38.5 17t36.5 33zM58 550h133v-550h-133v550z"/>
<glyph glyph-name="Ibreve" horiz-adv-x="261" unicode="Ĭ" d="M-43 961h106q3 -31 22.5 -51t46.5 -20q23 0 41 20.5t22 50.5h105q-8 -69 -52 -108.5t-116 -39.5q-156 0 -175 148zM199 0h-142v770h142v-770z"/>
<glyph glyph-name="ibreve" horiz-adv-x="256" unicode="ĭ" d="M-52 751h106q3 -31 22.5 -51t46.5 -20q23 0 41 20.5t22 50.5h105q-8 -69 -52 -108.5t-116 -39.5q-156 0 -175 148zM58 550h133v-550h-133v550z"/>
<glyph glyph-name="Iogonek" horiz-adv-x="261" unicode="Į" d="M21 -48q0 18 10.5 38.5t25.5 37.5t30.5 32t26.5 23l10 8l72 -43q-8 -5 -19 -14t-29.5 -33.5t-18.5 -46.5q0 -15 11 -15q15 0 49 42l74 -68q-55 -62 -123 -62q-44 0 -81.5 27t-37.5 74zM199 0h-142v770h142v-770z"/>
<glyph glyph-name="iogonek" horiz-adv-x="276" unicode="į" d="M18 -48q0 18 10.5 38.5t25.5 37.5t30.5 32t26.5 23l10 8l72 -43q-8 -5 -19 -14t-29.5 -33.5t-18.5 -46.5q0 -15 11 -15q15 0 49 42l74 -68q-55 -62 -123 -62q-44 0 -81.5 27t-37.5 74zM68 550h133v-550h-133v550zM57 704q0 29 22 48t56 19q33 0 55 -19t22 -48t-22 -48 t-55 -19q-34 0 -56 19t-22 48z"/>
<glyph glyph-name="dotlessi" horiz-adv-x="256" unicode="ı" d="M58 550h133v-550h-133v550z"/>
<glyph glyph-name="Jcircumflex" horiz-adv-x="289" unicode="Ĵ" d="M198 959l157 -146h-125l-78 77l-78 -77h-125l157 146h92zM124 770h141v-768q0 -58 -21.5 -104.5t-58 -76t-69.5 -46.5t-70 -29l-45 111q52 15 87.5 50.5t35.5 94.5v768z"/>
<glyph glyph-name="jcircumflex" horiz-adv-x="225" unicode="ĵ" d="M132 759l157 -146h-125l-78 77l-78 -77h-125l157 146h92zM17 550h133v-572q0 -87 -54.5 -154t-121.5 -91l-36 115q29 4 54 43t25 87v572z"/>
<glyph glyph-name="Nacute" horiz-adv-x="727" unicode="Ń" d="M432 947h134l-166 -146h-99zM204 0h-141v770l131 -1l313 -508v509h141v-770l-131 1l-313 509v-510z"/>
<glyph glyph-name="nacute" d="M326 756h134l-166 -146h-99zM198 0h-135v550h135v-70q109 81 197 81q146 0 146 -177v-384h-134v384q0 63 -40 63q-53 0 -169 -108v-339z" unicode="ń"/>
<glyph glyph-name="Ncaron" horiz-adv-x="727" unicode="Ň" d="M379 805h-92l-157 146h125l78 -77l78 77h126zM204 0h-141v770l131 -1l313 -508v509h141v-770l-131 1l-313 509v-510z"/>
<glyph glyph-name="ncaron" d="M350 605h-92l-157 146h125l78 -77l78 77h126zM198 0h-135v550h135v-70q109 81 197 81q146 0 146 -177v-384h-134v384q0 63 -40 63q-53 0 -169 -108v-339z" unicode="ň"/>
<glyph glyph-name="Obreve" horiz-adv-x="760" unicode="Ŏ" d="M195 964h106q3 -31 22.5 -51t46.5 -20q23 0 41 20.5t22 50.5h105q-8 -69 -52 -108.5t-116 -39.5q-156 0 -175 148zM374 677q-35 0 -67.5 -15t-61.5 -47t-46.5 -91t-17.5 -138q0 -152 57.5 -222t132.5 -70q80 0 135.5 68.5t56.5 221.5q0 151 -56 222t-133 71zM374 784 q49 0 93.5 -11.5t88.5 -40t76 -72.5t52 -114.5t20 -159.5q0 -113 -28 -194.5t-77.5 -124.5t-105 -62t-122.5 -19q-49 0 -93.5 11t-89 39.5t-76.5 72t-52 114.5t-20 161t20 161t52.5 115t77 73t89.5 40t95 11z"/>
<glyph glyph-name="obreve" horiz-adv-x="591" unicode="ŏ" d="M111 751h106q3 -31 22.5 -51t46.5 -20q23 0 41 20.5t22 50.5h105q-8 -69 -52 -108.5t-116 -39.5q-156 0 -175 148zM403 275q0 92 -34 139t-82 47q-49 0 -83 -45.5t-34 -140.5q0 -94 34 -140.5t83 -46.5q48 0 82 45.5t34 141.5zM35 275q0 146 72.5 216t179.5 70 q49 0 92.5 -16t80 -48.5t57.5 -89.5t21 -132q0 -147 -72.5 -216.5t-178.5 -69.5q-50 0 -93 15t-80 46.5t-58 89t-21 135.5z"/>
<glyph glyph-name="OE" horiz-adv-x="962" unicode="Œ" d="M444 110v551q-31 16 -67 16q-35 0 -67 -15t-62 -47t-48 -91t-17 -138q-1 -80 17 -139t48 -91t60 -47q32 -15 66 -15q33 0 70 16zM918 0h-439q-7 -2 -43 -8t-62 -6q-49 0 -94 11q-46 11 -90 39t-76 72t-52 115t-20 161t20 161t52 115t78 73q44 29 90 40t95 11 q56 0 102 -14h297q27 0 59 2t51 4l19 3v-117h-320v-209h272v-109h-272v-235h204q27 0 59 2t51 4l19 2v-117z"/>
<glyph glyph-name="oe" horiz-adv-x="976" unicode="œ" d="M658 458q-65 0 -98 -92h194q-24 92 -96 92zM410 281q0 94 -34 137t-83 43q-49 1 -83 -45t-34 -141t34 -141t83 -46t83 49t34 144zM41 275q1 146 73 216t179 70q120 0 187 -81q74 81 178 81q62 -1 108 -23t70 -52t38 -68t17 -62t3 -41v-54h-351q0 -77 31 -123t88 -46 q40 0 74 24t81 83l84 -78q-52 -66 -105 -99t-134 -33q-117 0 -185 76q-65 -76 -184 -76q-50 0 -93 15q-43 14 -80 46t-58 90t-21 135z"/>
<glyph glyph-name="Racute" horiz-adv-x="658" unicode="Ŕ" d="M362 957h134l-166 -146h-99zM317 415q45 0 78 32t34 110q0 53 -28.5 84.5t-76.5 31.5q-61 0 -120 -35v-223h113zM204 0h-141v770h141v-40q16 19 50 36.5t83 17.5q104 0 167.5 -61t63.5 -166q0 -181 -151 -234q41 -42 99 -130q85 -127 167 -193h-173q-53 41 -116 139 q-30 47 -50 75t-47.5 57t-48.5 36h-44v-307z"/>
<glyph glyph-name="racute" horiz-adv-x="441" unicode="ŕ" d="M244 756h134l-166 -146h-99zM62 550h128v-54q10 20 42 42.5t67 22.5q43 0 82 -17.5t57 -35.5l17 -17l-90 -87q-36 47 -63 47q-52 0 -105 -112v-339h-135v550z"/>
<glyph glyph-name="Rcaron" horiz-adv-x="658" unicode="Ř" d="M345 815h-92l-157 146h125l78 -77l78 77h126zM317 415q45 0 78 32t34 110q0 53 -28.5 84.5t-76.5 31.5q-61 0 -120 -35v-223h113zM204 0h-141v770h141v-40q16 19 50 36.5t83 17.5q104 0 167.5 -61t63.5 -166q0 -181 -151 -234q41 -42 99 -130q85 -127 167 -193h-173 q-53 41 -116 139q-30 47 -50 75t-47.5 57t-48.5 36h-44v-307z"/>
<glyph glyph-name="rcaron" horiz-adv-x="441" unicode="ř" d="M259 605h-92l-157 146h125l78 -77l78 77h126zM62 550h128v-54q10 20 42 42.5t67 22.5q43 0 82 -17.5t57 -35.5l17 -17l-90 -87q-36 47 -63 47q-52 0 -105 -112v-339h-135v550z"/>
<glyph glyph-name="Sacute" horiz-adv-x="623" unicode="Ś" d="M362 957h134l-166 -146h-99zM30 151l98 86q44 -71 89.5 -104.5t100.5 -34.5q53 0 88.5 30.5t35.5 87.5q0 28 -11 49t-35.5 35t-44.5 22t-57 19q-54 16 -89 30.5t-71.5 40t-54.5 63t-18 88.5q0 54 18 95.5t44 64.5t61 37.5t62.5 19t54.5 4.5q144 0 237 -110l-92 -79 q-75 77 -145 77q-15 0 -30 -4t-32.5 -15t-28 -34.5t-10.5 -56.5q0 -42 34.5 -65t99.5 -41q44 -14 73 -25t65 -31.5t57.5 -44t36.5 -59.5t15 -80q0 -110 -77 -170t-189 -60q-94 0 -162.5 40t-122.5 125z"/>
<glyph glyph-name="sacute" horiz-adv-x="507" unicode="ś" d="M301 756h134l-166 -146h-99zM185 397q0 -12 6.5 -21t22.5 -16.5t25 -11t33 -11.5q37 -11 56 -18t49.5 -22t46 -31.5t27.5 -44t12 -62.5q0 -82 -62 -126t-148 -44q-67 0 -130 32.5t-102 93.5l95 76q25 -46 63 -73t76 -28q31 0 52.5 18t21.5 51q0 28 -25 43.5t-71 29.5 q-39 11 -65.5 22.5t-56 30.5t-45 47t-15.5 65q0 49 21 84t54 51t61.5 22.5t55.5 6.5q115 0 195 -78l-85 -81q-52 58 -110 58q-21 0 -39.5 -13.5t-18.5 -49.5z"/>
<glyph glyph-name="Scircumflex" horiz-adv-x="623" unicode="Ŝ" d="M355 963l157 -146h-125l-78 77l-78 -77h-125l157 146h92zM30 151l98 86q44 -71 89.5 -104.5t100.5 -34.5q53 0 88.5 30.5t35.5 87.5q0 28 -11 49t-35.5 35t-44.5 22t-57 19q-54 16 -89 30.5t-71.5 40t-54.5 63t-18 88.5q0 54 18 95.5t44 64.5t61 37.5t62.5 19t54.5 4.5 q144 0 237 -110l-92 -79q-75 77 -145 77q-15 0 -30 -4t-32.5 -15t-28 -34.5t-10.5 -56.5q0 -42 34.5 -65t99.5 -41q44 -14 73 -25t65 -31.5t57.5 -44t36.5 -59.5t15 -80q0 -110 -77 -170t-189 -60q-94 0 -162.5 40t-122.5 125z"/>
<glyph glyph-name="scircumflex" horiz-adv-x="507" unicode="ŝ" d="M285 759l157 -146h-125l-78 77l-78 -77h-125l157 146h92zM185 397q0 -12 6.5 -21t22.5 -16.5t25 -11t33 -11.5q37 -11 56 -18t49.5 -22t46 -31.5t27.5 -44t12 -62.5q0 -82 -62 -126t-148 -44q-67 0 -130 32.5t-102 93.5l95 76q25 -46 63 -73t76 -28q31 0 52.5 18t21.5 51 q0 28 -25 43.5t-71 29.5q-39 11 -65.5 22.5t-56 30.5t-45 47t-15.5 65q0 49 21 84t54 51t61.5 22.5t55.5 6.5q115 0 195 -78l-85 -81q-52 58 -110 58q-21 0 -39.5 -13.5t-18.5 -49.5z"/>
<glyph glyph-name="Scaron" horiz-adv-x="623" unicode="Š" d="M341 815h-92l-157 146h125l78 -77l78 77h126zM30 151l98 86q44 -71 89.5 -104.5t100.5 -34.5q53 0 88.5 30.5t35.5 87.5q0 28 -11 49t-35.5 35t-44.5 22t-57 19q-54 16 -89 30.5t-71.5 40t-54.5 63t-18 88.5q0 54 18 95.5t44 64.5t61 37.5t62.5 19t54.5 4.5 q144 0 237 -110l-92 -79q-75 77 -145 77q-15 0 -30 -4t-32.5 -15t-28 -34.5t-10.5 -56.5q0 -42 34.5 -65t99.5 -41q44 -14 73 -25t65 -31.5t57.5 -44t36.5 -59.5t15 -80q0 -110 -77 -170t-189 -60q-94 0 -162.5 40t-122.5 125z"/>
<glyph glyph-name="scaron" horiz-adv-x="507" unicode="š" d="M287 605h-92l-157 146h125l78 -77l78 77h126zM185 397q0 -12 6.5 -21t22.5 -16.5t25 -11t33 -11.5q37 -11 56 -18t49.5 -22t46 -31.5t27.5 -44t12 -62.5q0 -82 -62 -126t-148 -44q-67 0 -130 32.5t-102 93.5l95 76q25 -46 63 -73t76 -28q31 0 52.5 18t21.5 51 q0 28 -25 43.5t-71 29.5q-39 11 -65.5 22.5t-56 30.5t-45 47t-15.5 65q0 49 21 84t54 51t61.5 22.5t55.5 6.5q115 0 195 -78l-85 -81q-52 58 -110 58q-21 0 -39.5 -13.5t-18.5 -49.5z"/>
<glyph glyph-name="Tcaron" horiz-adv-x="561" unicode="Ť" d="M323 815h-92l-157 146h125l78 -77l78 77h126zM-12 661v109h573v-109h-218v-661h-141v661h-214z"/>
<glyph glyph-name="Utilde" horiz-adv-x="688" unicode="Ũ" d="M500 996l49 -97q-7 -8 -18.5 -19t-48.5 -30t-74 -19q-30 0 -85 22.5t-88 22.5q-17 0 -39.5 -16.5t-36.5 -32.5l-14 -16l-47 95q6 8 18 19t48.5 30t73.5 19q32 0 88.5 -22.5t84.5 -22.5q16 0 38.5 17t36.5 33zM610 246q0 -66 -20.5 -115t-49.5 -75.5t-69 -42.5t-70.5 -20 t-63.5 -4t-64 4.5t-71 20.5t-69.5 42.5t-50 75.5t-20.5 114v524h142v-522q0 -46 14 -78.5t36.5 -46.5t42 -19.5t40.5 -5.5q20 0 39.5 6t42 20t36.5 45.5t14 76.5v524h141v-524z"/>
<glyph glyph-name="utilde" d="M469 751l49 -97q-7 -8 -18.5 -19t-48.5 -30t-74 -19q-30 0 -85 22.5t-88 22.5q-17 0 -39.5 -16.5t-36.5 -32.5l-14 -16l-47 95q6 8 18 19t48.5 30t73.5 19q32 0 88.5 -22.5t84.5 -22.5q16 0 38.5 17t36.5 33zM184 166q0 -35 7.5 -50t29.5 -15q34 0 86.5 38t84.5 72v339 h135v-550h-135v79q-15 -27 -73 -58.5t-123 -31.5q-147 0 -147 177v384h135v-384z" unicode="ũ"/>
<glyph glyph-name="Ubreve" horiz-adv-x="688" unicode="Ŭ" d="M163 954h106q3 -31 22.5 -51t46.5 -20q23 0 41 20.5t22 50.5h105q-8 -69 -52 -108.5t-116 -39.5q-156 0 -175 148zM610 246q0 -66 -20.5 -115t-49.5 -75.5t-69 -42.5t-70.5 -20t-63.5 -4t-64 4.5t-71 20.5t-69.5 42.5t-50 75.5t-20.5 114v524h142v-522q0 -46 14 -78.5 t36.5 -46.5t42 -19.5t40.5 -5.5q20 0 39.5 6t42 20t36.5 45.5t14 76.5v524h141v-524z"/>
<glyph glyph-name="ubreve" d="M108 751h106q3 -31 22.5 -51t46.5 -20q23 0 41 20.5t22 50.5h105q-8 -69 -52 -108.5t-116 -39.5q-156 0 -175 148zM184 166q0 -35 7.5 -50t29.5 -15q34 0 86.5 38t84.5 72v339h135v-550h-135v79q-15 -27 -73 -58.5t-123 -31.5q-147 0 -147 177v384h135v-384z" unicode="ŭ"/>
<glyph glyph-name="Uring" horiz-adv-x="688" unicode="Ů" d="M228 915q0 40 31.5 68.5t75.5 28.5t75.5 -28.5t31.5 -68.5t-31.5 -68.5t-75.5 -28.5t-75.5 28.5t-31.5 68.5zM320 915q0 -12 5 -20t12 -8q15 0 15 28q0 9 -4.5 16.5t-10.5 7.5q-7 0 -12 -7.5t-5 -16.5zM610 246q0 -66 -20.5 -115t-49.5 -75.5t-69 -42.5t-70.5 -20 t-63.5 -4t-64 4.5t-71 20.5t-69.5 42.5t-50 75.5t-20.5 114v524h142v-522q0 -46 14 -78.5t36.5 -46.5t42 -19.5t40.5 -5.5q20 0 39.5 6t42 20t36.5 45.5t14 76.5v524h141v-524z"/>
<glyph glyph-name="uring" d="M175 692q0 40 31.5 68.5t75.5 28.5t75.5 -28.5t31.5 -68.5t-31.5 -68.5t-75.5 -28.5t-75.5 28.5t-31.5 68.5zM267 692q0 -12 5 -20t12 -8q15 0 15 28q0 9 -4.5 16.5t-10.5 7.5q-7 0 -12 -7.5t-5 -16.5zM184 166q0 -35 7.5 -50t29.5 -15q34 0 86.5 38t84.5 72v339h135 v-550h-135v79q-15 -27 -73 -58.5t-123 -31.5q-147 0 -147 177v384h135v-384z" unicode="ů"/>
<glyph glyph-name="uogonek" d="M352 -48q0 18 10.5 38.5t25.5 37.5t30.5 32t26.5 23l10 8l72 -43q-8 -5 -19 -14t-29.5 -33.5t-18.5 -46.5q0 -15 11 -15q15 0 49 42l74 -68q-55 -62 -123 -62q-44 0 -81.5 27t-37.5 74zM184 166q0 -35 7.5 -50t29.5 -15q34 0 86.5 38t84.5 72v339h135v-550h-135v79 q-15 -27 -73 -58.5t-123 -31.5q-147 0 -147 177v384h135v-384z" unicode="ų"/>
<glyph glyph-name="Wcircumflex" horiz-adv-x="981" unicode="Ŵ" d="M535 949l157 -146h-125l-78 77l-78 -77h-125l157 146h92zM339 0h-117l-218 770h144l132 -497l131 497h136l131 -499l132 499h145l-218 -770h-117l-141 492z"/>
<glyph glyph-name="wcircumflex" horiz-adv-x="782" unicode="ŵ" d="M419 759l157 -146h-125l-78 77l-78 -77h-125l157 146h92zM285 0h-120l-159 550h142l82 -309l88 309h114l88 -311q78 292 113 311h136q-21 -21 -68.5 -158.5t-84.5 -264.5l-36 -127h-113l-91 315z"/>
<glyph glyph-name="Ycircumflex" horiz-adv-x="620" unicode="Ŷ" d="M354 957l157 -146h-125l-78 77l-78 -77h-125l157 146h92zM475 770h154l-255 -402v-368h-140v368l-257 402h158l170 -265z"/>
<glyph glyph-name="ycircumflex" horiz-adv-x="518" unicode="ŷ" d="M298 759l157 -146h-125l-78 77l-78 -77h-125l157 146h92zM-9 550h140l119 -306q114 277 147 306h154q-36 -36 -83.5 -136t-186.5 -439q-47 -119 -102 -170q-58 -57 -175 -64l-30 104q82 4 112 36q27 24 69 127q10 28 22 57z"/>
<glyph glyph-name="Ydieresis" horiz-adv-x="620" unicode="Ÿ" d="M339 880q0 29 18 48t50 19q33 0 50 -18.5t17 -48.5q0 -31 -17 -49.5t-50 -18.5q-32 0 -50 19t-18 49zM147 880q0 30 18 48.5t51 18.5q31 0 49 -19t18 -48q0 -30 -18 -49t-49 -19q-33 0 -51 19t-18 49zM475 770h154l-255 -402v-368h-140v368l-257 402h158l170 -265z"/>
<glyph glyph-name="Zacute" horiz-adv-x="616" unicode="Ź" d="M352 957h134l-166 -146h-99zM574 143v-118q-20 -11 -55.5 -17.5t-60.5 -7.5h-25h-405v98l355 558h-345v114h516v-96l-353 -560h234q60 0 139 29z"/>
<glyph glyph-name="zacute" horiz-adv-x="521" unicode="ź" d="M322 756h134l-166 -146h-99zM486 131v-104q-11 -12 -35 -18.5t-43 -7.5l-18 -1h-361v87l275 362h-275v101h441v-86l-275 -362h196q58 0 95 29z"/>
<glyph glyph-name="Zcaron" horiz-adv-x="616" unicode="Ž" d="M364 813h-92l-157 146h125l78 -77l78 77h126zM574 143v-118q-20 -11 -55.5 -17.5t-60.5 -7.5h-25h-405v98l355 558h-345v114h516v-96l-353 -560h234q60 0 139 29z"/>
<glyph glyph-name="zcaron" horiz-adv-x="521" unicode="ž" d="M306 605h-92l-157 146h125l78 -77l78 77h126zM486 131v-104q-11 -12 -35 -18.5t-43 -7.5l-18 -1h-361v87l275 362h-275v101h441v-86l-275 -362h196q58 0 95 29z"/>
<glyph glyph-name="AEacute" horiz-adv-x="983" unicode="Ǽ" d="M587 959h134l-166 -146h-99zM464 564l-116 -206h116v206zM938 0h-474v250h-175l-140 -250h-151l425 770h373q27 0 59 2t51 4l18 3v-117h-319v-209h272v-109h-272v-235h204q27 0 59 2t51 4l19 2v-117z"/>
<glyph glyph-name="aeacute" horiz-adv-x="901" unicode="ǽ" d="M483 756h134l-166 -146h-99zM587 456q-67 0 -98 -90h193q-23 90 -95 90zM212 90q32 0 61 12t44.5 25t36.5 35q-9 31 -11 81l-77 -11q-55 -9 -74 -31t-19 -54q0 -23 8.5 -37t16.5 -17t14 -3zM324 561q79 0 118 -50q62 50 145 50q61 0 107.5 -22.5t70 -52t38 -68t17.5 -62 t3 -41.5v-54h-351q0 -78 31 -124.5t88 -46.5q76 0 155 109l83 -78q-62 -78 -118.5 -105t-119.5 -27q-117 0 -187 78q-84 -78 -191 -78q-12 0 -28 2t-43 11.5t-48.5 25t-37.5 47t-16 72.5q0 68 44.5 118t164.5 68q81 11 94 14v49q0 60 -30 60q-87 0 -219 -87l-49 98 q49 31 126.5 62.5t152.5 31.5z"/>
<glyph glyph-name="dotlessj" horiz-adv-x="225" unicode="ȷ" d="M17 550h133v-572q0 -87 -54.5 -154t-121.5 -91l-36 115q29 4 54 43t25 87v572z"/>
<glyph glyph-name="circumflex" horiz-adv-x="501" unicode="ˆ" d="M291 759l157 -146h-125l-78 77l-78 -77h-125l157 146h92z"/>
<glyph glyph-name="caron" horiz-adv-x="501" unicode="ˇ" d="M291 605h-92l-157 146h125l78 -77l78 77h126z"/>
<glyph glyph-name="breve" horiz-adv-x="438" unicode="˘" d="M53 751h106q3 -31 22.5 -51t46.5 -20q23 0 41 20.5t22 50.5h105q-8 -69 -52 -108.5t-116 -39.5q-156 0 -175 148z"/>
<glyph glyph-name="dotaccent" horiz-adv-x="196" unicode="˙" d="M19 703q0 29 22 48t56 19q33 0 55 -19t22 -48t-22 -48t-55 -19q-34 0 -56 19t-22 48z"/>
<glyph glyph-name="ring" horiz-adv-x="321" unicode="˚" d="M52 692q0 40 31.5 68.5t75.5 28.5t75.5 -28.5t31.5 -68.5t-31.5 -68.5t-75.5 -28.5t-75.5 28.5t-31.5 68.5zM144 692q0 -12 5 -20t12 -8q15 0 15 28q0 9 -4.5 16.5t-10.5 7.5q-7 0 -12 -7.5t-5 -16.5z"/>
<glyph glyph-name="ogonek" horiz-adv-x="323" unicode="˛" d="M39 -48q0 18 10.5 38.5t25.5 37.5t30.5 32t26.5 23l10 8l72 -43q-8 -5 -19 -14t-29.5 -33.5t-18.5 -46.5q0 -15 11 -15q15 0 49 42l74 -68q-55 -62 -123 -62q-44 0 -81.5 27t-37.5 74z"/>
<glyph glyph-name="tilde" horiz-adv-x="542" unicode="˜" d="M442 751l49 -97q-7 -8 -18.5 -19t-48.5 -30t-74 -19q-30 0 -85 22.5t-88 22.5q-17 0 -39.5 -16.5t-36.5 -32.5l-14 -16l-47 95q6 8 18 19t48.5 30t73.5 19q32 0 88.5 -22.5t84.5 -22.5q16 0 38.5 17t36.5 33z"/>
<glyph glyph-name="hungarumlaut" horiz-adv-x="496" unicode="˝" d="M157 581l197 176h132l-200 -176h-129zM16 581l158 176h131l-161 -176h-128z"/>
<glyph glyph-name="Wgrave" horiz-adv-x="981" unicode="Ẁ" d="M259 959h134l131 -146h-99zM339 0h-117l-218 770h144l132 -497l131 497h136l131 -499l132 499h145l-218 -770h-117l-141 492z"/>
<glyph glyph-name="wgrave" horiz-adv-x="782" unicode="ẁ" d="M167 756h134l131 -146h-99zM285 0h-120l-159 550h142l82 -309l88 309h114l88 -311q78 292 113 311h136q-21 -21 -68.5 -158.5t-84.5 -264.5l-36 -127h-113l-91 315z"/>
<glyph glyph-name="Wacute" horiz-adv-x="981" unicode="Ẃ" d="M557 957h134l-166 -146h-99zM339 0h-117l-218 770h144l132 -497l131 497h136l131 -499l132 499h145l-218 -770h-117l-141 492z"/>
<glyph glyph-name="wacute" horiz-adv-x="782" unicode="ẃ" d="M444 756h134l-166 -146h-99zM285 0h-120l-159 550h142l82 -309l88 309h114l88 -311q78 292 113 311h136q-21 -21 -68.5 -158.5t-84.5 -264.5l-36 -127h-113l-91 315z"/>
<glyph glyph-name="Wdieresis" horiz-adv-x="981" unicode="Ẅ" d="M519 874q0 29 18 48t50 19q33 0 50 -18.5t17 -48.5q0 -31 -17 -49.5t-50 -18.5q-32 0 -50 19t-18 49zM327 874q0 30 18 48.5t51 18.5q31 0 49 -19t18 -48q0 -30 -18 -49t-49 -19q-33 0 -51 19t-18 49zM339 0h-117l-218 770h144l132 -497l131 497h136l131 -499l132 499 h145l-218 -770h-117l-141 492z"/>
<glyph glyph-name="wdieresis" horiz-adv-x="782" unicode="ẅ" d="M404 685q0 29 18 48t50 19q33 0 50 -18.5t17 -48.5q0 -31 -17 -49.5t-50 -18.5q-32 0 -50 19t-18 49zM212 685q0 30 18 48.5t51 18.5q31 0 49 -19t18 -48q0 -30 -18 -49t-49 -19q-33 0 -51 19t-18 49zM285 0h-120l-159 550h142l82 -309l88 309h114l88 -311 q78 292 113 311h136q-21 -21 -68.5 -158.5t-84.5 -264.5l-36 -127h-113l-91 315z"/>
<glyph glyph-name="Ygrave" horiz-adv-x="620" unicode="Ỳ" d="M94 959h134l131 -146h-99zM475 770h154l-255 -402v-368h-140v368l-257 402h158l170 -265z"/>
<glyph glyph-name="ygrave" horiz-adv-x="518" unicode="ỳ" d="M58 756h134l131 -146h-99zM-9 550h140l119 -306q114 277 147 306h154q-36 -36 -83.5 -136t-186.5 -439q-47 -119 -102 -170q-58 -57 -175 -64l-30 104q82 4 112 36q27 24 69 127q10 28 22 57z"/>
<glyph glyph-name="endash" horiz-adv-x="664" unicode="–" d="M616 330v-98h-582v98h582z"/>
<glyph glyph-name="emdash" horiz-adv-x="794" unicode="—" d="M741 330v-98h-706v98h706z"/>
<glyph glyph-name="quoteleft" horiz-adv-x="210" unicode="‘" d="M187 582q0 -30 -23 -50t-58 -20q-44 0 -66 26t-21 70q0 75 86 180l77 -47q-36 -45 -49 -92q54 -15 54 -67z"/>
<glyph glyph-name="quoteright" horiz-adv-x="210" unicode="’" d="M19 699q-1 31 23 51t59 19q44 -1 65 -27t21 -69q0 -74 -85 -180l-78 47q36 43 49 92q-54 14 -54 67z"/>
<glyph glyph-name="quotedblleft" horiz-adv-x="381" unicode="“" d="M372 582q0 -30 -24 -50t-58 -20q-44 0 -65 26t-21 70q0 75 86 180l77 -47q-36 -45 -49 -92q54 -15 54 -67zM169 582q0 -30 -23 -50t-58 -20q-44 0 -66 26t-21 70q0 75 86 180l77 -47q-36 -45 -49 -92q54 -15 54 -67z"/>
<glyph glyph-name="quotedblright" horiz-adv-x="381" unicode="”" d="M1 699q-1 31 23 51t59 19q44 -1 65 -27t21 -69q0 -74 -85 -180l-78 47q36 43 49 92q-54 14 -54 67zM204 699q0 31 24 51t58 19q44 -1 65 -27t21 -69q0 -74 -85 -180l-78 47q36 43 49 92q-54 14 -54 67z"/>
<glyph glyph-name="bullet" horiz-adv-x="343" unicode="•" d="M30 245q0 54 40 90t100 36q58 0 97 -36t39 -90q0 -56 -39 -93t-97 -37q-60 0 -100 37t-40 93z"/>
<glyph glyph-name="ellipsis" horiz-adv-x="619" unicode="…" d="M407 71q0 33 25 55t63 22q37 0 62 -22t25 -55t-25 -55t-62 -23q-37 1 -63 23t-25 55zM215 71q-1 33 25 55t64 22t62 -22t24 -55t-24 -55t-62 -23q-38 1 -64 23t-25 55zM24 71q0 33 25 55t63 22q37 0 62 -22t25 -55t-25 -55t-62 -23q-36 1 -62 23t-26 55z"/>
<glyph glyph-name="trademark" horiz-adv-x="880" unicode="™" d="M36 660v91h359v-91h-117v-287h-125v287h-117zM530 373h-123v378h114l104 -227l101 227h114v-378h-125v94l-38 -94h-107l-40 97v-97z"/>
<glyph glyph-name="minus" horiz-adv-x="663" unicode="−" d="M615 331v-100h-581v100h581z"/>
<glyph glyph-name="Acute" horiz-adv-x="348" unicode="" d="M181 950h134l-166 -146h-99z"/>
<glyph glyph-name="Dieresis" horiz-adv-x="437" unicode="" d="M242 860q0 29 18 48t50 19q33 0 50 -18.5t17 -48.5q0 -31 -17 -49.5t-50 -18.5q-32 0 -50 19t-18 49zM50 860q0 30 18 48.5t51 18.5q31 0 49 -19t18 -48q0 -30 -18 -49t-49 -19q-33 0 -51 19t-18 49z"/>
<glyph glyph-name="zero.lnum" d="M482 369q0 139 -40 207t-110 68q-68 0 -110 -68t-43 -207q-1 -138 43 -205t110 -67t108 67t42 205zM41 369q0 105 24 181t66 120q42 42 92 62t109 19q60 1 110 -19t90 -62q42 -42 65 -120q23 -76 23 -181q0 -85 -16 -151t-42 -110q-26 -43 -64 -71q-38 -27 -78 -39 q-41 -12 -88 -12q-59 0 -109 20t-92 62t-66 119t-24 182z" horiz-adv-x="682"/>
<glyph glyph-name="one.lnum" d="M299 0h-139v577l-58 -49l-81 92l155 117h123v-737z" horiz-adv-x="368"/>
<glyph glyph-name="two.lnum" d="M143 561l-44 -4q-59 58 -59 66q75 127 215 128q95 1 157 -51t61 -141q0 -119 -262 -452h279v-107h-461v81q13 15 33 39t74 91t95 125t75 122t33 99q1 41 -25 64t-60 23q-31 0 -59 -21t-40 -41z" horiz-adv-x="541"/>
<glyph glyph-name="three.lnum" d="M114 556l-81 80q2 4 7 12q4 8 22 28t38 35t55 27q34 12 71 13q78 0 132 -47t54 -118q0 -64 -66 -125q63 -20 105 -70t42 -114q-1 -71 -29 -129t-74 -92t-95 -52q-50 -18 -98 -18q-45 0 -92 18t-71 38l-25 19l83 77q49 -42 104 -42q36 0 72 18t64 62t28 101q0 37 -26 66 t-59 29q-44 0 -116 -20l-44 -3v92q164 60 164 145q1 24 -15 40t-37 16q-30 0 -58 -22t-41 -42z" horiz-adv-x="548"/>
<glyph glyph-name="four.lnum" d="M357 497l-161 -218h161v218zM595 279v-107h-98v-172h-140v172h-340v65l378 500h102v-458h98z" horiz-adv-x="626"/>
<glyph glyph-name="five.lnum" d="M207 631v-133q40 10 76 10q122 0 189 -63t67 -165q0 -150 -72 -222t-194 -72q-39 0 -77 10t-63 24q-27 14 -47 30q-20 14 -30 24l-10 10l74 90q9 -9 25 -23q17 -14 57 -37t71 -23q60 0 97 46t37 141q-1 48 -33 87t-91 39q-63 0 -112 -34h-102v367h417v-106h-279z" horiz-adv-x="601"/>
<glyph glyph-name="six.lnum" d="M308 90q40 0 67 27t37 59t9 63q0 123 -90 123q-81 0 -147 -136q14 -66 46 -101t78 -35zM331 467q99 -1 161 -55t62 -173q0 -30 -7 -62t-25 -67t-46 -62q-26 -26 -70 -44t-98 -18q-126 0 -195 92t-69 262q0 168 84 290t209 121q87 0 194 -77l-80 -84q-60 52 -111 52 q-46 0 -81 -38t-53 -86q-18 -50 -26 -111q67 60 151 60z" horiz-adv-x="613"/>
<glyph glyph-name="seven.lnum" d="M25 624v113h460v-75q-48 -102 -121 -238t-165 -275q-92 -140 -138 -160l-82 75q43 26 152 208t193 352h-299z" horiz-adv-x="511"/>
<glyph glyph-name="eight.lnum" d="M195 580q0 -60 89 -134q89 61 89 134q0 75 -89 75q-37 1 -63 -17t-26 -58zM391 171q0 33 -32 69t-93 80q-34 -26 -62 -70t-28 -80q0 -39 32 -61t76 -22q46 -1 76 19t31 65zM507 580q0 -110 -134 -200q71 -52 111 -102t41 -107q0 -52 -22 -90t-59 -58q-36 -21 -76 -29 t-84 -8q-35 0 -67 5t-64 19q-31 14 -55 33q-24 20 -39 53t-15 75q0 63 40 118t96 94q-118 100 -118 197q0 46 20 80t52 54q32 19 70 28t80 9t80 -9t70 -28q33 -20 53 -54t20 -80z" horiz-adv-x="587"/>
<glyph glyph-name="nine.lnum" d="M286 647q-56 -1 -84 -49t-28 -100q0 -65 25 -94t64 -29q82 0 147 136q-13 66 -45 101t-79 35zM263 270q-99 0 -161 54t-62 174q0 38 13 79t39 81t78 67q50 26 116 26q126 0 196 -92t69 -261q1 -110 -37 -204t-106 -151t-150 -57q-88 0 -195 77l81 84q60 -52 110 -52 q46 -1 81 37t53 88t26 110q-65 -60 -151 -60z" horiz-adv-x="613"/>
<glyph glyph-name="Circumflex" d="M291 949l157 -146h-125l-78 77l-78 -77h-125l157 146h92z" horiz-adv-x="501"/>
<glyph glyph-name="ffi" d="M466 622v-72h119v72q0 30 5 53q-60 31 -85 31q-13 0 -21 -6t-12 -20t-5 -25t-1 -33zM212 622v-72h119v72q0 31 4 54q-52 30 -84 30q-17 0 -26 -12t-11 -28q-2 -15 -2 -44zM719 622v-72h268v-550h-134v449h-134v-449h-134v449h-119v-449h-135v449h-119v-449h-134v449h-66 v101h66v72q0 185 173 185q61 0 133 -38q43 38 120 38q62 0 134 -38q47 38 120 38q38 -1 88 -19t79 -37l30 -19l-77 -77q-82 51 -120 51q-14 0 -22 -6t-12 -19q-4 -14 -4 -25q-1 -11 -1 -34z" horiz-adv-x="1062"/>
</font>
</defs>
</svg>
